 <svg xmlns="http://www.w3.org/2000/svg">
      <symbol id="icon-phone" viewBox="0 0 24 24">
        <path
          d="M20.7868 24C20.6868 24 20.5938 24 20.4978 23.987H20.4798C16.9238 23.5973 13.5075 22.3846 10.5018 20.445C7.71245 18.6698 5.34459 16.3067 3.56377 13.521C1.61307 10.5086 0.396776 7.08027 0.0127666 3.512V3.496C-0.026923 3.05231 0.0261711 2.60521 0.168671 2.18315C0.311171 1.76109 0.539957 1.37331 0.840475 1.04449C1.14099 0.715657 1.50666 0.452976 1.91422 0.273155C2.32178 0.0933345 2.7623 0.000309985 3.20777 0H6.54977C7.32237 0.00287933 8.06828 0.282943 8.65186 0.789263C9.23544 1.29558 9.61793 1.99453 9.72977 2.759V2.768C9.86024 3.75308 10.1018 4.72024 10.4498 5.651C10.6644 6.22521 10.7103 6.84883 10.582 7.44826C10.4537 8.0477 10.1566 8.59792 9.72577 9.034L8.87377 9.884C10.2041 11.9884 11.9883 13.7685 14.0958 15.094L14.9498 14.242C15.3867 13.8109 15.938 13.514 16.5384 13.3862C17.1387 13.2584 17.7631 13.3052 18.3378 13.521C19.2704 13.8681 20.2392 14.109 21.2258 14.239H21.2348C22.0123 14.348 22.7229 14.7382 23.2321 15.3358C23.7413 15.9335 24.0137 16.697 23.9978 17.482V20.782C23.9988 21.2043 23.9165 21.6227 23.7556 22.0131C23.5947 22.4035 23.3583 22.7584 23.0601 23.0573C22.7618 23.3563 22.4074 23.5934 22.0173 23.7552C21.6272 23.9169 21.2091 24.0001 20.7868 24ZM20.6868 22C20.8541 22.0143 21.0225 21.9936 21.1814 21.9393C21.3403 21.885 21.4862 21.7983 21.6097 21.6846C21.7333 21.5709 21.8319 21.4327 21.8992 21.2789C21.9665 21.1251 22.0011 20.9589 22.0008 20.791V17.471C22.0008 17.463 22.0008 17.4547 22.0008 17.446C22.0076 17.1502 21.9058 16.8621 21.7145 16.6363C21.5232 16.4105 21.2557 16.2628 20.9628 16.221C19.8279 16.0712 18.7136 15.7942 17.6408 15.395C17.4237 15.313 17.1878 15.2949 16.9608 15.3427C16.7338 15.3906 16.5252 15.5024 16.3598 15.665L14.9598 17.065C14.805 17.2195 14.6038 17.319 14.3871 17.3483C14.1703 17.3775 13.95 17.3349 13.7598 17.227C10.8352 15.567 8.41276 13.1487 6.74777 10.227C6.63983 10.0368 6.59723 9.81643 6.62649 9.59969C6.65575 9.38295 6.75526 9.18178 6.90977 9.027L8.30977 7.627C8.4712 7.46289 8.58237 7.25607 8.63021 7.03089C8.67804 6.80572 8.66054 6.57156 8.57977 6.356C8.17932 5.28476 7.90122 4.1717 7.75077 3.038C7.70812 2.7498 7.56342 2.4865 7.34301 2.29599C7.12259 2.10549 6.8411 2.00046 6.54977 2H3.20877C3.04143 1.99998 2.8759 2.03467 2.72265 2.10188C2.5694 2.16909 2.43176 2.26735 2.31842 2.39047C2.20508 2.51358 2.11851 2.65886 2.06418 2.81714C2.00985 2.97541 1.98894 3.14323 2.00277 3.31C2.35409 6.56277 3.46347 9.6878 5.24177 12.434V12.441C6.86568 14.9826 9.02582 17.1383 11.5708 18.757H11.5788C14.3216 20.5309 17.44 21.6413 20.6868 22Z"
          fill="currentColor"
        />
      </symbol>

      <symbol id="icon-mail" viewBox="0 0 24 18">
        <path
          d="M3.2 18.0017C2.38106 18.0287 1.58472 17.7304 0.985082 17.172C0.385441 16.6136 0.0312723 15.8405 0 15.0217L0 2.98069C0.0315299 2.16208 0.385811 1.38922 0.985424 0.831021C1.58504 0.272819 2.38122 -0.0253433 3.2 0.00169018H20.8C21.6188 -0.0253433 22.415 0.272819 23.0146 0.831021C23.6142 1.38922 23.9685 2.16208 24 2.98069V15.0217C23.9687 15.8405 23.6146 16.6136 23.0149 17.172C22.4153 17.7304 21.6189 18.0287 20.8 18.0017H3.2ZM2 15.0217C2.02748 15.3158 2.16784 15.5878 2.39159 15.7806C2.61534 15.9734 2.90509 16.072 3.2 16.0557H20.8C21.0949 16.072 21.3847 15.9734 21.6084 15.7806C21.8322 15.5878 21.9725 15.3158 22 15.0217V6.83069L12.606 13.7967C12.4303 13.9257 12.218 13.9953 12 13.9953C11.782 13.9953 11.5697 13.9257 11.394 13.7967L2 6.83069V15.0217ZM12 11.8017L22 4.38369V2.98369C21.9723 2.68979 21.8318 2.41805 21.6081 2.22546C21.3844 2.03287 21.0948 1.93439 20.8 1.95069H3.2C2.90572 1.93434 2.61652 2.03241 2.39287 2.22437C2.16922 2.41634 2.02845 2.68733 2 2.98069V4.38069L12 11.8017Z"
          fill="currentColor"
        />
      </symbol>

      <symbol id="icon-clock" viewBox="0 0 27 27">
        <path
          d="M3.89403 22.9855C1.38872 20.4484 -0.0111338 17.0232 6.66984e-05 13.4576C0.0112672 9.892 1.43261 6.47564 3.95381 3.95431C6.47501 1.43298 9.8913 0.0114562 13.4569 6.89412e-05C17.0225 -0.0113183 20.4478 1.38835 22.985 3.89353C25.4903 6.43065 26.8902 9.85588 26.879 13.4215C26.8678 16.9871 25.4464 20.4034 22.9252 22.9248C20.404 25.4461 16.9878 26.8676 13.4222 26.879C9.85658 26.8904 6.43128 25.4907 3.89403 22.9855ZM5.30803 5.30853C4.22702 6.37346 3.36747 7.64181 2.7789 9.04046C2.19034 10.4391 1.8844 11.9404 1.87872 13.4579C1.87303 14.9753 2.16772 16.4789 2.7458 17.8819C3.32388 19.2849 4.17391 20.5597 5.24691 21.6326C6.3199 22.7056 7.59465 23.5557 8.99767 24.1338C10.4007 24.7118 11.9043 25.0065 13.4217 25.0008C14.9391 24.9952 16.4404 24.6892 17.8391 24.1007C19.2377 23.5121 20.5061 22.6525 21.571 21.5715C22.652 20.5066 23.5116 19.2383 24.1001 17.8396C24.6887 16.4409 24.9947 14.9396 25.0003 13.4222C25.006 11.9048 24.7113 10.4012 24.1333 8.99818C23.5552 7.59515 22.7051 6.32041 21.6321 5.24741C20.5591 4.17441 19.2844 3.32438 17.8814 2.7463C16.4784 2.16823 14.9748 1.87354 13.4574 1.87922C11.9399 1.8849 10.4386 2.19084 9.03996 2.77941C7.6413 3.36797 6.37296 4.22753 5.30803 5.30853ZM17.617 16.7505L12.992 14.4395C12.825 14.3561 12.6847 14.2276 12.587 14.0685C12.4893 13.9094 12.438 13.7262 12.439 13.5395V6.60653C12.439 6.34131 12.5444 6.08696 12.7319 5.89942C12.9195 5.71189 13.1738 5.60653 13.439 5.60653C13.7042 5.60653 13.9586 5.71189 14.1461 5.89942C14.3337 6.08696 14.439 6.34131 14.439 6.60653V12.9255L18.512 14.9625C18.6325 15.0195 18.7403 15.0999 18.8292 15.1991C18.9182 15.2983 18.9864 15.4142 19.0299 15.5401C19.0734 15.6661 19.0913 15.7994 19.0825 15.9323C19.0738 16.0653 19.0385 16.1951 18.9789 16.3142C18.9193 16.4334 18.8364 16.5394 18.7353 16.626C18.6341 16.7127 18.5166 16.7783 18.3898 16.8189C18.2629 16.8596 18.1292 16.8745 17.9965 16.8627C17.8638 16.851 17.7348 16.8128 17.617 16.7505Z"
          fill="currentColor"
        />
      </symbol>

      <symbol id="icon-address" viewBox="0 0 20 24">
        <path
          d="M9.445 23.831C7.75586 22.653 6.19081 21.3065 4.774 19.812C3.5093 18.5074 2.41828 17.045 1.528 15.461C0.567745 13.798 0.0422185 11.9198 0 10C0 7.34784 1.05357 4.8043 2.92893 2.92893C4.8043 1.05357 7.34784 0 10 0C12.6522 0 15.1957 1.05357 17.0711 2.92893C18.9464 4.8043 20 7.34784 20 10C19.9582 11.9205 19.4327 13.7995 18.472 15.463C17.5818 17.047 16.4907 18.5094 15.226 19.814C13.8091 21.3084 12.2441 22.655 10.555 23.833C10.3907 23.9426 10.1975 24.0012 10 24.0012C9.80245 24.0012 9.60933 23.9426 9.445 23.833V23.831ZM2 10C2 15.414 8.1 20.364 10 21.771C11.9 20.365 18 15.415 18 10C18 7.87827 17.1571 5.84344 15.6569 4.34315C14.1566 2.84285 12.1217 2 10 2C7.87827 2 5.84344 2.84285 4.34315 4.34315C2.84285 5.84344 2 7.87827 2 10ZM6 10C6 9.20887 6.2346 8.43552 6.67412 7.77772C7.11365 7.11992 7.73836 6.60723 8.46927 6.30448C9.20017 6.00173 10.0044 5.92252 10.7804 6.07686C11.5563 6.2312 12.269 6.61216 12.8284 7.17157C13.3878 7.73098 13.7688 8.44372 13.9231 9.21964C14.0775 9.99556 13.9983 10.7998 13.6955 11.5307C13.3928 12.2616 12.8801 12.8864 12.2223 13.3259C11.5645 13.7654 10.7911 14 10 14C8.9397 13.9981 7.92336 13.5761 7.17362 12.8264C6.42387 12.0766 6.00185 11.0603 6 10ZM8 10C8 10.3956 8.1173 10.7822 8.33706 11.1111C8.55682 11.44 8.86918 11.6964 9.23463 11.8478C9.60009 11.9991 10.0022 12.0387 10.3902 11.9616C10.7781 11.8844 11.1345 11.6939 11.4142 11.4142C11.6939 11.1345 11.8844 10.7781 11.9616 10.3902C12.0387 10.0022 11.9991 9.60009 11.8478 9.23463C11.6964 8.86918 11.44 8.55682 11.1111 8.33706C10.7822 8.1173 10.3956 8 10 8C9.46957 8 8.96086 8.21071 8.58579 8.58579C8.21071 8.96086 8 9.46957 8 10Z"
          fill="currentColor"
        />
      </symbol>

      <symbol id="icon-facebook" viewBox="0 0 20 20">
        <path
          d="M16.4173 0H3.484C2.56133 0.0131837 1.68039 0.386664 1.02939 1.04065C0.378396 1.69464 0.00895596 2.57728 0 3.5L0 16.6C0.0298877 17.5065 0.408936 18.3664 1.05794 19C1.70695 19.6336 2.5757 19.9919 3.48267 20H10.448V12.9H8.45733V9.9H10.448V8C10.4457 7.5147 10.5394 7.03374 10.7236 6.58476C10.9078 6.13579 11.1789 5.72764 11.5214 5.3838C11.8639 5.03996 12.271 4.7672 12.7192 4.58121C13.1674 4.39521 13.648 4.29964 14.1333 4.3H16.5213V7.3H14.1333C13.9257 7.31376 13.7301 7.40247 13.583 7.54962C13.4358 7.69677 13.3471 7.89235 13.3333 8.1V10H15.92V13H13.4333V20H16.5173C17.4398 19.9865 18.3204 19.6128 18.9711 18.9589C19.6218 18.3049 19.9911 17.4225 20 16.5V3.5C19.9521 2.57308 19.5568 1.6982 18.8929 1.04959C18.229 0.40099 17.3451 0.0262495 16.4173 0Z"
          fill="currentColor"
        />
      </symbol>

      <symbol id="icon-twitter" viewBox="0 0 25 20">
        <path
          d="M25 2.40008C24.0651 2.81761 23.071 3.08746 22.0533 3.2C23.1072 2.56172 23.8994 1.56927 24.2883 0.400289C23.284 0.989603 22.1831 1.39587 21.0367 1.60017C20.3389 0.863533 19.4382 0.35065 18.4485 0.126541C17.4589 -0.0975676 16.4251 -0.0228075 15.478 0.341343C14.5309 0.705493 13.7133 1.34263 13.1289 2.17198C12.5444 3.00133 12.2194 3.98554 12.195 4.99981C12.1783 5.40246 12.2125 5.8056 12.2967 6.19969C10.2612 6.11018 8.26765 5.59184 6.44643 4.6786C4.62522 3.76536 3.01743 2.47781 1.72833 0.900238C1.28008 1.69477 1.03559 2.58793 1.01667 3.49997C1.01487 4.32981 1.21792 5.14726 1.60779 5.87983C1.99766 6.6124 2.56231 7.23745 3.25167 7.69954C2.467 7.61971 1.70668 7.3816 1.01667 6.99961V7.0996C1.02909 8.28527 1.45049 9.43031 2.20966 10.3412C2.96883 11.2521 4.01922 11.8731 5.18333 12.0991C4.75154 12.2145 4.30827 12.2815 3.86167 12.2991C3.51985 12.3108 3.17798 12.2772 2.845 12.1991C3.16752 13.2133 3.80398 14.0988 4.66253 14.7278C5.52108 15.3568 6.55731 15.6968 7.62167 15.6987C5.80397 17.1457 3.54329 17.9225 1.22 17.8985C0.810778 17.915 0.401074 17.8814 0 17.7985C2.35502 19.2475 5.06821 20.0094 7.83333 19.9983C9.74355 20.0279 11.6406 19.6774 13.4141 18.9672C15.1876 18.257 16.8022 17.2012 18.1639 15.8614C19.5256 14.5215 20.6072 12.9243 21.3459 11.1626C22.0846 9.40097 22.4656 7.51 22.4667 5.59975V4.89983C23.4766 4.25279 24.3396 3.40123 25 2.40008Z"
          fill="currentColor"
        />
      </symbol>

      <symbol id="icon-instagram" viewBox="0 0 20 20">
        <path
          d="M5.556 20C4.08289 19.9986 2.67052 19.4128 1.62887 18.3711C0.587228 17.3295 0.00141204 15.9171 0 14.444L0 5.556C0.00176429 4.083 0.587693 2.67083 1.62926 1.62926C2.67083 0.587693 4.083 0.00176429 5.556 0L14.444 0C15.917 0.00176429 17.3292 0.587693 18.3707 1.62926C19.4123 2.67083 19.9982 4.083 20 5.556V14.4453C19.9982 15.9182 19.4123 17.3302 18.3707 18.3716C17.329 19.413 15.9169 19.9986 14.444 20H5.556ZM4.444 10C4.44374 11.0989 4.76937 12.1733 5.37971 13.0871C5.99005 14.001 6.85768 14.7133 7.87289 15.134C8.88809 15.5548 10.0053 15.665 11.0831 15.4507C12.161 15.2365 13.1511 14.7075 13.9282 13.9305C14.7054 13.1535 15.2347 12.1635 15.4491 11.0857C15.6636 10.008 15.5537 8.89076 15.1332 7.87545C14.7127 6.86015 14.0006 5.99234 13.0869 5.38178C12.1732 4.77122 11.0989 4.44533 10 4.44533C8.52723 4.4471 7.11527 5.03284 6.07373 6.07412C5.0322 7.11541 4.44612 8.52723 4.444 10ZM15.556 3.33333C15.5563 3.55289 15.6216 3.76744 15.7437 3.94988C15.8659 4.13233 16.0394 4.27448 16.2422 4.35838C16.4451 4.44228 16.6684 4.46416 16.8837 4.42126C17.099 4.37836 17.2968 4.27261 17.452 4.11736C17.6073 3.96211 17.713 3.76433 17.7559 3.54901C17.7988 3.33368 17.7769 3.11048 17.693 2.90758C17.6091 2.70469 17.467 2.53121 17.2846 2.40907C17.1021 2.28693 16.8876 2.2216 16.668 2.22133C16.3731 2.22133 16.0902 2.33849 15.8817 2.54703C15.6732 2.75557 15.556 3.03841 15.556 3.33333ZM6.66667 10C6.66667 9.34073 6.86216 8.69626 7.22844 8.1481C7.59471 7.59994 8.1153 7.17269 8.72439 6.9204C9.33348 6.66811 10.0037 6.6021 10.6503 6.73072C11.2969 6.85933 11.8908 7.1768 12.357 7.64298C12.8232 8.10915 13.1407 8.7031 13.2693 9.3497C13.3979 9.9963 13.3319 10.6665 13.0796 11.2756C12.8273 11.8847 12.4001 12.4053 11.8519 12.7716C11.3037 13.1378 10.6593 13.3333 10 13.3333C9.11594 13.3333 8.2681 12.9821 7.64298 12.357C7.01786 11.7319 6.66667 10.8841 6.66667 10Z"
          fill="currentColor"
        />
      </symbol>

      <symbol id="icon-user" viewBox="0 0 30 33">
        <path
          d="M26.666 31.3505V28.0495C26.666 26.7366 26.1393 25.4778 25.2017 24.5494C24.264 23.621 22.9921 23.099 21.666 23.099H8.33398C7.0079 23.099 5.73602 23.621 4.79834 24.5494C3.86066 25.4778 3.33398 26.7366 3.33398 28.0495V31.3505C3.33398 31.788 3.15863 32.2072 2.84619 32.5166C2.53376 32.8259 2.10982 33 1.66797 33C1.44902 33.0003 1.23214 32.958 1.02979 32.8753C0.827426 32.7925 0.643684 32.6707 0.48877 32.5175C0.333855 32.3643 0.210802 32.1821 0.126953 31.9819C0.0431038 31.7816 -1.57771e-07 31.5673 0 31.3505V28.0495C0.00264741 25.8621 0.881436 23.7648 2.44385 22.2182C4.00626 20.6716 6.12467 19.8021 8.33398 19.8H21.666C23.8753 19.8021 25.9937 20.6716 27.5562 22.2182C29.1186 23.7648 29.9974 25.8621 30 28.0495V31.3505C30 31.5673 29.9569 31.7816 29.873 31.9819C29.7892 32.1821 29.6661 32.3643 29.5112 32.5175C29.3563 32.6707 29.1726 32.7925 28.9702 32.8753C28.7679 32.958 28.551 33.0003 28.332 33C27.8902 33 27.4662 32.8259 27.1538 32.5166C26.8414 32.2072 26.666 31.788 26.666 31.3505ZM6.66602 8.24952C6.66866 6.06174 7.548 3.96482 9.11084 2.4182C10.6737 0.871571 12.7923 0.001572 15.002 0C17.2113 0.0026212 19.3291 0.87319 20.8911 2.42013C22.4531 3.96707 23.3319 6.06401 23.334 8.25145C23.3319 10.4387 22.4532 12.5361 20.8911 14.0828C19.329 15.6294 17.2111 16.4989 15.002 16.501C12.7928 16.4989 10.6749 15.6294 9.11279 14.0828C7.5507 12.5361 6.67204 10.4387 6.66992 8.25145L6.66602 8.24952ZM9.99805 8.24952C9.99805 9.56247 10.5247 10.8213 11.4624 11.7497C12.4001 12.6781 13.672 13.2 14.998 13.2C16.3241 13.2 17.596 12.6781 18.5337 11.7497C19.4714 10.8213 19.998 9.56247 19.998 8.24952C19.998 6.93657 19.4714 5.67777 18.5337 4.74937C17.596 3.82097 16.3241 3.29903 14.998 3.29903C13.6723 3.30008 12.4012 3.82259 11.4644 4.7513C10.5275 5.68001 10.0014 6.93884 10.002 8.25145L9.99805 8.24952Z"
          fill="currentColor"
        />
      </symbol>

      <symbol id="icon-cart" viewBox="0 0 34 33">
        <path
          d="M25.4741 30.1318C25.4737 29.5641 25.6397 29.009 25.9512 28.5367C26.2627 28.0644 26.7057 27.6963 27.224 27.4787C27.7424 27.2612 28.3129 27.204 28.8634 27.3145C29.4138 27.4251 29.9195 27.6983 30.3165 28.0996C30.7135 28.5009 30.9839 29.0123 31.0935 29.5691C31.2031 30.1259 31.1471 30.7031 30.9324 31.2277C30.7177 31.7523 30.3541 32.2007 29.8875 32.5162C29.4209 32.8316 28.8723 33 28.3111 33C27.5595 32.9984 26.8391 32.6958 26.3075 32.1583C25.7758 31.6208 25.4762 30.8922 25.4741 30.1318ZM9.87737 30.1318C9.87737 29.5646 10.0436 29.0101 10.3552 28.5384C10.6667 28.0667 11.1095 27.6991 11.6275 27.482C12.1455 27.2649 12.7156 27.2081 13.2655 27.3188C13.8154 27.4295 14.3206 27.7026 14.7171 28.1038C15.1136 28.5049 15.3836 29.0159 15.493 29.5723C15.6024 30.1287 15.5462 30.7054 15.3316 31.2294C15.1171 31.7535 14.7537 32.2015 14.2875 32.5166C13.8212 32.8318 13.2731 33 12.7124 33C11.9605 32.9995 11.2395 32.6972 10.7076 32.1595C10.1757 31.6218 9.87843 30.8926 9.87737 30.1318ZM9.44891 20.9278L7.07837 8.95086C7.07837 8.91238 7.06236 8.87187 7.05635 8.83135L5.87508 2.86616H1.36425C0.997786 2.85222 0.65092 2.69514 0.396523 2.42791C0.142127 2.16068 0 1.80411 0 1.4331C0 1.06209 0.142127 0.705516 0.396523 0.438288C0.65092 0.17106 0.997786 0.0139761 1.36425 3.51175e-05H7.03633C7.36585 -0.00229538 7.68592 0.111433 7.94163 0.321718C8.19734 0.532003 8.37277 0.825742 8.43783 1.15256L9.6291 7.17244H32.5737C32.7831 7.17143 32.9901 7.21729 33.1799 7.30673C33.3697 7.39618 33.5376 7.52699 33.6715 7.68981C33.8055 7.85262 33.9022 8.04339 33.9547 8.24845C34.0072 8.45352 34.0142 8.66779 33.9752 8.87592L31.7047 20.9137C31.7056 20.9177 31.7056 20.9218 31.7047 20.9258C31.514 21.9026 30.9939 22.7821 30.2332 23.4139C29.4725 24.0457 28.5185 24.3905 27.5343 24.3895H13.6174C12.6337 24.3898 11.6803 24.045 10.9198 23.4137C10.1593 22.7825 9.64074 21.9039 9.44891 20.9278ZM12.2319 20.3668C12.2962 20.6975 12.4735 20.9947 12.7326 21.2066C12.9918 21.4184 13.3163 21.5312 13.6494 21.5254H27.5163C27.8438 21.5253 28.1612 21.4104 28.4146 21.2003C28.6679 20.9902 28.8414 20.6978 28.9057 20.3728L30.8518 10.0426H10.1877L12.2319 20.3668Z"
          fill="currentColor"
        />
      </symbol>

       <symbol id="icon-superior-accuracy" viewBox="0 0 51 51">
        <path d="M24.409 51V31.5928H26.546C26.546 31.6518 26.554 31.711 26.554 31.772C26.554 38.1193 26.554 44.4669 26.554 50.8149C26.554 50.8769 26.547 50.938 26.544 51H24.409ZM10.967 42.1108C6.89701 38.5758 4.2328 33.696 3.46 28.3608H5.628C5.751 28.9298 5.858 29.4938 5.997 30.0518C6.77223 33.2095 8.30198 36.1322 10.455 38.5688C13.0583 41.5689 16.4866 43.7373 20.313 44.8032C21.028 45.0032 21.766 45.1332 22.491 45.3032C22.537 45.3152 22.609 45.3668 22.609 45.4028C22.617 46.0928 22.609 46.7819 22.609 47.5029C18.284 46.8839 14.2359 45.0096 10.967 42.1108ZM28.36 45.3271C32.6121 44.6484 36.5377 42.6335 39.568 39.5742C42.6262 36.5384 44.6399 32.6085 45.318 28.353H47.478C46.7775 33.1762 44.5382 37.6441 41.0934 41.0918C37.6486 44.5395 33.1825 46.7823 28.36 47.4868V45.3271ZM28.604 34.5962C28.604 34.5452 28.688 34.4732 28.747 34.4502C29.4924 34.1689 30.2001 33.796 30.854 33.3408C32.492 32.2156 33.7423 30.612 34.434 28.749C34.4439 28.702 34.4713 28.6605 34.5107 28.6328C34.55 28.6052 34.5984 28.5935 34.646 28.6001C35.291 28.6071 35.937 28.6001 36.581 28.6001H36.735C36.1859 30.5398 35.1495 32.3065 33.7245 33.7324C32.2995 35.1583 30.5333 36.1958 28.594 36.7461C28.597 36.0191 28.594 35.3081 28.604 34.6001V34.5962ZM14.224 28.6011H15.206C15.585 28.6011 15.964 28.6011 16.343 28.6011C16.3812 28.5954 16.4201 28.6046 16.4518 28.6265C16.4836 28.6484 16.5058 28.6815 16.514 28.7192C16.954 29.9131 17.6253 31.0079 18.4893 31.9419C19.3533 32.8759 20.393 33.6306 21.549 34.1621C21.777 34.2721 22.02 34.3521 22.249 34.4561C22.298 34.4791 22.364 34.5429 22.364 34.5889C22.371 35.2959 22.364 36.0039 22.364 36.7109C22.364 36.7209 22.354 36.7312 22.349 36.7412C20.4129 36.1896 18.6501 35.1519 17.228 33.7271C15.8059 32.3022 14.7718 30.5382 14.224 28.6011ZM25.486 28.7241C24.6281 28.7212 23.8063 28.3789 23.1999 27.772C22.5936 27.1651 22.2521 26.3427 22.25 25.4849C22.254 24.6273 22.597 23.8062 23.2042 23.2007C23.8114 22.5952 24.6335 22.2545 25.491 22.2529C25.9132 22.2551 26.3308 22.3414 26.7195 22.5063C27.1081 22.6713 27.4601 22.9117 27.755 23.2139C28.0499 23.5161 28.2817 23.874 28.4371 24.2666C28.5924 24.6592 28.6682 25.0788 28.66 25.501C28.6651 25.9213 28.587 26.3385 28.4302 26.7285C28.2733 27.1185 28.0407 27.4737 27.746 27.7734C27.4512 28.0731 27.1 28.3113 26.7126 28.4746C26.3252 28.6379 25.9094 28.7233 25.489 28.7251L25.486 28.7241ZM31.822 26.564H31.592V24.4141H50.999V26.5532C50.92 26.5532 50.842 26.5649 50.763 26.5649L31.822 26.564ZM0 26.5562V24.4268H19.366V26.5562H0ZM45.292 22.4658C44.7842 19.4115 43.5808 16.5151 41.775 14C40.1113 11.6593 37.9719 9.6967 35.497 8.24023C33.4747 7.0398 31.2574 6.20356 28.946 5.77002L28.369 5.66211V3.48682C32.469 4.06626 36.3253 5.78103 39.502 8.43701C43.8484 11.9985 46.7061 17.0564 47.514 22.6172C47.434 22.6172 47.38 22.625 47.324 22.625C46.714 22.625 46.102 22.625 45.492 22.625H45.483C45.36 22.628 45.314 22.5938 45.292 22.4658ZM5.52 22.627C4.864 22.627 4.208 22.627 3.552 22.627C3.5226 22.6231 3.49353 22.617 3.465 22.6089C4.19141 17.6312 6.56265 13.0398 10.201 9.56592C13.5902 6.28732 17.9314 4.16777 22.601 3.51123V5.66113C22.301 5.71813 22.001 5.77589 21.701 5.83789C19.0988 6.36879 16.6278 7.4105 14.431 8.90283C11.365 10.9594 8.91408 13.809 7.339 17.1479C6.53224 18.842 5.96836 20.6416 5.664 22.4932C5.648 22.5882 5.622 22.6309 5.524 22.6309L5.52 22.627ZM16.31 22.3809C15.665 22.3749 15.019 22.3809 14.375 22.3809H14.224C14.7753 20.4411 15.8132 18.6744 17.2393 17.2485C18.6653 15.8227 20.4321 14.785 22.372 14.2339V14.4209C22.372 15.0489 22.372 15.6772 22.372 16.3062C22.3805 16.3599 22.3683 16.4149 22.3378 16.46C22.3074 16.5051 22.261 16.5366 22.208 16.5488C20.9078 17.0319 19.727 17.7898 18.7461 18.7705C17.7652 19.7512 17.0073 20.9318 16.524 22.2319C16.5132 22.2785 16.486 22.3194 16.4475 22.3477C16.409 22.3759 16.3616 22.3899 16.314 22.3862L16.31 22.3809ZM34.448 22.248C33.963 20.9306 33.196 19.7352 32.2008 18.7451C31.2055 17.755 30.0059 16.9942 28.686 16.5161C28.66 16.5061 28.634 16.491 28.604 16.478V14.2412C30.5429 14.7894 32.309 15.8248 33.7343 17.249C35.1595 18.6732 36.1964 20.4385 36.746 22.377H36.038C35.574 22.377 35.11 22.377 34.646 22.377H34.638C34.5958 22.3825 34.553 22.3724 34.5176 22.3486C34.4823 22.3249 34.4568 22.2892 34.446 22.248H34.448ZM24.419 19.3828V0H26.546V19.3818L24.419 19.3828Z" />
      </symbol>

      <symbol id="icon-awards" viewBox="0 0 52 43">
        <path d="M38.716 42.7051C38.2047 42.4881 37.7503 42.1559 37.388 41.7349C37.2785 41.586 37.1249 41.4755 36.949 41.4189C36.7731 41.3624 36.5838 41.3627 36.408 41.4199C35.898 41.5679 35.392 41.7291 34.882 41.8701C34.372 42.0111 34.3731 42.0027 34.0961 41.4287L34.7561 41.2188C35.2561 41.0547 35.7561 40.8547 36.272 40.7397C36.83 40.6137 36.909 40.2557 36.948 39.7817C36.972 38.9963 37.0793 38.216 37.2681 37.4531C37.4723 36.8116 37.8035 36.2175 38.2419 35.7065C38.6803 35.1956 39.217 34.7783 39.8201 34.479C39.9671 34.419 40.1177 34.3679 40.271 34.3267C39.897 36.1267 39.913 37.9099 38.917 39.5049C39.672 38.9049 40.4631 38.3488 41.16 37.6938C41.2472 37.5481 41.3014 37.3848 41.3187 37.2158C41.336 37.0468 41.3159 36.8762 41.2601 36.7158C40.9114 35.6705 40.8357 34.5535 41.0401 33.4707C41.2445 32.3879 41.7223 31.3751 42.4281 30.5288C42.585 30.3587 42.752 30.1981 42.9281 30.0479C43.0711 31.9479 43.547 33.6719 43.128 35.4409L43.246 35.5039C43.7136 34.838 44.1442 34.1471 44.5361 33.4341C44.5659 33.2716 44.5624 33.1044 44.5258 32.9434C44.4892 32.7823 44.4202 32.6307 44.323 32.4971C43.7337 31.5471 43.3888 30.4658 43.319 29.3501C43.2492 28.2344 43.4567 27.119 43.923 26.103C43.9874 25.9399 44.0879 25.7934 44.2171 25.6748C44.9331 27.3688 45.827 28.9879 45.8241 30.9229C46.0441 30.2879 46.215 29.6299 46.495 29.0229C46.7206 28.5987 46.7779 28.1052 46.6553 27.6406C46.5328 27.1761 46.2395 26.7748 45.8341 26.5171C44.8126 25.5295 44.2143 24.1836 44.1651 22.7637C44.1236 22.031 44.1193 21.297 44.1521 20.564L44.413 20.4971C45.488 21.9211 46.77 23.2151 47.365 24.9971C47.408 24.0971 47.4651 23.2017 47.4851 22.3037C47.4837 22.1064 47.4218 21.9144 47.3077 21.7534C47.1936 21.5924 47.0328 21.4704 46.8471 21.4038C44.5201 20.2948 43.803 18.2638 43.589 15.9458C43.6028 15.8244 43.6292 15.7048 43.668 15.5889C44.963 16.6979 46.436 17.494 47.188 19.04L47.331 18.9917C47.146 18.0517 46.9861 17.1048 46.7521 16.1758C46.6917 16.0669 46.6068 15.9736 46.504 15.9033C46.4012 15.833 46.2834 15.7878 46.16 15.771C44.104 15.59 43.0421 14.2561 42.2481 12.5991C42.0662 12.229 41.9243 11.8402 41.8251 11.4399C43.3008 11.8287 44.6956 12.4772 45.944 13.355C45.6403 12.5774 45.293 11.8177 44.904 11.0791C44.787 10.8791 44.262 10.7919 43.952 10.8379C43.34 10.9307 42.7147 10.878 42.1268 10.6841C41.5388 10.4902 41.0048 10.1603 40.568 9.72168C40.1009 9.26216 39.7018 8.73853 39.383 8.16602C39.583 8.16602 39.7831 8.16602 39.9891 8.16602C41.2505 8.0596 42.5186 8.26978 43.6781 8.77783C43.2975 8.19258 42.8828 7.63019 42.4361 7.09375C42.3011 6.94775 41.8301 6.9678 41.5841 7.0708C40.7508 7.37507 39.841 7.39935 38.9927 7.13965C38.1445 6.87995 37.4041 6.35047 36.884 5.63184C36.8593 5.58854 36.8405 5.54194 36.828 5.49365C37.333 5.04565 39.564 4.8941 40.7421 5.2251C40.5627 4.90796 40.3169 4.63343 40.0213 4.42041C39.7258 4.20739 39.3876 4.06055 39.03 3.99072C38.3321 3.86448 37.6756 3.56955 37.1178 3.13135C36.56 2.69315 36.1179 2.12532 35.8301 1.47705C35.6372 1.05884 35.4669 0.630354 35.3201 0.193848C35.4141 0.139848 35.448 0.101887 35.469 0.108887C36.7783 0.367867 38.0033 0.946427 39.035 1.79297C39.2855 2.0095 39.4884 2.27546 39.6311 2.57422C39.7738 2.87298 39.8531 3.19792 39.8641 3.52881C39.8715 3.67534 39.9323 3.81423 40.035 3.91895C40.635 4.49895 41.246 5.06165 41.845 5.61865C41.0298 3.98481 40.7915 2.1234 41.1691 0.336914L41.331 0.251953C41.695 0.660953 42.089 1.05198 42.422 1.47998C43.2986 2.5449 43.7942 3.87217 43.8301 5.25098C43.8233 5.70221 43.7113 6.14555 43.503 6.5459C43.3771 6.75386 43.3174 6.99511 43.3317 7.23779C43.346 7.48047 43.4336 7.71303 43.5831 7.90479C44.0061 8.51478 44.4071 9.13874 44.8631 9.76074C44.422 7.98432 44.6722 6.10675 45.563 4.50781C45.673 4.60781 45.7701 4.652 45.8161 4.729C46.7587 6.34049 47.1714 8.20724 46.996 10.0659C46.9064 10.5611 46.6954 11.0263 46.382 11.4199C46.2653 11.563 46.1848 11.7322 46.1473 11.9131C46.1099 12.094 46.1166 12.2813 46.167 12.459C46.398 13.194 46.6951 13.9097 46.9971 14.6367C46.9154 13.7001 47.0391 12.7573 47.3597 11.8735C47.6803 10.9897 48.1899 10.1865 48.853 9.52002C49.0157 9.94023 49.1357 10.3756 49.211 10.8198C49.3024 12.0225 49.3275 13.2296 49.2861 14.4351C49.2526 14.8595 49.1343 15.273 48.9382 15.6509C48.742 16.0288 48.472 16.3632 48.1441 16.6348C47.9547 16.8037 47.8145 17.0207 47.7382 17.2627C47.662 17.5047 47.6526 17.7628 47.711 18.0098C47.811 18.7098 47.8641 19.4101 47.9671 20.1421C48.1365 19.199 48.4969 18.3004 49.026 17.5015C49.5551 16.7026 50.2418 16.0202 51.0441 15.4961C51.1013 15.6993 51.1431 15.9062 51.1691 16.1157C51.243 17.7738 50.8839 19.4228 50.1271 20.8999C49.983 21.2285 49.7703 21.5225 49.5033 21.7622C49.2363 22.0019 48.9212 22.182 48.5791 22.29C48.1441 22.416 48.101 22.7898 48.069 23.1338C47.979 24.0708 47.9201 25.0109 47.8511 25.9399C48.1371 25.5199 48.417 25.0616 48.744 24.6396C49.4545 23.7144 50.413 23.01 51.508 22.6079C51.6715 22.5664 51.8394 22.5443 52.008 22.542V23.1479C51.54 24.2029 51.1151 25.2787 50.5871 26.3047C50.3314 26.786 49.9696 27.2031 49.529 27.5239C49.0886 27.8314 48.585 28.0365 48.055 28.124C47.896 28.1286 47.7414 28.1777 47.6091 28.2661C47.4767 28.3546 47.3721 28.4788 47.3071 28.624C46.8701 29.73 46.4701 30.8478 46.0011 32.1108C46.5949 31.4046 47.3456 30.847 48.1932 30.4824C49.0408 30.1178 49.9619 29.9562 50.883 30.0107C50.767 30.4485 50.5931 30.8689 50.366 31.2607C49.7397 32.0989 49.0367 32.8772 48.266 33.585C47.8868 33.9131 47.4287 34.137 46.9368 34.2349C46.4449 34.3327 45.936 34.3012 45.46 34.1431C45.3087 34.1375 45.158 34.1664 45.0194 34.2275C44.8808 34.2887 44.758 34.3805 44.66 34.4961C44.087 35.2061 43.5831 35.9707 43.0061 36.7837C43.8285 36.3519 44.7427 36.124 45.6716 36.1191C46.6006 36.1143 47.5171 36.3327 48.344 36.7559C48.094 37.0769 47.8192 37.3777 47.522 37.6558C46.4158 38.6503 44.9796 39.1985 43.4921 39.1938C42.9677 39.0867 42.4576 38.9189 41.9721 38.6938C41.7191 38.6188 41.3601 38.494 41.1921 38.606C40.4551 39.084 39.7711 39.6377 38.9981 40.2188C39.904 40.0794 40.8299 40.1512 41.7035 40.4287C42.5771 40.7063 43.3747 41.1822 44.034 41.8188C43.8314 42.0105 43.6091 42.1803 43.371 42.3257C42.4789 42.7542 41.5047 42.9854 40.5151 43.0029C39.903 43.0047 39.2949 42.9041 38.716 42.7051ZM8.69304 42.3599C8.44556 42.2193 8.21129 42.0568 7.99306 41.874C8.62701 41.2238 9.40289 40.729 10.2599 40.4287C11.117 40.1284 12.0319 40.0307 12.9331 40.1431C12.6261 39.9361 12.313 39.743 12.016 39.521C11.6663 39.222 11.299 38.9442 10.9161 38.689C10.7041 38.568 10.284 38.4958 10.141 38.6138C9.76219 38.9137 9.31522 39.1158 8.83971 39.2017C8.3642 39.2875 7.87485 39.2545 7.41506 39.106C6.02711 38.8431 4.77381 38.1057 3.87004 37.02C3.81194 36.9297 3.75886 36.8359 3.71105 36.7397C4.52687 36.3196 5.43251 36.1042 6.35011 36.1113C7.26772 36.1185 8.16987 36.348 8.97905 36.7808C8.38705 35.9518 7.84806 35.1589 7.26406 34.3999C7.16711 34.2594 7.02356 34.1576 6.85884 34.1128C6.69412 34.068 6.51886 34.0828 6.36406 34.1548C6.00333 34.2743 5.62044 34.3117 5.24343 34.2642C4.86641 34.2166 4.50478 34.0852 4.18505 33.8799C2.9088 33.1476 1.90641 32.0189 1.33006 30.665C1.25562 30.4514 1.19744 30.2322 1.15605 30.0098C2.06728 29.959 2.97778 30.1212 3.81545 30.4834C4.65311 30.8456 5.39491 31.398 5.98204 32.0967C5.52104 30.8507 5.12906 29.7468 4.70006 28.6558C4.65197 28.4906 4.54669 28.3481 4.40306 28.2534C4.25944 28.1587 4.08684 28.1178 3.91606 28.1387C3.63213 28.1478 3.34956 28.0958 3.0876 27.9858C2.82565 27.8759 2.59046 27.711 2.39806 27.502C1.13627 26.2826 0.2989 24.6906 0.00905034 22.96C-0.00301678 22.7999 -0.00301678 22.6391 0.00905034 22.479C0.907819 22.741 1.74091 23.1901 2.45345 23.7974C3.16599 24.4046 3.74182 25.1561 4.14305 26.002C4.07205 25.057 4.00705 24.1459 3.93605 23.2349C3.94437 23.0004 3.87451 22.77 3.73747 22.5796C3.60044 22.3892 3.40403 22.2497 3.17906 22.1831C2.71392 21.9762 2.32362 21.631 2.06105 21.1948C1.12429 19.6188 0.692941 17.7935 0.82506 15.9648C0.849557 15.8062 0.886319 15.65 0.935045 15.4971C1.73822 16.0179 2.42795 16.6954 2.96288 17.4893C3.4978 18.2831 3.8669 19.1767 4.04805 20.1167C4.13505 19.2767 4.24806 18.4377 4.29106 17.5957C4.30038 17.3104 4.19607 17.0331 4.00105 16.8247C2.60105 15.5677 2.49004 13.9377 2.60604 12.2607C2.69398 11.4608 2.82756 10.6666 3.00606 9.88184C3.02206 9.79284 3.10606 9.71603 3.18706 9.58203C3.83657 10.2473 4.3363 11.0437 4.65279 11.918C4.96927 12.7922 5.09518 13.724 5.02205 14.6509C5.29805 13.8829 5.62204 13.1268 5.82204 12.3398C5.89104 12.0688 5.68705 11.719 5.57405 11.418C5.298 10.926 5.09201 10.3981 4.96205 9.84912C4.85674 8.15787 5.2219 6.4705 6.01705 4.97412C6.09905 4.81612 6.21705 4.67408 6.38005 4.43408C7.29503 6.0553 7.57006 7.96011 7.15105 9.77393C7.63205 9.04493 8.13904 8.33208 8.57704 7.58008C8.63797 7.46133 8.671 7.33021 8.6736 7.19678C8.6762 7.06334 8.64831 6.93109 8.59206 6.81006C8.33483 6.38193 8.17812 5.90081 8.13378 5.40332C8.08943 4.90583 8.15859 4.40487 8.33605 3.93799C8.74407 2.46402 9.59812 1.1525 10.7811 0.183105C11.1972 2.00811 10.9719 3.92078 10.1431 5.59912C10.7531 5.03112 11.397 4.43989 12.03 3.83789C12.0938 3.76122 12.1266 3.66357 12.1221 3.56396C12.1309 3.18163 12.2272 2.80618 12.4035 2.4668C12.5797 2.12741 12.8314 1.83309 13.1391 1.60596C14.2121 0.868399 15.4062 0.324867 16.667 0C16.4833 0.936338 16.0641 1.8105 15.4491 2.54004C14.7268 3.34435 13.7564 3.88369 12.6921 4.07275C12.1029 4.31396 11.579 4.69095 11.163 5.17285C12.55 4.73485 13.843 5.12875 15.263 5.36475C14.9499 5.879 14.5255 6.31672 14.021 6.64551C13.5166 6.97429 12.945 7.1857 12.348 7.26465C11.7562 7.31637 11.16 7.25882 10.589 7.09473C9.74404 6.86673 9.66704 6.84199 9.14604 7.56299C8.91004 7.89299 8.68506 8.23099 8.45506 8.56299C8.40907 8.63199 8.37105 8.70586 8.25505 8.90186C9.65505 8.06986 11.096 8.15694 12.543 8.06494C12.543 8.17294 12.568 8.2518 12.543 8.2998C12.2003 8.98013 11.6977 9.56715 11.0784 10.0107C10.4591 10.4543 9.74149 10.7411 8.98705 10.8467C8.59429 10.8663 8.20057 10.8455 7.81206 10.7847C7.61937 10.744 7.41843 10.7773 7.24913 10.8779C7.07983 10.9785 6.95453 11.1395 6.89806 11.3281C6.64206 12.0021 6.33504 12.6567 6.08104 13.3477C7.24304 12.3117 8.73004 11.9738 10.081 11.3618L10.2091 11.4717C10.0271 11.8917 9.86304 12.322 9.65904 12.73C9.27422 13.6808 8.61572 14.4957 7.76705 15.0718C7.28116 15.3477 6.75516 15.546 6.20806 15.6597C5.37606 15.8337 5.23704 15.896 5.07204 16.708C4.91335 17.47 4.79453 18.2393 4.71605 19.0137C5.52705 17.4957 7.00004 16.6897 8.23604 15.6367L8.40306 15.6929C8.34206 16.1929 8.31604 16.7039 8.21404 17.1929C7.97301 18.6441 7.20011 19.9534 6.04604 20.8657C5.7793 21.0495 5.49571 21.2078 5.19905 21.3379C4.96831 21.4277 4.77317 21.5905 4.64324 21.8013C4.5133 22.0121 4.45565 22.2593 4.47905 22.5059C4.53005 23.3279 4.56806 24.1507 4.66606 24.9937C5.18906 23.2097 6.48405 21.9297 7.53105 20.4937L7.71205 20.5107C7.76305 20.9407 7.85106 21.3707 7.86006 21.8027C7.91933 23.1094 7.58902 24.4044 6.91106 25.5229C6.56742 26.0248 6.17263 26.4893 5.73305 26.9097C5.50587 27.0831 5.34192 27.3269 5.26641 27.6025C5.19089 27.8782 5.20798 28.171 5.31505 28.436C5.63205 29.242 5.86106 30.08 6.17806 30.894C6.15006 28.987 7.03806 27.3639 7.67806 25.6689L7.86006 25.6411C8.06649 26.1 8.24512 26.5705 8.39504 27.0508C8.6657 27.9497 8.74 28.8965 8.61284 29.8267C8.48568 30.7568 8.16004 31.6486 7.65804 32.4419C7.48606 32.6533 7.3947 32.9189 7.40019 33.1914C7.40569 33.4639 7.50768 33.7254 7.68804 33.9297C8.07204 34.4137 8.38804 34.9508 8.78804 35.4448C8.42504 33.6598 8.90605 31.9396 9.02605 30.0566C9.19153 30.1698 9.34651 30.298 9.48906 30.439C10.2156 31.2796 10.7099 32.2953 10.9232 33.3857C11.1365 34.4762 11.0613 35.6033 10.7051 36.6558C10.5976 36.8775 10.5752 37.131 10.6421 37.3682C10.709 37.6054 10.8605 37.8099 11.068 37.9429C11.752 38.4299 12.401 38.9649 13.095 39.4429C12.3104 37.8523 11.8675 36.1149 11.7951 34.3428C12.4101 34.5355 12.9624 34.889 13.395 35.3667C13.9225 35.8697 14.3403 36.4768 14.6222 37.1489C14.9041 37.8211 15.0439 38.5441 15.033 39.2729C15.018 40.479 15.033 40.489 16.193 40.894C16.735 41.083 17.2931 41.226 17.8591 41.394C17.7421 41.824 17.5691 42.032 17.1171 41.874C16.6171 41.699 16.101 41.5651 15.594 41.4121C15.4145 41.3302 15.2108 41.3186 15.0234 41.3804C14.836 41.4421 14.6788 41.5726 14.5831 41.7451C14.3896 42.0282 14.1408 42.2687 13.8518 42.4531C13.5627 42.6375 13.2393 42.7618 12.901 42.8179C12.4337 42.921 11.9566 42.9736 11.478 42.9741C10.5162 42.9737 9.56592 42.7639 8.69304 42.3599ZM17.914 32.8398C17.7532 32.6615 17.6306 32.4522 17.5539 32.2246C17.4772 31.9971 17.448 31.7564 17.4681 31.5171V31.4561L17.7681 29.7559C17.9274 28.8645 18.0867 27.9701 18.246 27.0728C18.2871 26.8428 18.33 26.6148 18.374 26.3848C18.468 25.8848 18.556 25.4087 18.625 24.9307C17.102 23.4797 15.54 22.019 14.025 20.605L13.9361 20.522C13.6397 20.3064 13.4187 20.003 13.3044 19.6548C13.1901 19.3066 13.1882 18.9313 13.2991 18.582C13.4299 18.2567 13.6535 17.9767 13.9421 17.7773C14.2307 17.578 14.5714 17.4681 14.922 17.4609L14.9881 17.4531C15.9141 17.3271 16.8561 17.1948 17.7651 17.0688C18.9731 16.8998 20.222 16.726 21.451 16.561C22.112 15.249 22.795 13.9236 23.451 12.6396C23.7544 12.049 24.0574 11.4583 24.3601 10.8677C24.4861 10.5392 24.7065 10.2553 24.9935 10.0518C25.2806 9.8482 25.6213 9.73448 25.973 9.72412C26.3245 9.73387 26.6652 9.84753 26.9521 10.0508C27.239 10.254 27.4593 10.5374 27.585 10.8657L27.5921 10.876C27.9007 11.48 28.2104 12.0834 28.521 12.686C29.174 13.955 29.849 15.266 30.503 16.564C31.686 16.725 32.8861 16.8908 34.048 17.0508C35.0394 17.1888 36.03 17.3262 37.02 17.4629H37.0271C37.3807 17.468 37.7247 17.5786 38.0153 17.7803C38.3058 17.9819 38.5296 18.2652 38.658 18.5947C38.7642 18.9396 38.7613 19.3092 38.6496 19.6523C38.5379 19.9955 38.3229 20.2954 38.034 20.5117C37.404 21.0991 36.7754 21.6878 36.1481 22.2778C35.2241 23.1458 34.269 24.0438 33.322 24.9238C33.729 27.0748 34.1051 29.2007 34.4411 31.2397C34.5013 31.5751 34.4678 31.9207 34.3443 32.2383C34.2207 32.5559 34.012 32.8334 33.741 33.04C33.4712 33.1949 33.1641 33.2723 32.853 33.2646C32.5237 33.2669 32.198 33.1951 31.9 33.0547C30.177 32.2127 28.2911 31.2648 25.9721 30.0718C23.9671 31.1038 21.922 32.1338 20.012 33.0928C19.7185 33.2458 19.3931 33.328 19.0621 33.332C18.8473 33.3322 18.6348 33.2887 18.4375 33.2041C18.2401 33.1195 18.062 32.9954 17.914 32.8398ZM25.24 13.5591C24.575 14.8511 23.8891 16.1859 23.2251 17.5039C23.0965 17.787 22.8959 18.0315 22.6434 18.2129C22.391 18.3943 22.0954 18.5065 21.7861 18.5381C20.5401 18.7051 19.275 18.8827 18.051 19.0527C17.265 19.1607 16.451 19.2748 15.651 19.3848C17.113 20.7518 18.616 22.16 20.085 23.562C20.2795 23.7428 20.4304 23.9654 20.5265 24.2129C20.6226 24.4604 20.6615 24.7261 20.6401 24.9907C20.5611 25.5907 20.45 26.1858 20.34 26.7588C20.299 26.9818 20.2561 27.2047 20.2171 27.4277C20.0581 28.3227 19.8991 29.2189 19.7391 30.1099L19.5671 31.0801C21.3671 30.1801 23.2671 29.2187 25.1271 28.2607C25.3914 28.1175 25.6864 28.0402 25.987 28.0356C26.2848 28.0394 26.5772 28.1158 26.839 28.2578C29.028 29.3848 30.763 30.2581 32.397 31.0581C32.079 29.1581 31.7271 27.1878 31.3501 25.1958C31.2817 24.889 31.2986 24.5694 31.3989 24.2715C31.4992 23.9736 31.6791 23.7089 31.9191 23.5059C32.8791 22.6149 33.8511 21.7008 34.7911 20.8188C35.3017 20.3395 35.8127 19.8605 36.3241 19.3818L33.784 19.0298C32.589 18.8638 31.355 18.6918 30.141 18.5298C29.8483 18.4982 29.5687 18.3915 29.3292 18.2202C29.0897 18.0489 28.8985 17.8186 28.7741 17.5518C28.1081 16.2338 27.42 14.8951 26.754 13.6021L25.986 12.1021L25.24 13.5591Z" />
      </symbol>

      <symbol id="icon-ecological" viewBox="0 0 51 53">
       <path d="M22.0518 51.043C18.644 49.5449 15.3964 47.7061 12.3588 45.5542L11.5488 45.023C11.189 44.7287 10.7577 44.5348 10.2988 44.461C9.97071 44.4916 9.66152 44.6283 9.41782 44.8501C8.29082 45.6661 7.12679 46.3692 5.78079 47.1822C5.16879 47.5512 4.53578 47.933 3.85678 48.355C3.68975 48.4588 3.49588 48.5113 3.29935 48.5054C3.10281 48.4995 2.91234 48.4358 2.7518 48.3223C2.59075 48.2087 2.46689 48.05 2.39572 47.8662C2.32455 47.6825 2.30929 47.4815 2.35184 47.2891C3.98184 39.9371 5.4938 33.1204 7.0618 26.0494C7.09121 25.9162 7.14753 25.7903 7.22732 25.6797C7.30712 25.5691 7.40869 25.4762 7.52579 25.4063C7.64321 25.3368 7.77362 25.2921 7.90897 25.2749C8.04431 25.2577 8.18177 25.2683 8.31283 25.3062L29.1068 31.2461C29.2846 31.2968 29.445 31.396 29.57 31.5323C29.695 31.6685 29.7797 31.8365 29.8148 32.0181C29.8497 32.1994 29.8337 32.3868 29.7685 32.5596C29.7034 32.7324 29.5917 32.8839 29.4458 32.9971L23.3908 37.6973C25.2982 38.2163 27.265 38.485 29.2418 38.4971C32.9562 38.4753 36.5943 37.4415 39.7648 35.5064C43.1419 33.4225 46.2104 30.8754 48.8808 27.94C49.0364 27.7775 49.2423 27.6727 49.4651 27.6416C49.688 27.6106 49.9147 27.6553 50.1088 27.7691C50.303 27.8834 50.453 28.0599 50.5343 28.2701C50.6156 28.4802 50.6235 28.712 50.5568 28.9273C49.4953 32.5935 48.1032 36.1558 46.3978 39.5703C44.6348 43.0522 42.1668 46.1291 39.1508 48.606C36.2553 51.0428 32.5972 52.3878 28.8128 52.4063C26.4931 52.3851 24.1985 51.9223 22.0518 51.043ZM12.6458 43.3501L13.4588 43.8853C16.3848 45.9596 19.5114 47.7349 22.7918 49.1851C24.7044 49.9713 26.749 50.3868 28.8168 50.4092C32.1445 50.3853 35.3585 49.1959 37.8998 47.0474C40.7029 44.7414 42.9955 41.8772 44.6318 38.6372C45.6928 36.5733 46.6058 34.4366 47.3638 32.2432C45.3557 34.1406 43.147 35.8135 40.7768 37.2329C37.3008 39.3484 33.3139 40.4767 29.2448 40.4961C26.4126 40.4658 23.6045 39.9724 20.9318 39.0352C20.7606 38.9773 20.6082 38.8744 20.4909 38.7369C20.3737 38.5993 20.2958 38.4322 20.2658 38.2539C20.2359 38.0757 20.2549 37.893 20.3208 37.7246C20.3866 37.5563 20.4969 37.409 20.6398 37.2984L26.6628 32.6231L8.78482 27.5161C7.46282 33.4822 6.17383 39.2923 4.81283 45.4273C6.09383 44.6553 7.2038 43.9841 8.2438 43.2271C8.82679 42.7538 9.54834 42.4838 10.2988 42.458C11.1513 42.5192 11.968 42.8294 12.6458 43.3501ZM42.4178 27.0713L40.2118 26.4361L21.6628 21.0953C21.4855 21.0441 21.3258 20.9449 21.2014 20.8086C21.077 20.6724 20.9926 20.5045 20.9578 20.3233C20.9229 20.1419 20.9389 19.9546 21.0041 19.7818C21.0692 19.609 21.1809 19.4575 21.3268 19.3443L27.2548 14.7442C25.4861 14.0664 23.6058 13.7272 21.7118 13.7442C18.221 13.8139 14.7986 14.726 11.7358 16.4024C7.89826 18.491 4.51136 21.3174 1.7698 24.7193C1.62304 24.8962 1.41985 25.0169 1.19437 25.0616C0.968885 25.1062 0.734909 25.0721 0.531829 24.9644C0.328571 24.8567 0.16863 24.6821 0.0790089 24.4703C-0.0106122 24.2584 -0.0244376 24.0222 0.0398244 23.8013C0.904513 20.6985 2.01603 17.6697 3.3638 14.7442C4.73353 11.7741 6.5121 9.01038 8.6478 6.53324C10.3611 4.51845 12.4591 2.86574 14.8188 1.67142C17.058 0.567041 19.5221 -0.00522927 22.0188 3.60061e-05C24.9068 0.0433811 27.7532 0.694647 30.3728 1.91117C33.0909 3.22661 35.6796 4.79428 38.1048 6.5933C38.5448 6.8933 38.9968 7.21215 39.4408 7.51615C39.7188 7.74805 40.0484 7.91008 40.4018 7.98832C40.6227 7.96042 40.8308 7.86962 41.0018 7.72709C42.2598 6.85509 43.5748 6.04312 44.9688 5.18412C45.5938 4.80112 46.2378 4.40209 46.9138 3.97709C47.081 3.8717 47.2756 3.81812 47.4732 3.82328C47.6707 3.82844 47.8624 3.89241 48.0238 4.00638C48.1852 4.12013 48.3093 4.27874 48.3805 4.46293C48.4517 4.64712 48.4668 4.84832 48.4238 5.04105L43.6708 26.3272C43.6412 26.4605 43.5845 26.5862 43.5044 26.6968C43.4242 26.8074 43.3223 26.9006 43.2048 26.9703C43.0502 27.0612 42.8741 27.1093 42.6948 27.1094C42.6011 27.1098 42.5079 27.0969 42.4178 27.0713ZM29.6398 13.6421C29.7872 13.721 29.9125 13.8354 30.0042 13.9751C30.0959 14.1149 30.1512 14.2758 30.1648 14.4424C30.1793 14.6087 30.152 14.7757 30.0852 14.9287C30.0185 15.0818 29.9145 15.2159 29.7828 15.3184L24.1088 19.7183L40.7648 24.5181L41.9508 24.8594L45.9508 6.92826C44.6058 7.75826 43.3338 8.54411 42.1408 9.37211C41.6402 9.75377 41.033 9.96996 40.4038 9.99027C39.639 9.93613 38.9093 9.64866 38.3128 9.16703C37.8638 8.85803 37.4078 8.54234 36.9668 8.23734C34.6421 6.51236 32.1629 5.00595 29.5608 3.73734C27.1971 2.63617 24.6281 2.04436 22.0208 2.00101C19.8295 1.99625 17.6668 2.49761 15.7008 3.46537C13.5796 4.5433 11.6944 6.03315 10.1558 7.84818C8.14137 10.1858 6.46441 12.7942 5.1738 15.5972C4.5178 16.9862 3.91079 18.4642 3.32779 20.0972C5.55112 17.9325 8.06859 16.0922 10.8058 14.6304C14.1556 12.8027 17.8975 11.8118 21.7128 11.7422C24.4716 11.7092 27.1954 12.3626 29.6398 13.6421Z" />
      </symbol>

      <symbol id="icon-shipping-worldwide" viewBox="0 0 45 52">
        <path d="M18.7764 51.8504C18.5695 51.7405 18.4008 51.5707 18.2925 51.363C18.1841 51.1554 18.1413 50.9198 18.1694 50.6873C18.1774 49.0873 18.1694 47.4876 18.1694 45.8816V45.2815C15.2815 44.7591 12.5089 43.7292 9.98035 42.2395C7.42099 40.7755 5.22878 38.7476 3.57007 36.3098C1.91137 33.8721 0.829753 31.0883 0.407354 28.1702C0.156354 26.6822 0.118451 25.1572 0.0074515 23.6482C-0.0217039 23.4045 0.0352515 23.1584 0.168584 22.9524C0.301917 22.7464 0.503201 22.5935 0.737432 22.5203C0.957331 22.4368 1.19891 22.4301 1.4231 22.5012C1.64729 22.5724 1.84092 22.7173 1.97242 22.9124C2.09369 23.139 2.18099 23.3825 2.23145 23.6345C3.03688 27.2935 5.22671 30.4987 8.34241 32.5794C10.8086 34.1002 13.6857 34.819 16.5774 34.6365C17.0894 34.6215 17.6004 34.5902 18.1664 34.5652V33.9456C18.1664 32.3106 18.1664 30.6734 18.1664 29.0374C18.1368 28.8054 18.1784 28.5699 18.2855 28.3621C18.3927 28.1542 18.5603 27.9838 18.7664 27.8733C18.9767 27.771 19.213 27.7341 19.4446 27.7669C19.6762 27.7996 19.8927 27.9007 20.0664 28.0574C25.0664 31.6294 30.0694 35.1978 35.0754 38.7625C35.265 38.8539 35.425 38.9965 35.5371 39.1746C35.6492 39.3526 35.709 39.5589 35.7095 39.7693C35.71 39.9797 35.6513 40.1859 35.54 40.3645C35.4288 40.5431 35.2695 40.6872 35.0804 40.7796C30.0804 44.4096 25.0764 48.0364 20.0684 51.6604C19.8377 51.8498 19.5525 51.9605 19.2544 51.9763C19.0873 51.973 18.9234 51.9299 18.7764 51.8504ZM3.64844 31.7654C4.92691 35.0293 7.18858 37.8151 10.1204 39.7366C12.818 41.5429 15.8837 42.726 19.0953 43.2005C20.0953 43.3525 20.3504 43.6513 20.3534 44.6653C20.3534 45.4403 20.3534 46.2155 20.3534 46.9915V48.7522L32.7415 39.7776L20.3554 30.9456C20.3554 32.4526 20.3554 33.8122 20.3554 35.1702C20.3554 36.2152 20.0554 36.5864 19.0004 36.6384C17.4581 36.7649 15.9097 36.7984 14.3634 36.7385C10.5339 36.5429 6.93163 34.8614 4.32239 32.0515C4.05839 31.7725 3.80439 31.4835 3.54639 31.1995C3.53162 31.3927 3.56634 31.5864 3.64734 31.7625L3.64844 31.7654ZM36.6874 39.0154C36.5772 38.901 36.4918 38.765 36.4368 38.616C36.3817 38.4669 36.3582 38.3083 36.3676 38.1497C36.377 37.9911 36.4191 37.8361 36.4913 37.6946C36.5636 37.5531 36.6644 37.428 36.7874 37.3274C37.5634 36.4634 38.3194 35.5822 39.0874 34.7102L38.9874 34.5442H36.6024C35.4264 34.5442 34.2524 34.5345 33.0764 34.5525C32.8639 34.5581 32.6576 34.625 32.4824 34.7454C32.3063 34.8972 32.0858 34.9879 31.8539 35.0042C31.6219 35.0204 31.391 34.961 31.1954 34.8352C30.9931 34.7154 30.8374 34.5306 30.7537 34.3108C30.6699 34.091 30.6631 33.8494 30.7344 33.6253C31.0264 32.3533 31.3824 31.0914 31.5984 29.8054C31.8754 28.1474 32.0424 26.4714 32.2654 24.7454H23.5764C23.5764 25.4914 23.5764 26.2454 23.5764 26.9944C23.5764 27.2194 23.5873 27.4433 23.5693 27.6663C23.5589 27.9523 23.4359 28.2225 23.2271 28.4182C23.0182 28.614 22.7405 28.7193 22.4544 28.7112C22.1767 28.7036 21.9133 28.5869 21.7211 28.3865C21.5289 28.186 21.4233 27.9181 21.4274 27.6404C21.4074 26.8654 21.4204 26.0892 21.4204 25.3142V24.7322H12.8574C12.8954 25.3442 12.8884 25.9613 12.9804 26.5613C13.2704 28.4293 13.5855 30.2945 13.9135 32.1565C14.0465 32.9085 13.7853 33.4812 13.1733 33.6272C12.5063 33.7862 12.0044 33.4274 11.8134 32.6594C11.2104 30.1834 10.8405 27.6565 10.7084 25.1116C10.7024 24.9946 10.6874 24.8784 10.6704 24.7044H10.0984C8.12239 24.7044 6.14739 24.7044 4.17139 24.7044C3.91304 24.7337 3.65251 24.6727 3.43384 24.532C3.21517 24.3913 3.05184 24.1797 2.97144 23.9324C2.92008 23.7722 2.90679 23.6021 2.93262 23.4358C2.95846 23.2695 3.02268 23.1119 3.12024 22.9749C3.21781 22.8378 3.34601 22.7251 3.49463 22.6462C3.64326 22.5674 3.80824 22.5242 3.97645 22.5203C4.50145 22.4823 5.03145 22.5076 5.55945 22.5076H10.5294C10.7774 19.8846 11.0194 17.3076 11.2654 14.6956H10.6654C8.53641 14.6956 6.40735 14.7064 4.27735 14.6834C4.12156 14.662 3.96344 14.7005 3.83472 14.7908C3.706 14.8811 3.61624 15.0164 3.58338 15.1702C2.94982 16.8258 2.52233 18.5532 2.31043 20.3132C2.30729 20.5821 2.20788 20.8409 2.03028 21.0427C1.85268 21.2445 1.60864 21.376 1.34241 21.4133C1.11123 21.4469 0.875567 21.3996 0.675176 21.2796C0.474785 21.1595 0.321953 20.9738 0.242437 20.7542C0.163767 20.439 0.148741 20.1114 0.198369 19.7903C0.438499 17.7544 0.973443 15.7645 1.78638 13.8826C5.04338 6.52158 10.5863 1.96239 18.3973 0.390391C23.1797 -0.517706 28.1279 0.168503 32.4825 2.344C36.8372 4.51951 40.3576 8.06405 42.5034 12.4334C44.1812 15.6935 45.0384 19.3139 45.0007 22.9802C44.9631 26.6466 44.0317 30.2484 42.2874 33.4734C41.2538 35.4723 39.9102 37.2948 38.3064 38.8733C38.1893 39.0041 38.0475 39.1103 37.889 39.1858C37.7306 39.2613 37.5587 39.3046 37.3834 39.3132C37.121 39.3092 36.8716 39.2023 36.6874 39.0154ZM40.0874 32.3694C40.4104 32.3694 40.5284 32.2023 40.6484 31.9563C41.515 30.1984 42.1316 28.3278 42.4804 26.3992C42.5803 25.8542 42.6364 25.2993 42.7184 24.7063C39.9714 24.7063 37.3184 24.7064 34.6674 24.7004C34.3424 24.7004 34.3295 24.8802 34.3145 25.1262C34.2705 25.8462 34.2453 26.5714 34.1473 27.2844C33.9163 28.9494 33.6474 30.6094 33.3794 32.3294C33.454 32.3443 33.5294 32.3538 33.6054 32.3582H36.6884C37.8217 32.3608 38.9541 32.3647 40.0874 32.3694ZM34.0483 14.6956C33.9539 14.6985 33.8597 14.7071 33.7664 14.7214C34.0104 17.3214 34.2554 19.8953 34.4994 22.4793H42.7644C42.7804 22.4078 42.7914 22.3355 42.7974 22.2625C42.7538 19.7636 42.2413 17.2953 41.2864 14.9856C41.2306 14.9031 41.1564 14.8347 41.0696 14.7859C40.9828 14.7371 40.8858 14.7091 40.7864 14.7044C39.5624 14.6944 38.3384 14.6901 37.1144 14.6921L34.0483 14.6956ZM12.8334 22.4724H21.3814V14.7263H13.5894C13.0704 17.2756 12.8173 19.8719 12.8344 22.4734L12.8334 22.4724ZM23.6194 22.4666H32.2034C32.2154 19.8625 31.957 17.2638 31.4324 14.7131H23.6194V22.4666ZM29.5714 4.30543C31.1521 6.62322 32.3069 9.20435 32.9814 11.9275C32.9901 12.0213 33.0181 12.1123 33.0641 12.1946C33.11 12.2769 33.1728 12.3485 33.2482 12.405C33.3236 12.4616 33.41 12.5016 33.5018 12.5227C33.5937 12.5438 33.6889 12.5456 33.7814 12.5276C35.6704 12.4976 37.5624 12.5154 39.4514 12.5154H40.1254C37.6043 8.09909 33.5411 4.76933 28.7155 3.16529C29.0635 3.62429 29.3274 3.96243 29.5714 4.30543ZM11.2804 12.5242C11.369 12.5404 11.4601 12.5382 11.5477 12.5173C11.6354 12.4964 11.7177 12.4576 11.7894 12.4031C11.8612 12.3486 11.9209 12.2797 11.9646 12.2009C12.0083 12.1222 12.0351 12.0353 12.0433 11.9456C12.7999 8.83101 14.2045 5.91056 16.1654 3.37525C16.1884 3.34625 16.1834 3.29539 16.1934 3.2444C12.3994 4.00739 6.14237 9.14446 4.94837 12.5125C6.10737 12.5125 7.24841 12.5125 8.38941 12.5125C9.35441 12.5075 10.3184 12.5112 11.2804 12.5242ZM20.8684 12.5242C21.3324 12.5312 21.4314 12.3802 21.4294 11.9392C21.4114 8.90822 21.4193 5.87935 21.4183 2.85035C21.4183 2.69735 21.4054 2.5502 21.3954 2.3152C21.1014 2.4152 20.8424 2.48212 20.6014 2.58912C19.4345 3.13477 18.4223 3.96371 17.6574 5.00025C16.227 6.89397 15.1506 9.03078 14.4804 11.3074C14.3594 11.6784 14.2553 12.0522 14.1263 12.4832C14.3643 12.4982 14.5264 12.5144 14.6904 12.5144H16.5075H18.0244C18.9734 12.5084 19.9204 12.5102 20.8694 12.5222L20.8684 12.5242ZM23.6104 12.4802H30.8724C30.8452 12.3183 30.8074 12.1583 30.7594 12.0012C30.2424 10.6382 29.7884 9.24459 29.1834 7.92359C28.416 6.13351 27.2211 4.55867 25.7034 3.33815C25.0973 2.83794 24.3792 2.49197 23.6104 2.32936V12.4802Z" />
      </symbol>


      <symbol  id="icon-search" viewBox="0 0 18 17">
<path d="M15.325 16.7022L11.225 12.6022C9.81021 13.6688 8.04395 14.1598 6.28173 13.9764C4.51951 13.793 2.89219 12.9488 1.72734 11.6139C0.562483 10.2789 -0.0534098 8.55221 0.00363644 6.78139C0.0606827 5.01058 0.786432 3.32712 2.03479 2.06988C3.28315 0.812651 4.96143 0.0749971 6.7318 0.00541122C8.50216 -0.0641747 10.2332 0.539474 11.5764 1.69484C12.9195 2.85021 13.7752 4.47152 13.9711 6.23239C14.1669 7.99326 13.6885 9.76296 12.632 11.1852L16.732 15.2852C16.8275 15.3775 16.9037 15.4878 16.9561 15.6098C17.0085 15.7318 17.0361 15.8631 17.0372 15.9958C17.0384 16.1286 17.0131 16.2603 16.9628 16.3832C16.9125 16.5061 16.8383 16.6177 16.7444 16.7116C16.6505 16.8055 16.5388 16.8798 16.4159 16.9301C16.293 16.9804 16.1614 17.0057 16.0286 17.0045C15.8958 17.0033 15.7646 16.9758 15.6426 16.9233C15.5206 16.8709 15.4102 16.7948 15.318 16.6992L15.325 16.7022ZM2.03198 6.99525C2.03198 7.98415 2.32522 8.95085 2.87463 9.7731C3.42404 10.5953 4.20493 11.2362 5.11856 11.6146C6.03219 11.9931 7.03752 12.0921 8.00743 11.8992C8.97733 11.7062 9.86825 11.23 10.5675 10.5308C11.2668 9.83152 11.743 8.9406 11.9359 7.9707C12.1288 7.00079 12.0298 5.99546 11.6514 5.08183C11.2729 4.1682 10.6321 3.38731 9.80983 2.8379C8.98758 2.28849 8.02088 1.99525 7.03198 1.99525C5.7063 1.99657 4.4353 2.52378 3.49791 3.46118C2.56051 4.39857 2.0333 5.66957 2.03198 6.99525Z" fill="currentColor"/>
</symbol>


 <symbol id="icon-visa" viewBox="0 0 47 16">
    <path fill-rule="evenodd" clip-rule="evenodd" d="M41.899 9.69888H41.058C41.0228 9.69632 40.9874 9.69936 40.953 9.70788C40.9442 9.71076 40.9365 9.71636 40.931 9.72388C40.916 9.71244 40.8987 9.70422 40.8802 9.69975C40.8618 9.69528 40.8427 9.69464 40.8241 9.69788H39.846C39.8276 9.6947 39.8087 9.69527 39.7905 9.69957C39.7723 9.70387 39.7551 9.71179 39.7401 9.72288L39.733 9.71288C39.7009 9.70185 39.6668 9.69776 39.633 9.70088C39.511 9.70088 39.389 9.70088 39.267 9.70088C39.183 9.70088 39.176 9.68788 39.204 9.60988C39.28 9.40388 39.35 9.19588 39.428 8.98988C39.4421 8.96025 39.4486 8.92763 39.4471 8.89488V8.88788C39.4791 8.87088 39.485 8.83488 39.496 8.80488C39.621 8.45788 39.748 8.11288 39.873 7.76588C39.883 7.73888 39.898 7.71088 39.873 7.68288C39.908 7.68288 39.912 7.64888 39.92 7.62488C40.132 7.03788 40.351 6.45388 40.551 5.86288C40.5625 5.83822 40.5673 5.81099 40.565 5.78388C40.602 5.77488 40.603 5.73888 40.614 5.71188C40.783 5.25488 40.947 4.79688 41.114 4.33888C41.1205 4.32229 41.1239 4.30468 41.124 4.28688C41.13 4.30488 41.133 4.32288 41.137 4.34088C41.1541 4.45556 41.1819 4.56839 41.22 4.67788V4.68488C41.2103 4.70893 41.2103 4.73583 41.22 4.75988C41.231 4.82488 41.244 4.88888 41.258 4.95288C41.5387 6.29888 41.8201 7.64488 42.1021 8.99088C42.1531 9.23288 42.194 9.47688 42.26 9.71688C42.264 9.71659 42.2681 9.71659 42.272 9.71688C42.235 9.69935 42.1945 9.69026 42.1535 9.69026C42.1126 9.69026 42.0721 9.69935 42.035 9.71688C42.0275 9.7097 42.0187 9.70394 42.009 9.69988C41.9742 9.69251 41.9386 9.68982 41.903 9.69188M46.857 14.8349C46.722 14.1909 46.589 13.5469 46.457 12.9029C46.357 12.4399 46.257 11.9779 46.164 11.5149C46.1643 11.5122 46.1643 11.5095 46.164 11.5069L44.917 5.52988C44.5544 3.79655 44.193 2.06322 43.833 0.329882C43.82 0.269882 43.802 0.250882 43.739 0.250882H40.578C40.5267 0.245294 40.4747 0.249708 40.425 0.263882C40.1573 0.277929 39.898 0.362071 39.673 0.507882C39.647 0.521882 39.62 0.534882 39.596 0.550882C39.269 0.778809 39.0262 1.10811 38.905 1.48788L38.178 3.22288C38.147 3.29488 38.114 3.36588 38.085 3.43788L37.702 4.36588C37.656 4.47288 37.607 4.57788 37.563 4.68588L37.099 5.82088C37.0726 5.86131 37.0524 5.90547 37.039 5.95188L36.495 7.25788C36.47 7.31488 36.4441 7.37088 36.4211 7.42788L36.032 8.36788C35.949 8.56188 35.865 8.75488 35.784 8.94988L35.284 10.1499C35.248 10.2319 35.211 10.3129 35.177 10.3949L34.695 11.5559C34.487 12.0319 34.288 12.5119 34.095 12.9939C34.0892 12.9995 34.0842 13.0059 34.08 13.0129C33.8294 13.6129 33.579 14.2129 33.329 14.8129C33.3116 14.8398 33.3016 14.8708 33.3 14.9029H37.1001C37.119 14.9018 37.1381 14.9018 37.157 14.9029C37.241 14.9189 37.278 14.8829 37.305 14.8029C37.393 14.5409 37.492 14.2839 37.586 14.0229C37.686 13.7399 37.786 13.4569 37.886 13.1739C37.934 13.0479 37.986 12.9219 38.028 12.7939C38.0302 12.7815 38.0348 12.7697 38.0416 12.7592C38.0484 12.7487 38.0572 12.7396 38.0675 12.7325C38.0779 12.7254 38.0895 12.7205 38.1018 12.718C38.1141 12.7155 38.1267 12.7154 38.139 12.7179C38.283 12.7179 38.427 12.7179 38.571 12.7179C38.947 12.7252 39.3231 12.7252 39.6991 12.7179C40.0857 12.7252 40.4724 12.7252 40.859 12.7179C41.259 12.7252 41.6564 12.7252 42.051 12.7179C42.309 12.7179 42.568 12.7239 42.827 12.7179C42.896 12.7179 42.919 12.7409 42.932 12.8029C43.073 13.4879 43.217 14.1719 43.357 14.8569C43.365 14.8959 43.381 14.9059 43.416 14.9059H43.963H45.973H46.545C46.635 14.9059 46.725 14.9059 46.814 14.9059C46.872 14.9059 46.872 14.8879 46.862 14.8399" fill="currentColor"/>
    <path fill-rule="evenodd" clip-rule="evenodd" d="M16.494 3.35596C16.571 3.17496 16.65 2.99396 16.726 2.81196C16.85 2.51196 16.971 2.21796 17.094 1.91996C17.1547 1.7964 17.2085 1.66953 17.255 1.53996C17.3004 1.45039 17.3389 1.35745 17.37 1.26196L17.794 0.268957H17.733H13.879C13.857 0.268957 13.83 0.256957 13.813 0.282957L13.679 0.625957C13.594 0.836957 13.507 1.04796 13.424 1.25896C13.306 1.55896 13.19 1.85896 13.073 2.15896C12.948 2.46996 12.822 2.78096 12.698 3.09196C12.587 3.37396 12.478 3.65696 12.368 3.93896C12.155 4.45396 11.952 4.97196 11.752 5.49296C11.706 5.60396 11.659 5.71496 11.615 5.82696L11.195 6.90296L10.607 8.38896C10.582 8.44896 10.556 8.50796 10.532 8.56896L10.019 9.87596L9.876 10.221C9.869 10.201 9.863 10.181 9.857 10.16C9.795 9.83196 9.735 9.50396 9.673 9.17596C9.621 8.90196 9.567 8.62796 9.513 8.35396C9.51399 8.33497 9.51399 8.31594 9.513 8.29696L9.288 7.13396C9.1 6.13396 8.912 5.13396 8.724 4.13396C8.572 3.32696 8.424 2.51896 8.265 1.71496C8.19342 1.306 7.97885 0.935787 7.65959 0.670378C7.34033 0.404969 6.93715 0.261636 6.522 0.265957H0.159C0.135 0.265957 0.104 0.250957 0.085 0.280957C0.058 0.402957 0.031 0.524957 0 0.645957C0 0.673957 0 0.693957 0.031 0.702957L0.648 0.840957C0.65449 0.845524 0.66155 0.849222 0.669 0.851957C1.162 0.973957 1.65 1.11396 2.131 1.27596L2.58 1.42696C3.04295 1.59719 3.49169 1.80384 3.922 2.04496C4.06263 2.14101 4.18803 2.25764 4.294 2.39096C4.44349 2.62071 4.54957 2.87593 4.607 3.14396C4.83433 4.01529 5.061 4.88729 5.287 5.75996L6.845 11.789C7.10833 12.8063 7.37067 13.8246 7.632 14.844C7.63293 14.8543 7.63601 14.8643 7.64106 14.8734C7.64611 14.8824 7.65301 14.8903 7.6613 14.8966C7.6696 14.9028 7.67912 14.9072 7.68923 14.9095C7.69934 14.9118 7.70982 14.912 7.72 14.91C7.954 14.91 8.188 14.91 8.42 14.91H9.605H10.748H11.61C11.636 14.91 11.655 14.91 11.666 14.877C11.713 14.756 11.766 14.636 11.811 14.517C11.878 14.361 11.947 14.205 12.011 14.049C12.146 13.726 12.278 13.403 12.411 13.08C12.419 13.067 12.426 13.053 12.433 13.038L12.999 11.676C13.011 11.651 13.024 11.628 13.034 11.604L13.588 10.271C13.678 10.062 13.768 9.85296 13.856 9.64296C13.975 9.35796 14.092 9.07196 14.21 8.78596C14.289 8.60196 14.37 8.41896 14.447 8.23396C14.576 7.92396 14.704 7.61296 14.832 7.30296C14.8579 7.26691 14.8744 7.22498 14.88 7.18096L14.945 7.03396C14.956 7.01296 14.967 6.99196 14.978 6.96896L15.567 5.54996C15.7 5.23596 15.835 4.92296 15.967 4.60796C16.141 4.19196 16.313 3.77596 16.486 3.35996" fill="currentColor"/>
    <path fill-rule="evenodd" clip-rule="evenodd" d="M23.2029 0.266179H19.8499C19.7239 0.266179 19.5989 0.266179 19.4749 0.266179C19.4529 0.266179 19.4159 0.249179 19.4149 0.296179L19.3659 0.525179C19.3659 0.541179 19.3549 0.556179 19.3519 0.572179C19.2412 1.08951 19.1309 1.60685 19.0209 2.12418C18.9649 2.38618 18.9119 2.64918 18.8579 2.91218C18.8548 2.91679 18.8524 2.92185 18.8509 2.92718C18.7449 3.42318 18.6392 3.91951 18.5339 4.41618C18.4981 4.55395 18.4694 4.69347 18.4479 4.83418C18.4019 4.99718 18.3719 5.16318 18.3389 5.33418L18.0279 6.78918C17.9969 6.92918 17.9639 7.06918 17.9339 7.21018L17.6989 8.32518C17.6921 8.33973 17.6864 8.35477 17.6819 8.37018C17.5899 8.79951 17.4989 9.22918 17.4089 9.65918L17.1919 10.6942C17.1499 10.8822 17.1069 11.0692 17.0679 11.2582L16.7679 12.6712C16.7429 12.7852 16.7159 12.8992 16.6919 13.0122L16.2979 14.8502C16.2909 14.8842 16.2789 14.9132 16.3349 14.9132C16.7729 14.9132 17.2099 14.9132 17.6479 14.9132H18.8249H20.0189C20.0519 14.9132 20.0649 14.9052 20.0709 14.8712C20.0829 14.8082 20.1009 14.7472 20.1169 14.6842C20.1869 14.3642 20.2589 14.0442 20.3279 13.7232C20.3689 13.5332 20.4059 13.3422 20.4449 13.1512C20.45 13.1395 20.4544 13.1275 20.4579 13.1152L20.7679 11.6432L20.8679 11.2022L20.9549 10.7822C20.9709 10.7192 20.9879 10.6572 21.0009 10.5932L21.2809 9.25918C21.2862 9.24996 21.2905 9.24025 21.2939 9.23018C21.4086 8.69685 21.5226 8.16351 21.6359 7.63018C21.6879 7.38418 21.7359 7.13718 21.7879 6.89018C21.7932 6.88063 21.7975 6.87058 21.8009 6.86018C21.9436 6.19951 22.0849 5.53885 22.2249 4.87818C22.2939 4.55118 22.3609 4.22418 22.4249 3.89818C22.4295 3.88853 22.4331 3.87849 22.4359 3.86818C22.6359 2.93085 22.8359 1.99351 23.0359 1.05618C23.0919 0.796179 23.1459 0.536179 23.2029 0.270179" fill="currentColor"/>
    <path fill-rule="evenodd" clip-rule="evenodd" d="M34.1139 0.624C34.0379 0.602 33.9649 0.572 33.8909 0.547C33.4955 0.411393 33.0916 0.301497 32.6819 0.218C32.6559 0.212 32.6299 0.204 32.6029 0.198C32.0165 0.0780835 31.4204 0.0118099 30.8219 0L30.4219 0.006V0C30.2049 0.012 29.9879 0.02 29.7719 0.037C29.6007 0.0462222 29.4303 0.0672724 29.2619 0.1C28.9097 0.140904 28.5617 0.21251 28.2219 0.314C27.8487 0.405169 27.4857 0.534518 27.1389 0.7C26.816 0.83841 26.5092 1.01178 26.2239 1.217C25.9028 1.42955 25.6112 1.68376 25.3569 1.973C25.2812 2.04653 25.2119 2.1265 25.1499 2.212C24.9356 2.4782 24.7577 2.77179 24.6209 3.085C24.6109 3.104 24.5999 3.122 24.5899 3.142C24.409 3.55451 24.2955 3.99345 24.2539 4.442C24.1911 4.98366 24.2597 5.53248 24.4539 6.042C24.683 6.59421 25.0357 7.08651 25.4849 7.481C25.8152 7.78696 26.1784 8.05527 26.5679 8.281C26.5827 8.29247 26.5981 8.30315 26.6139 8.313C26.9199 8.497 27.2369 8.662 27.5559 8.821C27.6999 8.893 27.8439 8.962 27.9889 9.033C28.1409 9.12 28.2949 9.206 28.4469 9.294C28.6926 9.43313 28.9209 9.60097 29.1269 9.794C29.3329 9.97954 29.4688 10.2302 29.5119 10.504C29.5119 10.504 29.5119 10.504 29.5119 10.509V10.743C29.5119 10.743 29.5119 10.743 29.5119 10.748C29.479 10.9985 29.3685 11.2325 29.1959 11.417C29.0207 11.5827 28.8176 11.7161 28.5959 11.811C28.4589 11.87 28.3149 11.911 28.1739 11.957C27.8007 12.0415 27.4185 12.0801 27.0359 12.072L26.5729 12.059C26.1499 12.0322 25.7298 11.9707 25.3169 11.875C25.1309 11.829 24.9449 11.775 24.7589 11.727C24.5679 11.656 24.3769 11.588 24.1869 11.513C23.9289 11.413 23.6789 11.292 23.4269 11.176C23.4039 11.165 23.3659 11.123 23.3529 11.186C23.2919 11.475 23.2329 11.765 23.1729 12.054C23.1673 12.0663 23.1626 12.079 23.1589 12.092C23.0029 12.8253 22.8459 13.5587 22.6879 14.292C22.6843 14.3003 22.6826 14.3094 22.6829 14.3185C22.6832 14.3275 22.6854 14.3365 22.6895 14.3446C22.6936 14.3527 22.6995 14.3598 22.7066 14.3654C22.7138 14.371 22.7221 14.375 22.7309 14.377C23.0734 14.5231 23.4268 14.6422 23.7879 14.733C23.9336 14.7772 24.0824 14.8106 24.2329 14.833C24.3453 14.8646 24.4595 14.889 24.5749 14.906C24.8602 14.9626 25.1483 15.0043 25.4379 15.031C25.4649 15.045 25.4969 15.031 25.5239 15.045H25.5839C25.5839 15.045 25.5909 15.045 25.5939 15.045C25.6156 15.0533 25.6389 15.0564 25.6619 15.054C25.6619 15.054 25.6679 15.054 25.6719 15.054H25.7489C25.7819 15.07 25.8189 15.054 25.8489 15.066H25.9249C25.9381 15.0691 25.9518 15.0691 25.9649 15.066C25.9832 15.0711 26.002 15.0738 26.0209 15.074L26.7809 15.111V15.125H27.1079V15.111L27.1409 15.106C27.2035 15.1117 27.2664 15.1117 27.3289 15.106H27.3539H27.3919H27.5489C27.5946 15.1115 27.6409 15.1074 27.6849 15.094H27.6909H27.7389C28.0724 15.0714 28.4043 15.0297 28.7329 14.969C28.9164 14.9408 29.0978 14.9004 29.2759 14.848C29.646 14.7688 30.0072 14.6526 30.3539 14.501C30.6017 14.3994 30.8417 14.2798 31.0719 14.143C31.1019 14.148 31.1209 14.124 31.1439 14.112C31.445 13.9322 31.7274 13.7228 31.9869 13.487C31.9944 13.4847 32.0014 13.4813 32.0079 13.477C32.321 13.1968 32.5906 12.8716 32.8079 12.512C32.8189 12.497 32.8309 12.482 32.8399 12.466C33.3082 11.6771 33.5251 10.7643 33.4619 9.849C33.4188 9.03109 33.0793 8.25687 32.5069 7.671C31.9069 7.0768 31.2121 6.58675 30.4509 6.221C29.9509 5.947 29.4509 5.699 28.9639 5.4C28.9429 5.384 28.9219 5.367 28.8999 5.352C28.6903 5.21719 28.5047 5.04818 28.3509 4.852C28.2753 4.75697 28.2208 4.64687 28.1912 4.52908C28.1615 4.41129 28.1573 4.28853 28.1789 4.169C28.2145 4.03678 28.273 3.91187 28.3519 3.8C28.588 3.51266 28.9073 3.3055 29.2659 3.207C29.5119 3.14105 29.7632 3.09721 30.0169 3.076C30.0394 3.07607 30.0618 3.0744 30.0839 3.071H30.1019C30.1244 3.07109 30.1468 3.06942 30.1689 3.066H30.4089L30.9739 3.086C31.0019 3.099 31.0339 3.086 31.0619 3.098H31.1389C31.1659 3.112 31.1979 3.098 31.2249 3.11C31.3205 3.13169 31.418 3.14408 31.5159 3.147C31.527 3.1515 31.5384 3.15518 31.5499 3.158C31.8636 3.20786 32.1736 3.27835 32.4779 3.369C32.8082 3.46702 33.1316 3.58696 33.4459 3.728C33.4699 3.739 33.5049 3.776 33.5179 3.715L33.6899 2.886C33.6956 2.87405 33.7003 2.86168 33.7039 2.849C33.7613 2.58233 33.8189 2.314 33.8769 2.044C33.9709 1.60267 34.0663 1.162 34.1629 0.722C34.1739 0.67 34.1629 0.644 34.1099 0.629" fill="currentColor"/>
    </symbol>

  <symbol id="icon-american-express" viewBox="0 0 60 21">   
  <path d="M13.8573 20.4582C13.712 20.4582 13.5681 20.4296 13.4338 20.374C13.2996 20.3183 13.1776 20.2368 13.0749 20.1339C12.9722 20.0311 12.8907 19.9091 12.8352 19.7748C12.7797 19.6405 12.7512 19.4966 12.7513 19.3512V12.6512C12.7512 12.5059 12.7797 12.362 12.8352 12.2277C12.8907 12.0934 12.9722 11.9713 13.0749 11.8685C13.1776 11.7657 13.2996 11.6842 13.4338 11.6285C13.5681 11.5729 13.712 11.5442 13.8573 11.5442H20.2943C20.4498 11.543 20.6038 11.5752 20.7458 11.6387C20.8878 11.7022 21.0145 11.7955 21.1173 11.9122L22.2803 13.2042L23.4923 11.8972C23.596 11.7854 23.7218 11.6964 23.8618 11.6358C24.0017 11.5752 24.1528 11.5443 24.3053 11.5452H29.4193C30.285 11.5037 31.1438 11.7171 31.8893 12.1592C31.9793 11.9765 32.1183 11.8223 32.2908 11.7138C32.4633 11.6054 32.6625 11.5471 32.8663 11.5452H36.5663C37.4065 11.4842 38.2484 11.6373 39.0133 11.9902C39.0933 12.0372 39.1493 12.1002 39.2253 12.1542C39.316 11.9724 39.4553 11.8192 39.6278 11.7117C39.8002 11.6042 39.9991 11.5466 40.2023 11.5452H45.5433C45.7393 11.5469 45.9313 11.6014 46.0989 11.7032C46.2664 11.8049 46.4034 11.9501 46.4953 12.1232C47.1228 11.7214 47.8576 11.5198 48.6023 11.5452H51.8093C52.0367 11.5459 52.2582 11.6174 52.443 11.7499C52.6278 11.8823 52.7666 12.0691 52.8403 12.2842C53.4972 11.777 54.3109 11.5155 55.1403 11.5452H58.3473C58.4927 11.5451 58.6367 11.5736 58.7711 11.6292C58.9054 11.6848 59.0275 11.7664 59.1303 11.8692C59.2332 11.972 59.3147 12.0941 59.3703 12.2284C59.4259 12.3628 59.4544 12.5068 59.4543 12.6522V14.0792C59.4542 14.264 59.4078 14.4458 59.3194 14.6081C59.2311 14.7704 59.1035 14.9079 58.9483 15.0082C58.9605 15.0183 58.9722 15.0289 58.9833 15.0402C59.2587 15.3324 59.4717 15.6776 59.6093 16.0548C59.7468 16.4321 59.806 16.8334 59.7833 17.2342C59.7833 19.2492 58.4313 20.4542 56.1643 20.4542H53.0473C52.8305 20.4547 52.6183 20.391 52.4376 20.2713C52.2568 20.1516 52.1155 19.9811 52.0313 19.7812C51.319 20.2508 50.4778 20.4861 49.6253 20.4542H46.5073C46.3402 20.4518 46.1759 20.4108 46.0273 20.3342C45.8782 20.4103 45.7137 20.4514 45.5463 20.4542H40.2023C40.0321 20.4511 39.865 20.4083 39.7143 20.3292C39.5638 20.4099 39.396 20.4528 39.2253 20.4542H37.6203C37.3279 20.4542 37.0474 20.3386 36.84 20.1325C36.6326 19.9264 36.5151 19.6466 36.5133 19.3542V18.3792C36.5133 18.2842 36.5133 18.1412 36.5133 18.0212C36.4383 18.0212 36.3343 18.0112 36.1873 18.0112H35.5873V19.3542C35.586 19.6468 35.4687 19.9269 35.2612 20.1331C35.0536 20.3393 34.7728 20.4548 34.4803 20.4542H32.8673C32.5747 20.4548 32.2939 20.3393 32.0864 20.1331C31.8789 19.9269 31.7616 19.6468 31.7603 19.3542V17.6542C31.0146 18.0578 30.1734 18.2514 29.3263 18.2142H28.4363V19.3572C28.435 19.6498 28.3177 19.9299 28.1102 20.1361C27.9026 20.3423 27.6218 20.4578 27.3293 20.4572H24.2183C24.062 20.4577 23.9074 20.4248 23.7648 20.3609C23.6222 20.2969 23.4949 20.2033 23.3913 20.0862L22.2313 18.7862L21.0093 20.1082C20.9062 20.2205 20.7808 20.3102 20.6412 20.3715C20.5016 20.4328 20.3508 20.4643 20.1983 20.4642L13.8573 20.4582ZM40.2023 19.3512H45.5433V17.9622L41.7943 17.9542V16.6242H45.4523V15.2562H41.7953V14.0372H45.5443V12.6532H40.2023V19.3512ZM36.1863 16.9062C36.7723 16.9062 37.1283 16.9622 37.3583 17.2012C37.6583 17.5132 37.6193 18.1112 37.6193 18.5132V19.3522H39.2253V18.0232C39.2742 17.5978 39.181 17.1682 38.9603 16.8012C38.7599 16.5424 38.4891 16.3469 38.1803 16.2382C38.5263 16.0884 38.8194 15.8382 39.0215 15.52C39.2237 15.2017 39.3257 14.8301 39.3143 14.4532C39.3341 14.1527 39.267 13.8528 39.1211 13.5893C38.9752 13.3258 38.7565 13.1099 38.4913 12.9672C37.8854 12.7039 37.2234 12.5959 36.5653 12.6532H32.8653V19.3532H34.4743V16.9062H36.1863ZM24.2193 19.3482H27.3303V17.1012H29.3303C30.7303 17.1012 32.1183 16.7182 32.1183 14.8602C32.1183 13.0022 30.6893 12.6492 29.4183 12.6492H24.3023L22.2653 14.8492L20.2933 12.6492H13.8573V19.3492H20.2023L22.2513 17.1332L24.2193 19.3482ZM53.0493 19.3482H56.1673C57.7763 19.3562 58.6753 18.6832 58.6753 17.2392C58.6975 16.9822 58.6664 16.7234 58.5838 16.479C58.5012 16.2347 58.3689 16.01 58.1953 15.8192C57.6761 15.4147 57.0229 15.2221 56.3673 15.2802L55.5073 15.2552C55.2965 15.2656 55.0855 15.2399 54.8833 15.1792C54.7899 15.1407 54.7085 15.0778 54.6478 14.9971C54.5871 14.9163 54.5492 14.8207 54.5382 14.7203C54.5271 14.6198 54.5433 14.5183 54.585 14.4262C54.6268 14.3342 54.6925 14.2551 54.7753 14.1972C54.9719 14.0911 55.1965 14.0485 55.4183 14.0752H58.3533V12.6442H55.1463C53.4663 12.6442 52.8573 13.6642 52.8573 14.6382C52.8573 16.7562 54.7323 16.6612 56.2283 16.7102C56.4299 16.6891 56.6324 16.7417 56.7983 16.8582C56.8614 16.913 56.9116 16.981 56.9453 17.0574C56.979 17.1338 56.9954 17.2167 56.9933 17.3002C56.9937 17.3821 56.9773 17.4633 56.9451 17.5386C56.9129 17.6139 56.8657 17.6819 56.8063 17.7382C56.618 17.8737 56.3855 17.933 56.1553 17.9042H53.0493V19.3482ZM46.5083 19.3482H49.6263C51.2353 19.3562 52.1323 18.6832 52.1323 17.2392C52.155 16.9821 52.124 16.7231 52.0412 16.4786C51.9584 16.2342 51.8256 16.0096 51.6513 15.8192C51.1327 15.4152 50.4802 15.2226 49.8253 15.2802L48.9653 15.2552C48.7545 15.2656 48.5434 15.2399 48.3413 15.1792C48.2474 15.1413 48.1655 15.0785 48.1043 14.9978C48.0432 14.917 48.0051 14.8212 47.994 14.7205C47.9829 14.6198 47.9993 14.518 48.0414 14.4259C48.0836 14.3337 48.1499 14.2547 48.2333 14.1972C48.4296 14.0913 48.6538 14.0487 48.8753 14.0752H51.8123V12.6442H48.6023C46.9223 12.6442 46.3133 13.6642 46.3133 14.6382C46.3133 16.7562 48.1893 16.6612 49.6843 16.7102C49.8859 16.6895 50.0882 16.7421 50.2543 16.8582C50.3174 16.913 50.3676 16.981 50.4013 17.0574C50.435 17.1338 50.4514 17.2167 50.4493 17.3002C50.4497 17.3821 50.4333 17.4633 50.4011 17.5386C50.3689 17.6139 50.3217 17.6819 50.2623 17.7382C50.0732 17.8737 49.8401 17.933 49.6093 17.9042H46.5093L46.5083 19.3482ZM23.2783 16.0172L25.7373 13.3772V18.7472L23.2783 16.0172ZM15.4553 17.9602V16.6182H18.9683V15.2552H15.4563V14.0382H19.4673L21.2183 15.9872L19.3903 17.9552L15.4553 17.9602ZM27.3323 15.7422V14.0362H29.4193C29.9983 14.0362 30.3963 14.2712 30.3983 14.8602C30.4003 15.4492 30.0153 15.7422 29.3983 15.7422H27.3323ZM34.4773 15.5422V14.0422H36.4493C36.71 14.0184 36.9726 14.06 37.2133 14.1632C37.3199 14.2215 37.4078 14.3088 37.4669 14.415C37.526 14.5212 37.5539 14.6419 37.5473 14.7632C37.5535 14.8902 37.5262 15.0165 37.4681 15.1296C37.41 15.2426 37.3231 15.3384 37.2163 15.4072C36.9682 15.5215 36.6943 15.5684 36.4223 15.5432L34.4773 15.5422ZM13.0023 8.92824C12.7882 8.92807 12.5787 8.86582 12.3993 8.74904C12.2198 8.63225 12.0781 8.46593 11.9913 8.27024L11.7813 7.79524V7.81824C11.7813 7.96343 11.7527 8.1072 11.6971 8.24133C11.6415 8.37546 11.56 8.49732 11.4573 8.59994C11.3546 8.70257 11.2326 8.78394 11.0985 8.83941C10.9643 8.89488 10.8205 8.92337 10.6753 8.92324H7.41528C7.19624 8.92433 6.98186 8.86001 6.7996 8.73851C6.61735 8.617 6.47552 8.44385 6.39228 8.24124L6.05928 7.43224H4.20228L3.86428 8.24624C3.78049 8.44756 3.63905 8.61962 3.45774 8.74079C3.27643 8.86196 3.06335 8.92683 2.84528 8.92724H1.10828C0.924846 8.92862 0.743974 8.8841 0.582131 8.79774C0.420289 8.71137 0.282615 8.58591 0.18164 8.43275C0.0806644 8.2796 0.0195945 8.10363 0.00398818 7.92085C-0.0116181 7.73807 0.0187348 7.55429 0.0922843 7.38624L2.95728 0.688237C3.04284 0.489437 3.18474 0.320046 3.36548 0.200979C3.54621 0.0819124 3.75786 0.0183835 3.97428 0.0182365H6.35128C6.56746 0.0183661 6.77887 0.0817867 6.95941 0.200672C7.13996 0.319556 7.28175 0.488703 7.36728 0.687237L7.96728 2.08724V1.12524C7.96715 0.979826 7.9957 0.835817 8.05128 0.70145C8.10687 0.567084 8.1884 0.444997 8.29122 0.342176C8.39404 0.239355 8.51613 0.157819 8.6505 0.102234C8.78487 0.0466486 8.92887 0.018105 9.07428 0.0182365H11.6873C11.8978 0.0195624 12.1036 0.0807174 12.2806 0.194567C12.4577 0.308417 12.5987 0.470267 12.6873 0.661237L13.7343 2.93524L14.6903 0.694237C14.7743 0.494864 14.9149 0.32453 15.0948 0.204362C15.2747 0.0841934 15.4859 0.0194762 15.7023 0.0182365H18.3703C18.5857 0.0238397 18.7946 0.0934649 18.9703 0.218237C19.1458 0.0931908 19.3548 0.0235368 19.5703 0.0182365H24.9163C25.1132 0.0230616 25.3049 0.0822426 25.4703 0.189237C25.6357 0.0830731 25.8268 0.0239576 26.0233 0.0182365H29.7023C30.5629 -0.0577176 31.4278 0.104535 32.2023 0.487237C32.2719 0.535023 32.3386 0.586776 32.4023 0.642237C32.491 0.45728 32.6298 0.300832 32.8028 0.190565C32.9758 0.080298 33.1761 0.0206075 33.3813 0.0182365H35.0163C35.278 0.0202768 35.5303 0.11634 35.7271 0.288901C35.9239 0.461462 36.0521 0.69902 36.0883 0.958237C36.9394 0.284289 38.0099 -0.050581 39.0933 0.0182365H40.6393C40.8783 0.0175858 41.1111 0.0948149 41.3023 0.238237C41.4927 0.0954322 41.7243 0.0182365 41.9623 0.0182365H44.3623C44.5786 0.0177397 44.7903 0.0810347 44.9708 0.200205C45.1513 0.319375 45.2927 0.48913 45.3773 0.688237L45.9653 2.06324V1.12324C45.9655 0.830427 46.0819 0.54967 46.2889 0.342529C46.4958 0.135387 46.7765 0.0187659 47.0693 0.0182365H49.5093C49.6995 0.018822 49.8864 0.0682308 50.052 0.161731C50.2176 0.255232 50.3565 0.389692 50.4553 0.552236L51.2153 1.81424V1.12424C51.2153 0.97891 51.2439 0.835009 51.2996 0.700758C51.3552 0.566506 51.4368 0.444537 51.5396 0.341823C51.6424 0.239108 51.7644 0.157661 51.8987 0.102139C52.033 0.0466157 52.177 0.0181051 52.3223 0.0182365H53.9603C54.2535 0.0185013 54.5347 0.135111 54.7421 0.342469C54.9494 0.549827 55.066 0.830988 55.0663 1.12424V7.81824C55.0669 7.96385 55.0388 8.10816 54.9835 8.24287C54.9282 8.37758 54.8468 8.50003 54.7441 8.60318C54.6413 8.70633 54.5191 8.78815 54.3846 8.84394C54.2501 8.89972 54.1059 8.92837 53.9603 8.92824H51.6943C51.5037 8.92819 51.3163 8.87902 51.1503 8.78549C50.9842 8.69195 50.8451 8.5572 50.7463 8.39424L49.7643 6.76524V7.81824C49.7649 7.96385 49.7368 8.10816 49.6815 8.24287C49.6262 8.37758 49.5448 8.50003 49.4421 8.60318C49.3393 8.70633 49.2171 8.78815 49.0826 8.84394C48.9481 8.89972 48.8039 8.92837 48.6583 8.92824H45.4023C45.184 8.92843 44.9705 8.86395 44.7888 8.74293C44.607 8.62191 44.4653 8.44977 44.3813 8.24824L44.0433 7.43424H42.1973L41.8713 8.23424C41.79 8.43843 41.6493 8.61359 41.4675 8.73711C41.2857 8.86063 41.0711 8.92685 40.8513 8.92724H38.9763C37.9371 8.96342 36.9159 8.64965 36.0763 8.03624C36.0297 8.28523 35.8979 8.51026 35.7036 8.67281C35.5093 8.83536 35.2646 8.9253 35.0113 8.92724H33.3803C33.2053 8.92337 33.0338 8.8774 32.8803 8.79324C32.727 8.87792 32.5554 8.92392 32.3803 8.92724H30.7693C30.477 8.92698 30.1966 8.81123 29.9893 8.60519C29.7819 8.39916 29.6644 8.11953 29.6623 7.82724L29.6563 6.98224V6.83524C29.6563 6.74524 29.6563 6.61024 29.6513 6.49724C29.5783 6.49724 29.4793 6.48824 29.3403 6.48824H28.7283V7.82324C28.7283 8.11657 28.6118 8.39788 28.4043 8.6053C28.1969 8.81271 27.9156 8.92924 27.6223 8.92924H26.0223C25.8251 8.92403 25.6332 8.86489 25.4673 8.75824C25.3019 8.86518 25.1102 8.92436 24.9133 8.92924H19.5673C19.3519 8.92351 19.143 8.8539 18.9673 8.72924C18.7914 8.85363 18.5826 8.92321 18.3673 8.92924H16.7333C16.5883 8.93003 16.4446 8.90216 16.3105 8.84723C16.1763 8.79231 16.0544 8.71141 15.9516 8.60918C15.8488 8.50696 15.7672 8.38543 15.7116 8.25158C15.6559 8.11773 15.6273 7.9742 15.6273 7.82924V7.79724L15.4153 8.27124C15.3293 8.46766 15.1878 8.63468 15.0082 8.75176C14.8286 8.86884 14.6187 8.93087 14.4043 8.93024L13.0023 8.92824ZM51.6933 7.81824H53.9613V1.11824H52.3223V5.78824L49.5093 1.11824H47.0693V7.45724L44.3613 1.11824H41.9613L39.7023 6.38924H38.9853C38.5824 6.42411 38.1818 6.29992 37.8693 6.04324C37.5357 5.59079 37.3786 5.03224 37.4273 4.47224C37.3873 3.92689 37.5508 3.38607 37.8863 2.95424C38.05 2.80205 38.245 2.68742 38.4576 2.61834C38.6702 2.54925 38.8954 2.52738 39.1173 2.55424H40.6323V1.11824H39.0863C38.6494 1.077 38.2087 1.12487 37.7908 1.25895C37.3729 1.39302 36.9866 1.61051 36.6553 1.89824C36.3472 2.25736 36.1129 2.67369 35.9659 3.12343C35.8188 3.57316 35.7619 4.04747 35.7983 4.51924C35.7571 4.98166 35.8122 5.44761 35.96 5.88769C36.1079 6.32778 36.3453 6.73246 36.6573 7.07624C37.3097 7.60371 38.1359 7.86772 38.9733 7.81624H40.8483L41.4483 6.32224H44.7753L45.4023 7.81824H48.6593V2.79424L51.6933 7.81824ZM33.3813 7.81824H35.0163V1.11824H33.3813V7.81824ZM26.0203 7.81824H27.6203V5.38424H29.3363C29.5401 5.35284 29.748 5.36195 29.9483 5.41102C30.1485 5.4601 30.3371 5.54818 30.5033 5.67024C30.7315 6.06275 30.8203 6.52088 30.7553 6.97024L30.7633 7.81524H32.3783V6.50524C32.4302 6.07764 32.3365 5.64503 32.1123 5.27724C31.9024 5.02248 31.6288 4.82788 31.3193 4.71324C31.6645 4.56264 31.9567 4.31214 32.1583 3.99401C32.3598 3.67588 32.4615 3.30468 32.4503 2.92824C32.4718 2.62925 32.4069 2.33038 32.2633 2.06727C32.1196 1.80415 31.9034 1.58788 31.6403 1.44424C31.034 1.16788 30.3652 1.05745 29.7023 1.12424H26.0203V7.81824ZM19.5653 7.81824H24.9123V6.43524H21.1663V5.09724H24.8243V3.72524H21.1663V2.51824H24.9123V1.11824H19.5663L19.5653 7.81824ZM16.7313 7.81824H18.3723V1.11824H15.7023L13.7813 5.66624L11.6863 1.11824H9.07228V7.46524L6.34828 1.11824H3.97228L1.10228 7.81824H2.84228L3.46428 6.32424H6.80228L7.41428 7.81824H10.6723V2.57024L13.0023 7.81824H14.4023L16.7233 2.57224L16.7313 7.81824ZM38.6643 3.74724C38.5669 3.97632 38.5235 4.2247 38.5373 4.47324C38.5178 4.7396 38.5613 5.00682 38.6643 5.25324C38.7676 5.27661 38.8734 5.28735 38.9793 5.28524L39.6743 3.66424H39.1253C38.7493 3.66424 38.7103 3.70224 38.6643 3.74724ZM42.0263 4.93124L43.1263 2.26224L44.2373 4.93124H42.0263ZM4.03828 4.93124L5.12528 2.26224L6.22528 4.93124H4.03828ZM27.6223 4.00624V2.51824H29.5943C29.8533 2.49853 30.1133 2.53997 30.3533 2.63924C30.4616 2.69356 30.5514 2.77882 30.6112 2.88421C30.671 2.9896 30.6982 3.11038 30.6893 3.23124C30.698 3.35733 30.6718 3.48339 30.6136 3.59559C30.5554 3.70778 30.4674 3.80177 30.3593 3.86724C30.1129 3.98368 29.8395 4.03103 29.5683 4.00424L27.6223 4.00624Z" fill="currentColor"/>

</symbol>

  <symbol id="icon-mastercard" viewBox="0 0 33 28">
<path d="M6.985 25.775C6.97578 25.9356 7.0146 26.0954 7.09651 26.2338C7.17843 26.3723 7.29972 26.4833 7.44494 26.5525C7.59015 26.6218 7.75271 26.6462 7.91187 26.6228C8.07104 26.5993 8.21961 26.5289 8.33864 26.4207C8.45767 26.3124 8.54177 26.1712 8.58021 26.015C8.61865 25.8587 8.60969 25.6946 8.55449 25.5435C8.49928 25.3924 8.40031 25.2611 8.27021 25.1664C8.14012 25.0718 7.98478 25.018 7.824 25.012C7.71875 25.0068 7.61351 25.0224 7.51431 25.0579C7.4151 25.0935 7.32391 25.1483 7.24594 25.2192C7.16798 25.2901 7.1048 25.3757 7.06002 25.471C7.01524 25.5664 6.98974 25.6697 6.985 25.775ZM9.151 24.437V27.112H8.569V26.787C8.46973 26.9151 8.3412 27.0176 8.19418 27.0858C8.04715 27.154 7.88592 27.1859 7.724 27.179C7.36433 27.1598 7.02573 27.0034 6.77792 26.742C6.53012 26.4806 6.39199 26.1342 6.39199 25.774C6.39199 25.4138 6.53012 25.0674 6.77792 24.806C7.02573 24.5446 7.36433 24.3882 7.724 24.369C7.88592 24.3621 8.04715 24.394 8.19418 24.4622C8.3412 24.5304 8.46973 24.6329 8.569 24.761V24.436L9.151 24.437ZM28.807 25.775C28.7978 25.9356 28.8366 26.0954 28.9185 26.2338C29.0004 26.3723 29.1217 26.4833 29.2669 26.5525C29.4122 26.6218 29.5747 26.6462 29.7339 26.6228C29.893 26.5993 30.0416 26.5289 30.1606 26.4207C30.2797 26.3124 30.3638 26.1712 30.4022 26.015C30.4406 25.8587 30.4317 25.6946 30.3765 25.5435C30.3213 25.3924 30.2223 25.2611 30.0922 25.1664C29.9621 25.0718 29.8068 25.018 29.646 25.012C29.5408 25.0068 29.4355 25.0224 29.3363 25.0579C29.2371 25.0935 29.1459 25.1483 29.0679 25.2192C28.99 25.2901 28.9268 25.3757 28.882 25.471C28.8372 25.5664 28.8117 25.6697 28.807 25.775ZM30.973 23.362V27.111H30.39V26.786C30.2907 26.9141 30.1622 27.0166 30.0152 27.0848C29.8682 27.153 29.7069 27.1849 29.545 27.178C29.1853 27.1588 28.8467 27.0024 28.5989 26.741C28.3511 26.4796 28.213 26.1332 28.213 25.773C28.213 25.4128 28.3511 25.0664 28.5989 24.805C28.8467 24.5436 29.1853 24.3872 29.545 24.368C29.7069 24.3611 29.8682 24.393 30.0152 24.4612C30.1622 24.5294 30.2907 24.6319 30.39 24.76V23.36L30.973 23.362ZM16.373 24.89C16.1932 24.884 16.0182 24.9485 15.8854 25.0697C15.7525 25.191 15.6723 25.3594 15.662 25.539H17.05C17.0458 25.3631 16.9719 25.196 16.8446 25.0745C16.7173 24.953 16.5469 24.887 16.371 24.891L16.373 24.89ZM16.384 24.368C16.5617 24.3691 16.7373 24.407 16.8995 24.4795C17.0618 24.552 17.2072 24.6573 17.3266 24.789C17.446 24.9206 17.5368 25.0756 17.5931 25.2441C17.6495 25.4126 17.6702 25.591 17.654 25.768C17.654 25.846 17.648 25.919 17.642 25.992H15.654C15.6762 26.1837 15.7721 26.3592 15.9214 26.4815C16.0707 26.6037 16.2617 26.6631 16.454 26.647C16.7372 26.6425 17.0109 26.544 17.232 26.367L17.517 26.798C17.209 27.0542 16.8173 27.1878 16.417 27.173C16.0527 27.1653 15.7057 27.0164 15.449 26.7579C15.1923 26.4993 15.046 26.1512 15.0409 25.7868C15.0359 25.4225 15.1724 25.0704 15.4219 24.8048C15.6713 24.5392 16.0141 24.3808 16.378 24.363L16.384 24.368ZM23.408 25.768C23.3988 25.9286 23.4376 26.0884 23.5195 26.2268C23.6014 26.3653 23.7227 26.4763 23.8679 26.5455C24.0132 26.6148 24.1757 26.6392 24.3349 26.6158C24.494 26.5923 24.6426 26.5219 24.7616 26.4137C24.8807 26.3054 24.9648 26.1642 25.0032 26.008C25.0417 25.8517 25.0327 25.6876 24.9775 25.5365C24.9223 25.3854 24.8233 25.2541 24.6932 25.1594C24.5631 25.0648 24.4078 25.011 24.247 25.005C24.1418 24.9998 24.0365 25.0154 23.9373 25.0509C23.8381 25.0865 23.7469 25.1413 23.6689 25.2122C23.591 25.2831 23.5278 25.3687 23.483 25.464C23.4382 25.5594 23.4127 25.6627 23.408 25.768ZM25.574 24.43V27.111H24.99V26.786C24.8907 26.9141 24.7621 27.0165 24.6151 27.0847C24.4681 27.1529 24.3069 27.1849 24.145 27.178C23.7853 27.1588 23.4467 27.0024 23.1989 26.741C22.9511 26.4796 22.813 26.1332 22.813 25.773C22.813 25.4128 22.9511 25.0664 23.1989 24.805C23.4467 24.5436 23.7853 24.3872 24.145 24.368C24.3069 24.3611 24.4681 24.3931 24.6151 24.4613C24.7621 24.5295 24.8907 24.6319 24.99 24.76V24.435L25.574 24.43ZM20.123 25.768C20.1159 25.5799 20.1481 25.3924 20.2177 25.2175C20.2872 25.0427 20.3925 24.8842 20.5269 24.7524C20.6612 24.6206 20.8217 24.5183 20.9978 24.4521C21.174 24.3859 21.3621 24.3573 21.55 24.368C21.8993 24.3505 22.2424 24.4643 22.512 24.687L22.233 25.157C22.0317 25.0034 21.7862 24.9189 21.533 24.916C21.3146 24.9289 21.1094 25.0248 20.9593 25.184C20.8093 25.3432 20.7257 25.5537 20.7257 25.7725C20.7257 25.9913 20.8093 26.2018 20.9593 26.361C21.1094 26.5202 21.3146 26.6161 21.533 26.629C21.7862 26.6262 22.0317 26.5417 22.233 26.388L22.512 26.858C22.2424 27.0807 21.8993 27.1945 21.55 27.177C21.3621 27.1877 21.174 27.1591 20.9978 27.0929C20.8217 27.0267 20.6612 26.9244 20.5269 26.7926C20.3925 26.6608 20.2872 26.5023 20.2177 26.3275C20.1481 26.1526 20.1159 25.9651 20.123 25.777V25.768ZM27.623 24.368C27.7642 24.3686 27.9042 24.3933 28.037 24.441L27.858 24.989C27.7423 24.9429 27.6186 24.9201 27.494 24.922C27.114 24.922 26.923 25.168 26.923 25.611V27.111H26.34V24.436H26.916V24.761C26.9873 24.6387 27.0902 24.5377 27.2138 24.4688C27.3375 24.3998 27.4774 24.3653 27.619 24.369L27.623 24.368ZM12.031 24.65L11.778 25.12C11.524 24.9741 11.2369 24.8953 10.944 24.891C10.625 24.891 10.435 25.009 10.435 25.204C10.435 25.383 10.635 25.434 10.889 25.467L11.163 25.507C11.745 25.591 12.098 25.837 12.098 26.307C12.098 26.816 11.65 27.18 10.878 27.18C10.4651 27.1912 10.0596 27.0695 9.721 26.833L9.995 26.38C10.2518 26.5706 10.5653 26.6693 10.885 26.66C11.285 26.66 11.495 26.542 11.495 26.335C11.495 26.184 11.344 26.1 11.025 26.055L10.75 26.016C10.15 25.932 9.827 25.663 9.827 25.227C9.827 24.695 10.263 24.371 10.941 24.371C11.3223 24.3588 11.6991 24.456 12.027 24.651L12.031 24.65ZM19.536 24.37C19.6775 24.3705 19.8178 24.3952 19.951 24.443L19.772 24.991C19.6563 24.9449 19.5326 24.9221 19.408 24.924C19.028 24.924 18.837 25.17 18.837 25.613V27.113H18.255V24.438H18.832V24.763C18.9028 24.6406 19.0053 24.5396 19.1286 24.4704C19.252 24.4013 19.3916 24.3666 19.533 24.37H19.536ZM14.572 24.437V24.969H13.621V26.178C13.621 26.446 13.716 26.626 14.007 26.626C14.1887 26.6199 14.3658 26.568 14.522 26.475L14.69 26.975C14.4717 27.1112 14.2193 27.183 13.962 27.182C13.274 27.182 13.033 26.812 13.033 26.192V24.972H12.49V24.44H13.032V23.628H13.62V24.44L14.572 24.437ZM5.872 27.112H5.283V25.623C5.283 25.169 5.093 24.918 4.696 24.918C4.60396 24.9137 4.51211 24.9297 4.42689 24.9647C4.34167 24.9998 4.26516 25.053 4.20274 25.1208C4.14031 25.1886 4.09348 25.2692 4.06554 25.357C4.0376 25.4448 4.02922 25.5376 4.041 25.629V27.112H3.453V25.623C3.453 25.169 3.253 24.918 2.871 24.918C2.77873 24.9128 2.68645 24.9282 2.60081 24.9629C2.51517 24.9976 2.43828 25.0509 2.37566 25.1189C2.31304 25.1869 2.26625 25.2678 2.23865 25.356C2.21104 25.4442 2.20331 25.5375 2.216 25.629V27.112H1.629V24.437H2.211V24.767C2.29535 24.6379 2.41197 24.533 2.54931 24.4629C2.68665 24.3927 2.83995 24.3597 2.994 24.367C3.17054 24.3595 3.34585 24.3997 3.50143 24.4835C3.65701 24.5673 3.78711 24.6915 3.878 24.843C3.97779 24.6868 4.11764 24.5603 4.28297 24.4766C4.4483 24.3929 4.63307 24.355 4.818 24.367C4.9591 24.3594 5.10022 24.3817 5.23206 24.4326C5.3639 24.4834 5.48346 24.5617 5.58286 24.6621C5.68226 24.7626 5.75924 24.8829 5.80873 25.0153C5.85823 25.1476 5.87911 25.289 5.87 25.43L5.872 27.112ZM17.115 1.834C17.038 1.77 17.008 1.722 17.015 1.68C18.5436 0.670083 20.3173 0.0930998 22.1475 0.0103516C23.9778 -0.0723966 25.7962 0.342181 27.4098 1.21004C29.0233 2.0779 30.3716 3.36662 31.3115 4.9393C32.2513 6.51199 32.7476 8.30989 32.7476 10.142C32.7476 11.9741 32.2513 13.772 31.3115 15.3447C30.3716 16.9174 29.0233 18.2061 27.4098 19.074C25.7962 19.9418 23.9778 20.3564 22.1475 20.2737C20.3173 20.1909 18.5436 19.6139 17.015 18.604C17.0352 18.5642 17.0647 18.5299 17.101 18.504C17.4956 18.1804 17.8634 17.8256 18.201 17.443C19.1015 16.4288 19.8085 15.2581 20.287 13.989C20.6061 13.1523 20.8184 12.2788 20.919 11.389C21.1346 9.42367 20.8186 7.43649 20.004 5.635C19.3412 4.16559 18.3534 2.8659 17.115 1.834ZM12.482 10.128C12.4812 8.5921 12.8286 7.07601 13.498 5.69368C14.1675 4.31135 15.1415 3.09874 16.347 2.147C16.377 2.1468 16.4068 2.15252 16.4346 2.16385C16.4624 2.17517 16.4877 2.19188 16.509 2.213C17.6687 3.15645 18.608 4.34217 19.261 5.687C19.6788 6.54465 19.9708 7.45804 20.128 8.399C20.2388 9.02844 20.2901 9.66694 20.281 10.306C20.2546 11.7955 19.9042 13.2613 19.2542 14.6017C18.6042 15.9421 17.6702 17.1249 16.517 18.068C16.4799 18.1035 16.434 18.1283 16.384 18.14C15.1677 17.1887 14.1841 15.9728 13.508 14.5845C12.8319 13.1962 12.481 11.6722 12.482 10.128ZM0.0270004 9.392C0.16098 7.62682 0.753845 5.92729 1.74686 4.46177C2.73987 2.99626 4.09856 1.81563 5.68832 1.03687C7.27808 0.258105 9.04373 -0.0917669 10.8103 0.0219178C12.5769 0.135602 14.2832 0.708896 15.76 1.685C15.766 1.727 15.726 1.767 15.66 1.818C15.478 1.968 15.299 2.124 15.131 2.29C13.0681 4.29028 11.8688 7.01767 11.789 9.89C11.7685 10.7381 11.8484 11.5857 12.027 12.415C12.1933 13.2047 12.4462 13.9737 12.781 14.708C13.4508 16.1793 14.4417 17.4819 15.681 18.52C15.7102 18.542 15.7344 18.5699 15.752 18.602C14.2221 19.611 12.4478 20.1873 10.617 20.2699C8.78625 20.3525 6.96722 19.9384 5.35266 19.0714C3.73811 18.2043 2.38815 16.9167 1.44583 15.3449C0.503514 13.7731 0.00392626 11.9756 0 10.143C0 9.911 0.00900017 9.68 0.0240002 9.452C0.0270002 9.43 0.0270004 9.411 0.0270004 9.392Z" fill="currentColor"/>
  </symbol>

  <symbol id="icon-paypal" viewBox="0 0 60 17">
<path fill-rule="evenodd" clip-rule="evenodd" d="M46.361 2.918C48.499 2.818 50.832 3.696 50.346 6.318L48.985 12.637H45.875L46.069 11.568C44.417 13.317 40.14 13.22 40.821 9.333C41.307 7 43.64 6.32 47.139 6.32C47.333 5.251 46.653 5.056 45.487 5.056C44.4588 5.15954 43.447 5.38789 42.474 5.736L42.766 3.501C43.9388 3.17312 45.1447 2.97757 46.361 2.918ZM46.555 9.43C46.555 9.138 46.655 8.75 46.749 8.847H45.971C45.291 8.847 44.416 8.847 44.027 9.43C43.638 10.208 44.221 10.596 44.902 10.596C45.68 10.499 46.361 10.208 46.555 9.43ZM52.97 0.0019989H56.177L53.553 12.637H50.443L52.97 0.0019989ZM38.488 0.0019989C40.14 0.0019989 42.181 2.14 41.695 4.959C41.4949 6.06016 40.9018 7.05121 40.0259 7.74794C39.15 8.44467 38.051 8.79969 36.933 8.747H34.5L33.625 12.635H30.225L32.752 0L38.488 0.0019989ZM38.388 4.376C38.4501 4.19984 38.4663 4.01078 38.435 3.82663C38.4038 3.64248 38.3262 3.46931 38.2096 3.32345C38.0929 3.17758 37.9411 3.06382 37.7683 2.99288C37.5955 2.92195 37.4075 2.89618 37.222 2.918H35.572L34.892 5.834H36.447C36.8868 5.84086 37.3164 5.70136 37.6683 5.43744C38.0202 5.17352 38.2744 4.80014 38.391 4.376H38.388ZM16.037 2.918C18.175 2.818 20.605 3.696 20.119 6.318L18.758 12.637H15.648L15.842 11.568C14.19 13.317 10.01 13.22 10.691 9.333C11.177 7 13.51 6.32 16.911 6.32C17.105 5.251 16.425 5.056 15.259 5.056C14.2289 5.14761 13.2156 5.3763 12.246 5.736L12.538 3.501C13.676 3.16366 14.8511 2.96785 16.037 2.918ZM16.329 9.43C16.329 9.138 16.429 8.75 16.523 8.847H15.745C15.162 8.847 14.287 8.847 13.898 9.43C13.412 10.208 13.998 10.596 14.676 10.596C15.454 10.499 16.134 10.208 16.328 9.43H16.329ZM21.383 2.918H24.493L24.979 8.361L28.089 2.918H31.3L23.909 16.525H20.409L22.646 12.447L21.383 2.918ZM8.359 0.0019989C10.011 0.0019989 12.052 2.14 11.469 4.959C11.2689 6.06034 10.6756 7.05152 9.79951 7.74828C8.92342 8.44503 7.82412 8.79994 6.706 8.747H4.276L3.4 12.637H0L2.527 0.0019989H8.359ZM8.259 4.376C8.32069 4.20045 8.33684 4.01212 8.30594 3.82862C8.27504 3.64513 8.19809 3.47247 8.0823 3.32681C7.96651 3.18114 7.81566 3.06723 7.64386 2.99574C7.47207 2.92424 7.28495 2.89749 7.1 2.918H5.443L4.763 5.834H6.318C6.75764 5.84063 7.18704 5.70104 7.53873 5.43713C7.89042 5.17323 8.14448 4.79997 8.261 4.376H8.259ZM56.859 2.043V0.682999H56.373V0.488998H57.637V0.682999H57.151V2.047L56.859 2.043ZM57.831 2.043V0.487999H58.123L58.512 1.557C58.523 1.63092 58.5582 1.69912 58.612 1.751C58.612 1.651 58.612 1.651 58.712 1.459L59.101 0.389999H59.393V1.947H59.19V0.585999L58.7 1.947H58.408L57.922 0.585999V1.947H57.822L57.831 2.043Z" fill="currentColor"/>
  </symbol>


<symbol id="icon-delete" viewBox="0 0 20 22">
<path d="M1 5H19" stroke="currentColor" stroke-width="2" stroke-linecap="round" stroke-linejoin="round"/>
<path d="M17 5V19C17 19.5304 16.7893 20.0391 16.4142 20.4142C16.0391 20.7893 15.5304 21 15 21H5C4.46957 21 3.96086 20.7893 3.58579 20.4142C3.21071 20.0391 3 19.5304 3 19V5M6 5V3C6 2.46957 6.21071 1.96086 6.58579 1.58579C6.96086 1.21071 7.46957 1 8 1H12C12.5304 1 13.0391 1.21071 13.4142 1.58579C13.7893 1.96086 14 2.46957 14 3V5" stroke="currentColor" stroke-width="2" stroke-linecap="round" stroke-linejoin="round"/>
<path d="M8 10V16" stroke="currentColor" stroke-width="2" stroke-linecap="round" stroke-linejoin="round"/>
<path d="M12 10V16" stroke="currentColor" stroke-width="2" stroke-linecap="round" stroke-linejoin="round"/>
</symbol>

<symbol id="icon-filter" viewBox="0 0 14 14">
  <path 
    d="M6 10.5a.5.5 0 0 1 .5-.5h3a.5.5 0 0 1 0 1h-3a.5.5 0 0 1-.5-.5
       m-2-3a.5.5 0 0 1 .5-.5h7a.5.5 0 0 1 0 1h-7a.5.5 0 0 1-.5-.5
       m-2-3a.5.5 0 0 1 .5-.5h11a.5.5 0 0 1 0 1h-11a.5.5 0 0 1-.5-.5"
    fill="currentColor"
  />
</symbol>


<symbol id="icon-password" viewBox="0 0 18 14">
<path d="M0.100098 7.43604C0.0340938 7.29999 0 7.15072 0 6.99951C0 6.8483 0.0340938 6.69903 0.100098 6.56299C0.231098 6.29499 3.348 0 9 0C14.652 0 17.7714 6.29999 17.9004 6.56299C17.9664 6.69903 18.0005 6.8483 18.0005 6.99951C18.0005 7.15072 17.9664 7.29999 17.9004 7.43604C17.7694 7.70504 14.651 14 9 14C3.349 14 0.232098 7.70004 0.100098 7.43604ZM2.13818 6.99902C2.88618 8.28902 5.352 11.999 9 11.999C12.664 11.999 15.1193 8.29102 15.8643 6.99902C15.1163 5.70902 12.65 1.99902 9 1.99902C5.35 1.99902 2.88318 5.70602 2.13818 6.99902ZM6.33838 6.99902C6.33838 6.20337 6.65419 5.44005 7.2168 4.87744C7.77941 4.31483 8.54273 3.99902 9.33838 3.99902C10.134 3.99902 10.8969 4.31483 11.4595 4.87744C12.0221 5.44005 12.3384 6.20337 12.3384 6.99902C12.3384 7.79467 12.0221 8.55751 11.4595 9.12012C10.8969 9.68273 10.134 9.99902 9.33838 9.99902C8.5436 9.99796 7.78144 9.68142 7.21973 9.11914C6.65801 8.55686 6.34255 7.79478 6.34229 7L6.33838 6.99902ZM8.33838 6.99902C8.33838 7.26424 8.44332 7.51852 8.63086 7.70605C8.8184 7.89359 9.07316 7.99902 9.33838 7.99902C9.6036 7.99902 9.85787 7.89359 10.0454 7.70605C10.2329 7.51852 10.3384 7.26424 10.3384 6.99902C10.3384 6.73381 10.2329 6.47953 10.0454 6.29199C9.85787 6.10446 9.6036 5.99902 9.33838 5.99902C9.07368 6.00008 8.82 6.10582 8.6333 6.29346C8.4466 6.48109 8.34202 6.7353 8.34229 7L8.33838 6.99902Z" fill="currentColor"/>
</symbol>


<symbol id="icon-close" viewBox="0 0 16 16">
  <path 
    d="M2.146 2.854a.5.5 0 1 1 .708-.708L8 7.293l5.146-5.147a.5.5 0 0 1 .708.708L8.707 8l5.147 5.146a.5.5 0 0 1-.708.708L8 8.707l-5.146 5.147a.5.5 0 0 1-.708-.708L7.293 8z"
    fill="currentColor"
  />
</symbol>


    </svg>