 <svg xmlns="http://www.w3.org/2000/svg">
      <symbol id="icon-phone" viewBox="0 0 24 24">
        <path
          d="M20.7868 24C20.6868 24 20.5938 24 20.4978 23.987H20.4798C16.9238 23.5973 13.5075 22.3846 10.5018 20.445C7.71245 18.6698 5.34459 16.3067 3.56377 13.521C1.61307 10.5086 0.396776 7.08027 0.0127666 3.512V3.496C-0.026923 3.05231 0.0261711 2.60521 0.168671 2.18315C0.311171 1.76109 0.539957 1.37331 0.840475 1.04449C1.14099 0.715657 1.50666 0.452976 1.91422 0.273155C2.32178 0.0933345 2.7623 0.000309985 3.20777 0H6.54977C7.32237 0.00287933 8.06828 0.282943 8.65186 0.789263C9.23544 1.29558 9.61793 1.99453 9.72977 2.759V2.768C9.86024 3.75308 10.1018 4.72024 10.4498 5.651C10.6644 6.22521 10.7103 6.84883 10.582 7.44826C10.4537 8.0477 10.1566 8.59792 9.72577 9.034L8.87377 9.884C10.2041 11.9884 11.9883 13.7685 14.0958 15.094L14.9498 14.242C15.3867 13.8109 15.938 13.514 16.5384 13.3862C17.1387 13.2584 17.7631 13.3052 18.3378 13.521C19.2704 13.8681 20.2392 14.109 21.2258 14.239H21.2348C22.0123 14.348 22.7229 14.7382 23.2321 15.3358C23.7413 15.9335 24.0137 16.697 23.9978 17.482V20.782C23.9988 21.2043 23.9165 21.6227 23.7556 22.0131C23.5947 22.4035 23.3583 22.7584 23.0601 23.0573C22.7618 23.3563 22.4074 23.5934 22.0173 23.7552C21.6272 23.9169 21.2091 24.0001 20.7868 24ZM20.6868 22C20.8541 22.0143 21.0225 21.9936 21.1814 21.9393C21.3403 21.885 21.4862 21.7983 21.6097 21.6846C21.7333 21.5709 21.8319 21.4327 21.8992 21.2789C21.9665 21.1251 22.0011 20.9589 22.0008 20.791V17.471C22.0008 17.463 22.0008 17.4547 22.0008 17.446C22.0076 17.1502 21.9058 16.8621 21.7145 16.6363C21.5232 16.4105 21.2557 16.2628 20.9628 16.221C19.8279 16.0712 18.7136 15.7942 17.6408 15.395C17.4237 15.313 17.1878 15.2949 16.9608 15.3427C16.7338 15.3906 16.5252 15.5024 16.3598 15.665L14.9598 17.065C14.805 17.2195 14.6038 17.319 14.3871 17.3483C14.1703 17.3775 13.95 17.3349 13.7598 17.227C10.8352 15.567 8.41276 13.1487 6.74777 10.227C6.63983 10.0368 6.59723 9.81643 6.62649 9.59969C6.65575 9.38295 6.75526 9.18178 6.90977 9.027L8.30977 7.627C8.4712 7.46289 8.58237 7.25607 8.63021 7.03089C8.67804 6.80572 8.66054 6.57156 8.57977 6.356C8.17932 5.28476 7.90122 4.1717 7.75077 3.038C7.70812 2.7498 7.56342 2.4865 7.34301 2.29599C7.12259 2.10549 6.8411 2.00046 6.54977 2H3.20877C3.04143 1.99998 2.8759 2.03467 2.72265 2.10188C2.5694 2.16909 2.43176 2.26735 2.31842 2.39047C2.20508 2.51358 2.11851 2.65886 2.06418 2.81714C2.00985 2.97541 1.98894 3.14323 2.00277 3.31C2.35409 6.56277 3.46347 9.6878 5.24177 12.434V12.441C6.86568 14.9826 9.02582 17.1383 11.5708 18.757H11.5788C14.3216 20.5309 17.44 21.6413 20.6868 22Z"
          fill="currentColor"
        />
      </symbol>

      <symbol id="icon-mail" viewBox="0 0 24 18">
        <path
          d="M3.2 18.0017C2.38106 18.0287 1.58472 17.7304 0.985082 17.172C0.385441 16.6136 0.0312723 15.8405 0 15.0217L0 2.98069C0.0315299 2.16208 0.385811 1.38922 0.985424 0.831021C1.58504 0.272819 2.38122 -0.0253433 3.2 0.00169018H20.8C21.6188 -0.0253433 22.415 0.272819 23.0146 0.831021C23.6142 1.38922 23.9685 2.16208 24 2.98069V15.0217C23.9687 15.8405 23.6146 16.6136 23.0149 17.172C22.4153 17.7304 21.6189 18.0287 20.8 18.0017H3.2ZM2 15.0217C2.02748 15.3158 2.16784 15.5878 2.39159 15.7806C2.61534 15.9734 2.90509 16.072 3.2 16.0557H20.8C21.0949 16.072 21.3847 15.9734 21.6084 15.7806C21.8322 15.5878 21.9725 15.3158 22 15.0217V6.83069L12.606 13.7967C12.4303 13.9257 12.218 13.9953 12 13.9953C11.782 13.9953 11.5697 13.9257 11.394 13.7967L2 6.83069V15.0217ZM12 11.8017L22 4.38369V2.98369C21.9723 2.68979 21.8318 2.41805 21.6081 2.22546C21.3844 2.03287 21.0948 1.93439 20.8 1.95069H3.2C2.90572 1.93434 2.61652 2.03241 2.39287 2.22437C2.16922 2.41634 2.02845 2.68733 2 2.98069V4.38069L12 11.8017Z"
          fill="currentColor"
        />
      </symbol>

      <symbol id="icon-clock" viewBox="0 0 27 27">
        <path
          d="M3.89403 22.9855C1.38872 20.4484 -0.0111338 17.0232 6.66984e-05 13.4576C0.0112672 9.892 1.43261 6.47564 3.95381 3.95431C6.47501 1.43298 9.8913 0.0114562 13.4569 6.89412e-05C17.0225 -0.0113183 20.4478 1.38835 22.985 3.89353C25.4903 6.43065 26.8902 9.85588 26.879 13.4215C26.8678 16.9871 25.4464 20.4034 22.9252 22.9248C20.404 25.4461 16.9878 26.8676 13.4222 26.879C9.85658 26.8904 6.43128 25.4907 3.89403 22.9855ZM5.30803 5.30853C4.22702 6.37346 3.36747 7.64181 2.7789 9.04046C2.19034 10.4391 1.8844 11.9404 1.87872 13.4579C1.87303 14.9753 2.16772 16.4789 2.7458 17.8819C3.32388 19.2849 4.17391 20.5597 5.24691 21.6326C6.3199 22.7056 7.59465 23.5557 8.99767 24.1338C10.4007 24.7118 11.9043 25.0065 13.4217 25.0008C14.9391 24.9952 16.4404 24.6892 17.8391 24.1007C19.2377 23.5121 20.5061 22.6525 21.571 21.5715C22.652 20.5066 23.5116 19.2383 24.1001 17.8396C24.6887 16.4409 24.9947 14.9396 25.0003 13.4222C25.006 11.9048 24.7113 10.4012 24.1333 8.99818C23.5552 7.59515 22.7051 6.32041 21.6321 5.24741C20.5591 4.17441 19.2844 3.32438 17.8814 2.7463C16.4784 2.16823 14.9748 1.87354 13.4574 1.87922C11.9399 1.8849 10.4386 2.19084 9.03996 2.77941C7.6413 3.36797 6.37296 4.22753 5.30803 5.30853ZM17.617 16.7505L12.992 14.4395C12.825 14.3561 12.6847 14.2276 12.587 14.0685C12.4893 13.9094 12.438 13.7262 12.439 13.5395V6.60653C12.439 6.34131 12.5444 6.08696 12.7319 5.89942C12.9195 5.71189 13.1738 5.60653 13.439 5.60653C13.7042 5.60653 13.9586 5.71189 14.1461 5.89942C14.3337 6.08696 14.439 6.34131 14.439 6.60653V12.9255L18.512 14.9625C18.6325 15.0195 18.7403 15.0999 18.8292 15.1991C18.9182 15.2983 18.9864 15.4142 19.0299 15.5401C19.0734 15.6661 19.0913 15.7994 19.0825 15.9323C19.0738 16.0653 19.0385 16.1951 18.9789 16.3142C18.9193 16.4334 18.8364 16.5394 18.7353 16.626C18.6341 16.7127 18.5166 16.7783 18.3898 16.8189C18.2629 16.8596 18.1292 16.8745 17.9965 16.8627C17.8638 16.851 17.7348 16.8128 17.617 16.7505Z"
          fill="currentColor"
        />
      </symbol>

      <symbol id="icon-address" viewBox="0 0 20 24">
        <path
          d="M9.445 23.831C7.75586 22.653 6.19081 21.3065 4.774 19.812C3.5093 18.5074 2.41828 17.045 1.528 15.461C0.567745 13.798 0.0422185 11.9198 0 10C0 7.34784 1.05357 4.8043 2.92893 2.92893C4.8043 1.05357 7.34784 0 10 0C12.6522 0 15.1957 1.05357 17.0711 2.92893C18.9464 4.8043 20 7.34784 20 10C19.9582 11.9205 19.4327 13.7995 18.472 15.463C17.5818 17.047 16.4907 18.5094 15.226 19.814C13.8091 21.3084 12.2441 22.655 10.555 23.833C10.3907 23.9426 10.1975 24.0012 10 24.0012C9.80245 24.0012 9.60933 23.9426 9.445 23.833V23.831ZM2 10C2 15.414 8.1 20.364 10 21.771C11.9 20.365 18 15.415 18 10C18 7.87827 17.1571 5.84344 15.6569 4.34315C14.1566 2.84285 12.1217 2 10 2C7.87827 2 5.84344 2.84285 4.34315 4.34315C2.84285 5.84344 2 7.87827 2 10ZM6 10C6 9.20887 6.2346 8.43552 6.67412 7.77772C7.11365 7.11992 7.73836 6.60723 8.46927 6.30448C9.20017 6.00173 10.0044 5.92252 10.7804 6.07686C11.5563 6.2312 12.269 6.61216 12.8284 7.17157C13.3878 7.73098 13.7688 8.44372 13.9231 9.21964C14.0775 9.99556 13.9983 10.7998 13.6955 11.5307C13.3928 12.2616 12.8801 12.8864 12.2223 13.3259C11.5645 13.7654 10.7911 14 10 14C8.9397 13.9981 7.92336 13.5761 7.17362 12.8264C6.42387 12.0766 6.00185 11.0603 6 10ZM8 10C8 10.3956 8.1173 10.7822 8.33706 11.1111C8.55682 11.44 8.86918 11.6964 9.23463 11.8478C9.60009 11.9991 10.0022 12.0387 10.3902 11.9616C10.7781 11.8844 11.1345 11.6939 11.4142 11.4142C11.6939 11.1345 11.8844 10.7781 11.9616 10.3902C12.0387 10.0022 11.9991 9.60009 11.8478 9.23463C11.6964 8.86918 11.44 8.55682 11.1111 8.33706C10.7822 8.1173 10.3956 8 10 8C9.46957 8 8.96086 8.21071 8.58579 8.58579C8.21071 8.96086 8 9.46957 8 10Z"
          fill="currentColor"
        />
      </symbol>

      <symbol id="icon-facebook" viewBox="0 0 20 20">
        <path
          d="M16.4173 0H3.484C2.56133 0.0131837 1.68039 0.386664 1.02939 1.04065C0.378396 1.69464 0.00895596 2.57728 0 3.5L0 16.6C0.0298877 17.5065 0.408936 18.3664 1.05794 19C1.70695 19.6336 2.5757 19.9919 3.48267 20H10.448V12.9H8.45733V9.9H10.448V8C10.4457 7.5147 10.5394 7.03374 10.7236 6.58476C10.9078 6.13579 11.1789 5.72764 11.5214 5.3838C11.8639 5.03996 12.271 4.7672 12.7192 4.58121C13.1674 4.39521 13.648 4.29964 14.1333 4.3H16.5213V7.3H14.1333C13.9257 7.31376 13.7301 7.40247 13.583 7.54962C13.4358 7.69677 13.3471 7.89235 13.3333 8.1V10H15.92V13H13.4333V20H16.5173C17.4398 19.9865 18.3204 19.6128 18.9711 18.9589C19.6218 18.3049 19.9911 17.4225 20 16.5V3.5C19.9521 2.57308 19.5568 1.6982 18.8929 1.04959C18.229 0.40099 17.3451 0.0262495 16.4173 0Z"
          fill="currentColor"
        />
      </symbol>

      <symbol id="icon-twitter" viewBox="0 0 25 20">
        <path
          d="M25 2.40008C24.0651 2.81761 23.071 3.08746 22.0533 3.2C23.1072 2.56172 23.8994 1.56927 24.2883 0.400289C23.284 0.989603 22.1831 1.39587 21.0367 1.60017C20.3389 0.863533 19.4382 0.35065 18.4485 0.126541C17.4589 -0.0975676 16.4251 -0.0228075 15.478 0.341343C14.5309 0.705493 13.7133 1.34263 13.1289 2.17198C12.5444 3.00133 12.2194 3.98554 12.195 4.99981C12.1783 5.40246 12.2125 5.8056 12.2967 6.19969C10.2612 6.11018 8.26765 5.59184 6.44643 4.6786C4.62522 3.76536 3.01743 2.47781 1.72833 0.900238C1.28008 1.69477 1.03559 2.58793 1.01667 3.49997C1.01487 4.32981 1.21792 5.14726 1.60779 5.87983C1.99766 6.6124 2.56231 7.23745 3.25167 7.69954C2.467 7.61971 1.70668 7.3816 1.01667 6.99961V7.0996C1.02909 8.28527 1.45049 9.43031 2.20966 10.3412C2.96883 11.2521 4.01922 11.8731 5.18333 12.0991C4.75154 12.2145 4.30827 12.2815 3.86167 12.2991C3.51985 12.3108 3.17798 12.2772 2.845 12.1991C3.16752 13.2133 3.80398 14.0988 4.66253 14.7278C5.52108 15.3568 6.55731 15.6968 7.62167 15.6987C5.80397 17.1457 3.54329 17.9225 1.22 17.8985C0.810778 17.915 0.401074 17.8814 0 17.7985C2.35502 19.2475 5.06821 20.0094 7.83333 19.9983C9.74355 20.0279 11.6406 19.6774 13.4141 18.9672C15.1876 18.257 16.8022 17.2012 18.1639 15.8614C19.5256 14.5215 20.6072 12.9243 21.3459 11.1626C22.0846 9.40097 22.4656 7.51 22.4667 5.59975V4.89983C23.4766 4.25279 24.3396 3.40123 25 2.40008Z"
          fill="currentColor"
        />
      </symbol>

      <symbol id="icon-instagram" viewBox="0 0 20 20">
        <path
          d="M5.556 20C4.08289 19.9986 2.67052 19.4128 1.62887 18.3711C0.587228 17.3295 0.00141204 15.9171 0 14.444L0 5.556C0.00176429 4.083 0.587693 2.67083 1.62926 1.62926C2.67083 0.587693 4.083 0.00176429 5.556 0L14.444 0C15.917 0.00176429 17.3292 0.587693 18.3707 1.62926C19.4123 2.67083 19.9982 4.083 20 5.556V14.4453C19.9982 15.9182 19.4123 17.3302 18.3707 18.3716C17.329 19.413 15.9169 19.9986 14.444 20H5.556ZM4.444 10C4.44374 11.0989 4.76937 12.1733 5.37971 13.0871C5.99005 14.001 6.85768 14.7133 7.87289 15.134C8.88809 15.5548 10.0053 15.665 11.0831 15.4507C12.161 15.2365 13.1511 14.7075 13.9282 13.9305C14.7054 13.1535 15.2347 12.1635 15.4491 11.0857C15.6636 10.008 15.5537 8.89076 15.1332 7.87545C14.7127 6.86015 14.0006 5.99234 13.0869 5.38178C12.1732 4.77122 11.0989 4.44533 10 4.44533C8.52723 4.4471 7.11527 5.03284 6.07373 6.07412C5.0322 7.11541 4.44612 8.52723 4.444 10ZM15.556 3.33333C15.5563 3.55289 15.6216 3.76744 15.7437 3.94988C15.8659 4.13233 16.0394 4.27448 16.2422 4.35838C16.4451 4.44228 16.6684 4.46416 16.8837 4.42126C17.099 4.37836 17.2968 4.27261 17.452 4.11736C17.6073 3.96211 17.713 3.76433 17.7559 3.54901C17.7988 3.33368 17.7769 3.11048 17.693 2.90758C17.6091 2.70469 17.467 2.53121 17.2846 2.40907C17.1021 2.28693 16.8876 2.2216 16.668 2.22133C16.3731 2.22133 16.0902 2.33849 15.8817 2.54703C15.6732 2.75557 15.556 3.03841 15.556 3.33333ZM6.66667 10C6.66667 9.34073 6.86216 8.69626 7.22844 8.1481C7.59471 7.59994 8.1153 7.17269 8.72439 6.9204C9.33348 6.66811 10.0037 6.6021 10.6503 6.73072C11.2969 6.85933 11.8908 7.1768 12.357 7.64298C12.8232 8.10915 13.1407 8.7031 13.2693 9.3497C13.3979 9.9963 13.3319 10.6665 13.0796 11.2756C12.8273 11.8847 12.4001 12.4053 11.8519 12.7716C11.3037 13.1378 10.6593 13.3333 10 13.3333C9.11594 13.3333 8.2681 12.9821 7.64298 12.357C7.01786 11.7319 6.66667 10.8841 6.66667 10Z"
          fill="currentColor"
        />
      </symbol>

      <symbol id="icon-user" viewBox="0 0 30 33">
        <path
          d="M26.666 31.3505V28.0495C26.666 26.7366 26.1393 25.4778 25.2017 24.5494C24.264 23.621 22.9921 23.099 21.666 23.099H8.33398C7.0079 23.099 5.73602 23.621 4.79834 24.5494C3.86066 25.4778 3.33398 26.7366 3.33398 28.0495V31.3505C3.33398 31.788 3.15863 32.2072 2.84619 32.5166C2.53376 32.8259 2.10982 33 1.66797 33C1.44902 33.0003 1.23214 32.958 1.02979 32.8753C0.827426 32.7925 0.643684 32.6707 0.48877 32.5175C0.333855 32.3643 0.210802 32.1821 0.126953 31.9819C0.0431038 31.7816 -1.57771e-07 31.5673 0 31.3505V28.0495C0.00264741 25.8621 0.881436 23.7648 2.44385 22.2182C4.00626 20.6716 6.12467 19.8021 8.33398 19.8H21.666C23.8753 19.8021 25.9937 20.6716 27.5562 22.2182C29.1186 23.7648 29.9974 25.8621 30 28.0495V31.3505C30 31.5673 29.9569 31.7816 29.873 31.9819C29.7892 32.1821 29.6661 32.3643 29.5112 32.5175C29.3563 32.6707 29.1726 32.7925 28.9702 32.8753C28.7679 32.958 28.551 33.0003 28.332 33C27.8902 33 27.4662 32.8259 27.1538 32.5166C26.8414 32.2072 26.666 31.788 26.666 31.3505ZM6.66602 8.24952C6.66866 6.06174 7.548 3.96482 9.11084 2.4182C10.6737 0.871571 12.7923 0.001572 15.002 0C17.2113 0.0026212 19.3291 0.87319 20.8911 2.42013C22.4531 3.96707 23.3319 6.06401 23.334 8.25145C23.3319 10.4387 22.4532 12.5361 20.8911 14.0828C19.329 15.6294 17.2111 16.4989 15.002 16.501C12.7928 16.4989 10.6749 15.6294 9.11279 14.0828C7.5507 12.5361 6.67204 10.4387 6.66992 8.25145L6.66602 8.24952ZM9.99805 8.24952C9.99805 9.56247 10.5247 10.8213 11.4624 11.7497C12.4001 12.6781 13.672 13.2 14.998 13.2C16.3241 13.2 17.596 12.6781 18.5337 11.7497C19.4714 10.8213 19.998 9.56247 19.998 8.24952C19.998 6.93657 19.4714 5.67777 18.5337 4.74937C17.596 3.82097 16.3241 3.29903 14.998 3.29903C13.6723 3.30008 12.4012 3.82259 11.4644 4.7513C10.5275 5.68001 10.0014 6.93884 10.002 8.25145L9.99805 8.24952Z"
          fill="currentColor"
        />
      </symbol>

      <symbol id="icon-cart" viewBox="0 0 34 33">
        <path
          d="M25.4741 30.1318C25.4737 29.5641 25.6397 29.009 25.9512 28.5367C26.2627 28.0644 26.7057 27.6963 27.224 27.4787C27.7424 27.2612 28.3129 27.204 28.8634 27.3145C29.4138 27.4251 29.9195 27.6983 30.3165 28.0996C30.7135 28.5009 30.9839 29.0123 31.0935 29.5691C31.2031 30.1259 31.1471 30.7031 30.9324 31.2277C30.7177 31.7523 30.3541 32.2007 29.8875 32.5162C29.4209 32.8316 28.8723 33 28.3111 33C27.5595 32.9984 26.8391 32.6958 26.3075 32.1583C25.7758 31.6208 25.4762 30.8922 25.4741 30.1318ZM9.87737 30.1318C9.87737 29.5646 10.0436 29.0101 10.3552 28.5384C10.6667 28.0667 11.1095 27.6991 11.6275 27.482C12.1455 27.2649 12.7156 27.2081 13.2655 27.3188C13.8154 27.4295 14.3206 27.7026 14.7171 28.1038C15.1136 28.5049 15.3836 29.0159 15.493 29.5723C15.6024 30.1287 15.5462 30.7054 15.3316 31.2294C15.1171 31.7535 14.7537 32.2015 14.2875 32.5166C13.8212 32.8318 13.2731 33 12.7124 33C11.9605 32.9995 11.2395 32.6972 10.7076 32.1595C10.1757 31.6218 9.87843 30.8926 9.87737 30.1318ZM9.44891 20.9278L7.07837 8.95086C7.07837 8.91238 7.06236 8.87187 7.05635 8.83135L5.87508 2.86616H1.36425C0.997786 2.85222 0.65092 2.69514 0.396523 2.42791C0.142127 2.16068 0 1.80411 0 1.4331C0 1.06209 0.142127 0.705516 0.396523 0.438288C0.65092 0.17106 0.997786 0.0139761 1.36425 3.51175e-05H7.03633C7.36585 -0.00229538 7.68592 0.111433 7.94163 0.321718C8.19734 0.532003 8.37277 0.825742 8.43783 1.15256L9.6291 7.17244H32.5737C32.7831 7.17143 32.9901 7.21729 33.1799 7.30673C33.3697 7.39618 33.5376 7.52699 33.6715 7.68981C33.8055 7.85262 33.9022 8.04339 33.9547 8.24845C34.0072 8.45352 34.0142 8.66779 33.9752 8.87592L31.7047 20.9137C31.7056 20.9177 31.7056 20.9218 31.7047 20.9258C31.514 21.9026 30.9939 22.7821 30.2332 23.4139C29.4725 24.0457 28.5185 24.3905 27.5343 24.3895H13.6174C12.6337 24.3898 11.6803 24.045 10.9198 23.4137C10.1593 22.7825 9.64074 21.9039 9.44891 20.9278ZM12.2319 20.3668C12.2962 20.6975 12.4735 20.9947 12.7326 21.2066C12.9918 21.4184 13.3163 21.5312 13.6494 21.5254H27.5163C27.8438 21.5253 28.1612 21.4104 28.4146 21.2003C28.6679 20.9902 28.8414 20.6978 28.9057 20.3728L30.8518 10.0426H10.1877L12.2319 20.3668Z"
          fill="currentColor"
        />
      </symbol>

       <symbol id="icon-superior-accuracy" viewBox="0 0 51 51">
        <path d="M24.409 51V31.5928H26.546C26.546 31.6518 26.554 31.711 26.554 31.772C26.554 38.1193 26.554 44.4669 26.554 50.8149C26.554 50.8769 26.547 50.938 26.544 51H24.409ZM10.967 42.1108C6.89701 38.5758 4.2328 33.696 3.46 28.3608H5.628C5.751 28.9298 5.858 29.4938 5.997 30.0518C6.77223 33.2095 8.30198 36.1322 10.455 38.5688C13.0583 41.5689 16.4866 43.7373 20.313 44.8032C21.028 45.0032 21.766 45.1332 22.491 45.3032C22.537 45.3152 22.609 45.3668 22.609 45.4028C22.617 46.0928 22.609 46.7819 22.609 47.5029C18.284 46.8839 14.2359 45.0096 10.967 42.1108ZM28.36 45.3271C32.6121 44.6484 36.5377 42.6335 39.568 39.5742C42.6262 36.5384 44.6399 32.6085 45.318 28.353H47.478C46.7775 33.1762 44.5382 37.6441 41.0934 41.0918C37.6486 44.5395 33.1825 46.7823 28.36 47.4868V45.3271ZM28.604 34.5962C28.604 34.5452 28.688 34.4732 28.747 34.4502C29.4924 34.1689 30.2001 33.796 30.854 33.3408C32.492 32.2156 33.7423 30.612 34.434 28.749C34.4439 28.702 34.4713 28.6605 34.5107 28.6328C34.55 28.6052 34.5984 28.5935 34.646 28.6001C35.291 28.6071 35.937 28.6001 36.581 28.6001H36.735C36.1859 30.5398 35.1495 32.3065 33.7245 33.7324C32.2995 35.1583 30.5333 36.1958 28.594 36.7461C28.597 36.0191 28.594 35.3081 28.604 34.6001V34.5962ZM14.224 28.6011H15.206C15.585 28.6011 15.964 28.6011 16.343 28.6011C16.3812 28.5954 16.4201 28.6046 16.4518 28.6265C16.4836 28.6484 16.5058 28.6815 16.514 28.7192C16.954 29.9131 17.6253 31.0079 18.4893 31.9419C19.3533 32.8759 20.393 33.6306 21.549 34.1621C21.777 34.2721 22.02 34.3521 22.249 34.4561C22.298 34.4791 22.364 34.5429 22.364 34.5889C22.371 35.2959 22.364 36.0039 22.364 36.7109C22.364 36.7209 22.354 36.7312 22.349 36.7412C20.4129 36.1896 18.6501 35.1519 17.228 33.7271C15.8059 32.3022 14.7718 30.5382 14.224 28.6011ZM25.486 28.7241C24.6281 28.7212 23.8063 28.3789 23.1999 27.772C22.5936 27.1651 22.2521 26.3427 22.25 25.4849C22.254 24.6273 22.597 23.8062 23.2042 23.2007C23.8114 22.5952 24.6335 22.2545 25.491 22.2529C25.9132 22.2551 26.3308 22.3414 26.7195 22.5063C27.1081 22.6713 27.4601 22.9117 27.755 23.2139C28.0499 23.5161 28.2817 23.874 28.4371 24.2666C28.5924 24.6592 28.6682 25.0788 28.66 25.501C28.6651 25.9213 28.587 26.3385 28.4302 26.7285C28.2733 27.1185 28.0407 27.4737 27.746 27.7734C27.4512 28.0731 27.1 28.3113 26.7126 28.4746C26.3252 28.6379 25.9094 28.7233 25.489 28.7251L25.486 28.7241ZM31.822 26.564H31.592V24.4141H50.999V26.5532C50.92 26.5532 50.842 26.5649 50.763 26.5649L31.822 26.564ZM0 26.5562V24.4268H19.366V26.5562H0ZM45.292 22.4658C44.7842 19.4115 43.5808 16.5151 41.775 14C40.1113 11.6593 37.9719 9.6967 35.497 8.24023C33.4747 7.0398 31.2574 6.20356 28.946 5.77002L28.369 5.66211V3.48682C32.469 4.06626 36.3253 5.78103 39.502 8.43701C43.8484 11.9985 46.7061 17.0564 47.514 22.6172C47.434 22.6172 47.38 22.625 47.324 22.625C46.714 22.625 46.102 22.625 45.492 22.625H45.483C45.36 22.628 45.314 22.5938 45.292 22.4658ZM5.52 22.627C4.864 22.627 4.208 22.627 3.552 22.627C3.5226 22.6231 3.49353 22.617 3.465 22.6089C4.19141 17.6312 6.56265 13.0398 10.201 9.56592C13.5902 6.28732 17.9314 4.16777 22.601 3.51123V5.66113C22.301 5.71813 22.001 5.77589 21.701 5.83789C19.0988 6.36879 16.6278 7.4105 14.431 8.90283C11.365 10.9594 8.91408 13.809 7.339 17.1479C6.53224 18.842 5.96836 20.6416 5.664 22.4932C5.648 22.5882 5.622 22.6309 5.524 22.6309L5.52 22.627ZM16.31 22.3809C15.665 22.3749 15.019 22.3809 14.375 22.3809H14.224C14.7753 20.4411 15.8132 18.6744 17.2393 17.2485C18.6653 15.8227 20.4321 14.785 22.372 14.2339V14.4209C22.372 15.0489 22.372 15.6772 22.372 16.3062C22.3805 16.3599 22.3683 16.4149 22.3378 16.46C22.3074 16.5051 22.261 16.5366 22.208 16.5488C20.9078 17.0319 19.727 17.7898 18.7461 18.7705C17.7652 19.7512 17.0073 20.9318 16.524 22.2319C16.5132 22.2785 16.486 22.3194 16.4475 22.3477C16.409 22.3759 16.3616 22.3899 16.314 22.3862L16.31 22.3809ZM34.448 22.248C33.963 20.9306 33.196 19.7352 32.2008 18.7451C31.2055 17.755 30.0059 16.9942 28.686 16.5161C28.66 16.5061 28.634 16.491 28.604 16.478V14.2412C30.5429 14.7894 32.309 15.8248 33.7343 17.249C35.1595 18.6732 36.1964 20.4385 36.746 22.377H36.038C35.574 22.377 35.11 22.377 34.646 22.377H34.638C34.5958 22.3825 34.553 22.3724 34.5176 22.3486C34.4823 22.3249 34.4568 22.2892 34.446 22.248H34.448ZM24.419 19.3828V0H26.546V19.3818L24.419 19.3828Z" />
      </symbol>

      <symbol id="icon-awards" viewBox="0 0 52 43">
        <path d="M38.716 42.7051C38.2047 42.4881 37.7503 42.1559 37.388 41.7349C37.2785 41.586 37.1249 41.4755 36.949 41.4189C36.7731 41.3624 36.5838 41.3627 36.408 41.4199C35.898 41.5679 35.392 41.7291 34.882 41.8701C34.372 42.0111 34.3731 42.0027 34.0961 41.4287L34.7561 41.2188C35.2561 41.0547 35.7561 40.8547 36.272 40.7397C36.83 40.6137 36.909 40.2557 36.948 39.7817C36.972 38.9963 37.0793 38.216 37.2681 37.4531C37.4723 36.8116 37.8035 36.2175 38.2419 35.7065C38.6803 35.1956 39.217 34.7783 39.8201 34.479C39.9671 34.419 40.1177 34.3679 40.271 34.3267C39.897 36.1267 39.913 37.9099 38.917 39.5049C39.672 38.9049 40.4631 38.3488 41.16 37.6938C41.2472 37.5481 41.3014 37.3848 41.3187 37.2158C41.336 37.0468 41.3159 36.8762 41.2601 36.7158C40.9114 35.6705 40.8357 34.5535 41.0401 33.4707C41.2445 32.3879 41.7223 31.3751 42.4281 30.5288C42.585 30.3587 42.752 30.1981 42.9281 30.0479C43.0711 31.9479 43.547 33.6719 43.128 35.4409L43.246 35.5039C43.7136 34.838 44.1442 34.1471 44.5361 33.4341C44.5659 33.2716 44.5624 33.1044 44.5258 32.9434C44.4892 32.7823 44.4202 32.6307 44.323 32.4971C43.7337 31.5471 43.3888 30.4658 43.319 29.3501C43.2492 28.2344 43.4567 27.119 43.923 26.103C43.9874 25.9399 44.0879 25.7934 44.2171 25.6748C44.9331 27.3688 45.827 28.9879 45.8241 30.9229C46.0441 30.2879 46.215 29.6299 46.495 29.0229C46.7206 28.5987 46.7779 28.1052 46.6553 27.6406C46.5328 27.1761 46.2395 26.7748 45.8341 26.5171C44.8126 25.5295 44.2143 24.1836 44.1651 22.7637C44.1236 22.031 44.1193 21.297 44.1521 20.564L44.413 20.4971C45.488 21.9211 46.77 23.2151 47.365 24.9971C47.408 24.0971 47.4651 23.2017 47.4851 22.3037C47.4837 22.1064 47.4218 21.9144 47.3077 21.7534C47.1936 21.5924 47.0328 21.4704 46.8471 21.4038C44.5201 20.2948 43.803 18.2638 43.589 15.9458C43.6028 15.8244 43.6292 15.7048 43.668 15.5889C44.963 16.6979 46.436 17.494 47.188 19.04L47.331 18.9917C47.146 18.0517 46.9861 17.1048 46.7521 16.1758C46.6917 16.0669 46.6068 15.9736 46.504 15.9033C46.4012 15.833 46.2834 15.7878 46.16 15.771C44.104 15.59 43.0421 14.2561 42.2481 12.5991C42.0662 12.229 41.9243 11.8402 41.8251 11.4399C43.3008 11.8287 44.6956 12.4772 45.944 13.355C45.6403 12.5774 45.293 11.8177 44.904 11.0791C44.787 10.8791 44.262 10.7919 43.952 10.8379C43.34 10.9307 42.7147 10.878 42.1268 10.6841C41.5388 10.4902 41.0048 10.1603 40.568 9.72168C40.1009 9.26216 39.7018 8.73853 39.383 8.16602C39.583 8.16602 39.7831 8.16602 39.9891 8.16602C41.2505 8.0596 42.5186 8.26978 43.6781 8.77783C43.2975 8.19258 42.8828 7.63019 42.4361 7.09375C42.3011 6.94775 41.8301 6.9678 41.5841 7.0708C40.7508 7.37507 39.841 7.39935 38.9927 7.13965C38.1445 6.87995 37.4041 6.35047 36.884 5.63184C36.8593 5.58854 36.8405 5.54194 36.828 5.49365C37.333 5.04565 39.564 4.8941 40.7421 5.2251C40.5627 4.90796 40.3169 4.63343 40.0213 4.42041C39.7258 4.20739 39.3876 4.06055 39.03 3.99072C38.3321 3.86448 37.6756 3.56955 37.1178 3.13135C36.56 2.69315 36.1179 2.12532 35.8301 1.47705C35.6372 1.05884 35.4669 0.630354 35.3201 0.193848C35.4141 0.139848 35.448 0.101887 35.469 0.108887C36.7783 0.367867 38.0033 0.946427 39.035 1.79297C39.2855 2.0095 39.4884 2.27546 39.6311 2.57422C39.7738 2.87298 39.8531 3.19792 39.8641 3.52881C39.8715 3.67534 39.9323 3.81423 40.035 3.91895C40.635 4.49895 41.246 5.06165 41.845 5.61865C41.0298 3.98481 40.7915 2.1234 41.1691 0.336914L41.331 0.251953C41.695 0.660953 42.089 1.05198 42.422 1.47998C43.2986 2.5449 43.7942 3.87217 43.8301 5.25098C43.8233 5.70221 43.7113 6.14555 43.503 6.5459C43.3771 6.75386 43.3174 6.99511 43.3317 7.23779C43.346 7.48047 43.4336 7.71303 43.5831 7.90479C44.0061 8.51478 44.4071 9.13874 44.8631 9.76074C44.422 7.98432 44.6722 6.10675 45.563 4.50781C45.673 4.60781 45.7701 4.652 45.8161 4.729C46.7587 6.34049 47.1714 8.20724 46.996 10.0659C46.9064 10.5611 46.6954 11.0263 46.382 11.4199C46.2653 11.563 46.1848 11.7322 46.1473 11.9131C46.1099 12.094 46.1166 12.2813 46.167 12.459C46.398 13.194 46.6951 13.9097 46.9971 14.6367C46.9154 13.7001 47.0391 12.7573 47.3597 11.8735C47.6803 10.9897 48.1899 10.1865 48.853 9.52002C49.0157 9.94023 49.1357 10.3756 49.211 10.8198C49.3024 12.0225 49.3275 13.2296 49.2861 14.4351C49.2526 14.8595 49.1343 15.273 48.9382 15.6509C48.742 16.0288 48.472 16.3632 48.1441 16.6348C47.9547 16.8037 47.8145 17.0207 47.7382 17.2627C47.662 17.5047 47.6526 17.7628 47.711 18.0098C47.811 18.7098 47.8641 19.4101 47.9671 20.1421C48.1365 19.199 48.4969 18.3004 49.026 17.5015C49.5551 16.7026 50.2418 16.0202 51.0441 15.4961C51.1013 15.6993 51.1431 15.9062 51.1691 16.1157C51.243 17.7738 50.8839 19.4228 50.1271 20.8999C49.983 21.2285 49.7703 21.5225 49.5033 21.7622C49.2363 22.0019 48.9212 22.182 48.5791 22.29C48.1441 22.416 48.101 22.7898 48.069 23.1338C47.979 24.0708 47.9201 25.0109 47.8511 25.9399C48.1371 25.5199 48.417 25.0616 48.744 24.6396C49.4545 23.7144 50.413 23.01 51.508 22.6079C51.6715 22.5664 51.8394 22.5443 52.008 22.542V23.1479C51.54 24.2029 51.1151 25.2787 50.5871 26.3047C50.3314 26.786 49.9696 27.2031 49.529 27.5239C49.0886 27.8314 48.585 28.0365 48.055 28.124C47.896 28.1286 47.7414 28.1777 47.6091 28.2661C47.4767 28.3546 47.3721 28.4788 47.3071 28.624C46.8701 29.73 46.4701 30.8478 46.0011 32.1108C46.5949 31.4046 47.3456 30.847 48.1932 30.4824C49.0408 30.1178 49.9619 29.9562 50.883 30.0107C50.767 30.4485 50.5931 30.8689 50.366 31.2607C49.7397 32.0989 49.0367 32.8772 48.266 33.585C47.8868 33.9131 47.4287 34.137 46.9368 34.2349C46.4449 34.3327 45.936 34.3012 45.46 34.1431C45.3087 34.1375 45.158 34.1664 45.0194 34.2275C44.8808 34.2887 44.758 34.3805 44.66 34.4961C44.087 35.2061 43.5831 35.9707 43.0061 36.7837C43.8285 36.3519 44.7427 36.124 45.6716 36.1191C46.6006 36.1143 47.5171 36.3327 48.344 36.7559C48.094 37.0769 47.8192 37.3777 47.522 37.6558C46.4158 38.6503 44.9796 39.1985 43.4921 39.1938C42.9677 39.0867 42.4576 38.9189 41.9721 38.6938C41.7191 38.6188 41.3601 38.494 41.1921 38.606C40.4551 39.084 39.7711 39.6377 38.9981 40.2188C39.904 40.0794 40.8299 40.1512 41.7035 40.4287C42.5771 40.7063 43.3747 41.1822 44.034 41.8188C43.8314 42.0105 43.6091 42.1803 43.371 42.3257C42.4789 42.7542 41.5047 42.9854 40.5151 43.0029C39.903 43.0047 39.2949 42.9041 38.716 42.7051ZM8.69304 42.3599C8.44556 42.2193 8.21129 42.0568 7.99306 41.874C8.62701 41.2238 9.40289 40.729 10.2599 40.4287C11.117 40.1284 12.0319 40.0307 12.9331 40.1431C12.6261 39.9361 12.313 39.743 12.016 39.521C11.6663 39.222 11.299 38.9442 10.9161 38.689C10.7041 38.568 10.284 38.4958 10.141 38.6138C9.76219 38.9137 9.31522 39.1158 8.83971 39.2017C8.3642 39.2875 7.87485 39.2545 7.41506 39.106C6.02711 38.8431 4.77381 38.1057 3.87004 37.02C3.81194 36.9297 3.75886 36.8359 3.71105 36.7397C4.52687 36.3196 5.43251 36.1042 6.35011 36.1113C7.26772 36.1185 8.16987 36.348 8.97905 36.7808C8.38705 35.9518 7.84806 35.1589 7.26406 34.3999C7.16711 34.2594 7.02356 34.1576 6.85884 34.1128C6.69412 34.068 6.51886 34.0828 6.36406 34.1548C6.00333 34.2743 5.62044 34.3117 5.24343 34.2642C4.86641 34.2166 4.50478 34.0852 4.18505 33.8799C2.9088 33.1476 1.90641 32.0189 1.33006 30.665C1.25562 30.4514 1.19744 30.2322 1.15605 30.0098C2.06728 29.959 2.97778 30.1212 3.81545 30.4834C4.65311 30.8456 5.39491 31.398 5.98204 32.0967C5.52104 30.8507 5.12906 29.7468 4.70006 28.6558C4.65197 28.4906 4.54669 28.3481 4.40306 28.2534C4.25944 28.1587 4.08684 28.1178 3.91606 28.1387C3.63213 28.1478 3.34956 28.0958 3.0876 27.9858C2.82565 27.8759 2.59046 27.711 2.39806 27.502C1.13627 26.2826 0.2989 24.6906 0.00905034 22.96C-0.00301678 22.7999 -0.00301678 22.6391 0.00905034 22.479C0.907819 22.741 1.74091 23.1901 2.45345 23.7974C3.16599 24.4046 3.74182 25.1561 4.14305 26.002C4.07205 25.057 4.00705 24.1459 3.93605 23.2349C3.94437 23.0004 3.87451 22.77 3.73747 22.5796C3.60044 22.3892 3.40403 22.2497 3.17906 22.1831C2.71392 21.9762 2.32362 21.631 2.06105 21.1948C1.12429 19.6188 0.692941 17.7935 0.82506 15.9648C0.849557 15.8062 0.886319 15.65 0.935045 15.4971C1.73822 16.0179 2.42795 16.6954 2.96288 17.4893C3.4978 18.2831 3.8669 19.1767 4.04805 20.1167C4.13505 19.2767 4.24806 18.4377 4.29106 17.5957C4.30038 17.3104 4.19607 17.0331 4.00105 16.8247C2.60105 15.5677 2.49004 13.9377 2.60604 12.2607C2.69398 11.4608 2.82756 10.6666 3.00606 9.88184C3.02206 9.79284 3.10606 9.71603 3.18706 9.58203C3.83657 10.2473 4.3363 11.0437 4.65279 11.918C4.96927 12.7922 5.09518 13.724 5.02205 14.6509C5.29805 13.8829 5.62204 13.1268 5.82204 12.3398C5.89104 12.0688 5.68705 11.719 5.57405 11.418C5.298 10.926 5.09201 10.3981 4.96205 9.84912C4.85674 8.15787 5.2219 6.4705 6.01705 4.97412C6.09905 4.81612 6.21705 4.67408 6.38005 4.43408C7.29503 6.0553 7.57006 7.96011 7.15105 9.77393C7.63205 9.04493 8.13904 8.33208 8.57704 7.58008C8.63797 7.46133 8.671 7.33021 8.6736 7.19678C8.6762 7.06334 8.64831 6.93109 8.59206 6.81006C8.33483 6.38193 8.17812 5.90081 8.13378 5.40332C8.08943 4.90583 8.15859 4.40487 8.33605 3.93799C8.74407 2.46402 9.59812 1.1525 10.7811 0.183105C11.1972 2.00811 10.9719 3.92078 10.1431 5.59912C10.7531 5.03112 11.397 4.43989 12.03 3.83789C12.0938 3.76122 12.1266 3.66357 12.1221 3.56396C12.1309 3.18163 12.2272 2.80618 12.4035 2.4668C12.5797 2.12741 12.8314 1.83309 13.1391 1.60596C14.2121 0.868399 15.4062 0.324867 16.667 0C16.4833 0.936338 16.0641 1.8105 15.4491 2.54004C14.7268 3.34435 13.7564 3.88369 12.6921 4.07275C12.1029 4.31396 11.579 4.69095 11.163 5.17285C12.55 4.73485 13.843 5.12875 15.263 5.36475C14.9499 5.879 14.5255 6.31672 14.021 6.64551C13.5166 6.97429 12.945 7.1857 12.348 7.26465C11.7562 7.31637 11.16 7.25882 10.589 7.09473C9.74404 6.86673 9.66704 6.84199 9.14604 7.56299C8.91004 7.89299 8.68506 8.23099 8.45506 8.56299C8.40907 8.63199 8.37105 8.70586 8.25505 8.90186C9.65505 8.06986 11.096 8.15694 12.543 8.06494C12.543 8.17294 12.568 8.2518 12.543 8.2998C12.2003 8.98013 11.6977 9.56715 11.0784 10.0107C10.4591 10.4543 9.74149 10.7411 8.98705 10.8467C8.59429 10.8663 8.20057 10.8455 7.81206 10.7847C7.61937 10.744 7.41843 10.7773 7.24913 10.8779C7.07983 10.9785 6.95453 11.1395 6.89806 11.3281C6.64206 12.0021 6.33504 12.6567 6.08104 13.3477C7.24304 12.3117 8.73004 11.9738 10.081 11.3618L10.2091 11.4717C10.0271 11.8917 9.86304 12.322 9.65904 12.73C9.27422 13.6808 8.61572 14.4957 7.76705 15.0718C7.28116 15.3477 6.75516 15.546 6.20806 15.6597C5.37606 15.8337 5.23704 15.896 5.07204 16.708C4.91335 17.47 4.79453 18.2393 4.71605 19.0137C5.52705 17.4957 7.00004 16.6897 8.23604 15.6367L8.40306 15.6929C8.34206 16.1929 8.31604 16.7039 8.21404 17.1929C7.97301 18.6441 7.20011 19.9534 6.04604 20.8657C5.7793 21.0495 5.49571 21.2078 5.19905 21.3379C4.96831 21.4277 4.77317 21.5905 4.64324 21.8013C4.5133 22.0121 4.45565 22.2593 4.47905 22.5059C4.53005 23.3279 4.56806 24.1507 4.66606 24.9937C5.18906 23.2097 6.48405 21.9297 7.53105 20.4937L7.71205 20.5107C7.76305 20.9407 7.85106 21.3707 7.86006 21.8027C7.91933 23.1094 7.58902 24.4044 6.91106 25.5229C6.56742 26.0248 6.17263 26.4893 5.73305 26.9097C5.50587 27.0831 5.34192 27.3269 5.26641 27.6025C5.19089 27.8782 5.20798 28.171 5.31505 28.436C5.63205 29.242 5.86106 30.08 6.17806 30.894C6.15006 28.987 7.03806 27.3639 7.67806 25.6689L7.86006 25.6411C8.06649 26.1 8.24512 26.5705 8.39504 27.0508C8.6657 27.9497 8.74 28.8965 8.61284 29.8267C8.48568 30.7568 8.16004 31.6486 7.65804 32.4419C7.48606 32.6533 7.3947 32.9189 7.40019 33.1914C7.40569 33.4639 7.50768 33.7254 7.68804 33.9297C8.07204 34.4137 8.38804 34.9508 8.78804 35.4448C8.42504 33.6598 8.90605 31.9396 9.02605 30.0566C9.19153 30.1698 9.34651 30.298 9.48906 30.439C10.2156 31.2796 10.7099 32.2953 10.9232 33.3857C11.1365 34.4762 11.0613 35.6033 10.7051 36.6558C10.5976 36.8775 10.5752 37.131 10.6421 37.3682C10.709 37.6054 10.8605 37.8099 11.068 37.9429C11.752 38.4299 12.401 38.9649 13.095 39.4429C12.3104 37.8523 11.8675 36.1149 11.7951 34.3428C12.4101 34.5355 12.9624 34.889 13.395 35.3667C13.9225 35.8697 14.3403 36.4768 14.6222 37.1489C14.9041 37.8211 15.0439 38.5441 15.033 39.2729C15.018 40.479 15.033 40.489 16.193 40.894C16.735 41.083 17.2931 41.226 17.8591 41.394C17.7421 41.824 17.5691 42.032 17.1171 41.874C16.6171 41.699 16.101 41.5651 15.594 41.4121C15.4145 41.3302 15.2108 41.3186 15.0234 41.3804C14.836 41.4421 14.6788 41.5726 14.5831 41.7451C14.3896 42.0282 14.1408 42.2687 13.8518 42.4531C13.5627 42.6375 13.2393 42.7618 12.901 42.8179C12.4337 42.921 11.9566 42.9736 11.478 42.9741C10.5162 42.9737 9.56592 42.7639 8.69304 42.3599ZM17.914 32.8398C17.7532 32.6615 17.6306 32.4522 17.5539 32.2246C17.4772 31.9971 17.448 31.7564 17.4681 31.5171V31.4561L17.7681 29.7559C17.9274 28.8645 18.0867 27.9701 18.246 27.0728C18.2871 26.8428 18.33 26.6148 18.374 26.3848C18.468 25.8848 18.556 25.4087 18.625 24.9307C17.102 23.4797 15.54 22.019 14.025 20.605L13.9361 20.522C13.6397 20.3064 13.4187 20.003 13.3044 19.6548C13.1901 19.3066 13.1882 18.9313 13.2991 18.582C13.4299 18.2567 13.6535 17.9767 13.9421 17.7773C14.2307 17.578 14.5714 17.4681 14.922 17.4609L14.9881 17.4531C15.9141 17.3271 16.8561 17.1948 17.7651 17.0688C18.9731 16.8998 20.222 16.726 21.451 16.561C22.112 15.249 22.795 13.9236 23.451 12.6396C23.7544 12.049 24.0574 11.4583 24.3601 10.8677C24.4861 10.5392 24.7065 10.2553 24.9935 10.0518C25.2806 9.8482 25.6213 9.73448 25.973 9.72412C26.3245 9.73387 26.6652 9.84753 26.9521 10.0508C27.239 10.254 27.4593 10.5374 27.585 10.8657L27.5921 10.876C27.9007 11.48 28.2104 12.0834 28.521 12.686C29.174 13.955 29.849 15.266 30.503 16.564C31.686 16.725 32.8861 16.8908 34.048 17.0508C35.0394 17.1888 36.03 17.3262 37.02 17.4629H37.0271C37.3807 17.468 37.7247 17.5786 38.0153 17.7803C38.3058 17.9819 38.5296 18.2652 38.658 18.5947C38.7642 18.9396 38.7613 19.3092 38.6496 19.6523C38.5379 19.9955 38.3229 20.2954 38.034 20.5117C37.404 21.0991 36.7754 21.6878 36.1481 22.2778C35.2241 23.1458 34.269 24.0438 33.322 24.9238C33.729 27.0748 34.1051 29.2007 34.4411 31.2397C34.5013 31.5751 34.4678 31.9207 34.3443 32.2383C34.2207 32.5559 34.012 32.8334 33.741 33.04C33.4712 33.1949 33.1641 33.2723 32.853 33.2646C32.5237 33.2669 32.198 33.1951 31.9 33.0547C30.177 32.2127 28.2911 31.2648 25.9721 30.0718C23.9671 31.1038 21.922 32.1338 20.012 33.0928C19.7185 33.2458 19.3931 33.328 19.0621 33.332C18.8473 33.3322 18.6348 33.2887 18.4375 33.2041C18.2401 33.1195 18.062 32.9954 17.914 32.8398ZM25.24 13.5591C24.575 14.8511 23.8891 16.1859 23.2251 17.5039C23.0965 17.787 22.8959 18.0315 22.6434 18.2129C22.391 18.3943 22.0954 18.5065 21.7861 18.5381C20.5401 18.7051 19.275 18.8827 18.051 19.0527C17.265 19.1607 16.451 19.2748 15.651 19.3848C17.113 20.7518 18.616 22.16 20.085 23.562C20.2795 23.7428 20.4304 23.9654 20.5265 24.2129C20.6226 24.4604 20.6615 24.7261 20.6401 24.9907C20.5611 25.5907 20.45 26.1858 20.34 26.7588C20.299 26.9818 20.2561 27.2047 20.2171 27.4277C20.0581 28.3227 19.8991 29.2189 19.7391 30.1099L19.5671 31.0801C21.3671 30.1801 23.2671 29.2187 25.1271 28.2607C25.3914 28.1175 25.6864 28.0402 25.987 28.0356C26.2848 28.0394 26.5772 28.1158 26.839 28.2578C29.028 29.3848 30.763 30.2581 32.397 31.0581C32.079 29.1581 31.7271 27.1878 31.3501 25.1958C31.2817 24.889 31.2986 24.5694 31.3989 24.2715C31.4992 23.9736 31.6791 23.7089 31.9191 23.5059C32.8791 22.6149 33.8511 21.7008 34.7911 20.8188C35.3017 20.3395 35.8127 19.8605 36.3241 19.3818L33.784 19.0298C32.589 18.8638 31.355 18.6918 30.141 18.5298C29.8483 18.4982 29.5687 18.3915 29.3292 18.2202C29.0897 18.0489 28.8985 17.8186 28.7741 17.5518C28.1081 16.2338 27.42 14.8951 26.754 13.6021L25.986 12.1021L25.24 13.5591Z" />
      </symbol>

      <symbol id="icon-ecological" viewBox="0 0 51 53">
       <path d="M22.0518 51.043C18.644 49.5449 15.3964 47.7061 12.3588 45.5542L11.5488 45.023C11.189 44.7287 10.7577 44.5348 10.2988 44.461C9.97071 44.4916 9.66152 44.6283 9.41782 44.8501C8.29082 45.6661 7.12679 46.3692 5.78079 47.1822C5.16879 47.5512 4.53578 47.933 3.85678 48.355C3.68975 48.4588 3.49588 48.5113 3.29935 48.5054C3.10281 48.4995 2.91234 48.4358 2.7518 48.3223C2.59075 48.2087 2.46689 48.05 2.39572 47.8662C2.32455 47.6825 2.30929 47.4815 2.35184 47.2891C3.98184 39.9371 5.4938 33.1204 7.0618 26.0494C7.09121 25.9162 7.14753 25.7903 7.22732 25.6797C7.30712 25.5691 7.40869 25.4762 7.52579 25.4063C7.64321 25.3368 7.77362 25.2921 7.90897 25.2749C8.04431 25.2577 8.18177 25.2683 8.31283 25.3062L29.1068 31.2461C29.2846 31.2968 29.445 31.396 29.57 31.5323C29.695 31.6685 29.7797 31.8365 29.8148 32.0181C29.8497 32.1994 29.8337 32.3868 29.7685 32.5596C29.7034 32.7324 29.5917 32.8839 29.4458 32.9971L23.3908 37.6973C25.2982 38.2163 27.265 38.485 29.2418 38.4971C32.9562 38.4753 36.5943 37.4415 39.7648 35.5064C43.1419 33.4225 46.2104 30.8754 48.8808 27.94C49.0364 27.7775 49.2423 27.6727 49.4651 27.6416C49.688 27.6106 49.9147 27.6553 50.1088 27.7691C50.303 27.8834 50.453 28.0599 50.5343 28.2701C50.6156 28.4802 50.6235 28.712 50.5568 28.9273C49.4953 32.5935 48.1032 36.1558 46.3978 39.5703C44.6348 43.0522 42.1668 46.1291 39.1508 48.606C36.2553 51.0428 32.5972 52.3878 28.8128 52.4063C26.4931 52.3851 24.1985 51.9223 22.0518 51.043ZM12.6458 43.3501L13.4588 43.8853C16.3848 45.9596 19.5114 47.7349 22.7918 49.1851C24.7044 49.9713 26.749 50.3868 28.8168 50.4092C32.1445 50.3853 35.3585 49.1959 37.8998 47.0474C40.7029 44.7414 42.9955 41.8772 44.6318 38.6372C45.6928 36.5733 46.6058 34.4366 47.3638 32.2432C45.3557 34.1406 43.147 35.8135 40.7768 37.2329C37.3008 39.3484 33.3139 40.4767 29.2448 40.4961C26.4126 40.4658 23.6045 39.9724 20.9318 39.0352C20.7606 38.9773 20.6082 38.8744 20.4909 38.7369C20.3737 38.5993 20.2958 38.4322 20.2658 38.2539C20.2359 38.0757 20.2549 37.893 20.3208 37.7246C20.3866 37.5563 20.4969 37.409 20.6398 37.2984L26.6628 32.6231L8.78482 27.5161C7.46282 33.4822 6.17383 39.2923 4.81283 45.4273C6.09383 44.6553 7.2038 43.9841 8.2438 43.2271C8.82679 42.7538 9.54834 42.4838 10.2988 42.458C11.1513 42.5192 11.968 42.8294 12.6458 43.3501ZM42.4178 27.0713L40.2118 26.4361L21.6628 21.0953C21.4855 21.0441 21.3258 20.9449 21.2014 20.8086C21.077 20.6724 20.9926 20.5045 20.9578 20.3233C20.9229 20.1419 20.9389 19.9546 21.0041 19.7818C21.0692 19.609 21.1809 19.4575 21.3268 19.3443L27.2548 14.7442C25.4861 14.0664 23.6058 13.7272 21.7118 13.7442C18.221 13.8139 14.7986 14.726 11.7358 16.4024C7.89826 18.491 4.51136 21.3174 1.7698 24.7193C1.62304 24.8962 1.41985 25.0169 1.19437 25.0616C0.968885 25.1062 0.734909 25.0721 0.531829 24.9644C0.328571 24.8567 0.16863 24.6821 0.0790089 24.4703C-0.0106122 24.2584 -0.0244376 24.0222 0.0398244 23.8013C0.904513 20.6985 2.01603 17.6697 3.3638 14.7442C4.73353 11.7741 6.5121 9.01038 8.6478 6.53324C10.3611 4.51845 12.4591 2.86574 14.8188 1.67142C17.058 0.567041 19.5221 -0.00522927 22.0188 3.60061e-05C24.9068 0.0433811 27.7532 0.694647 30.3728 1.91117C33.0909 3.22661 35.6796 4.79428 38.1048 6.5933C38.5448 6.8933 38.9968 7.21215 39.4408 7.51615C39.7188 7.74805 40.0484 7.91008 40.4018 7.98832C40.6227 7.96042 40.8308 7.86962 41.0018 7.72709C42.2598 6.85509 43.5748 6.04312 44.9688 5.18412C45.5938 4.80112 46.2378 4.40209 46.9138 3.97709C47.081 3.8717 47.2756 3.81812 47.4732 3.82328C47.6707 3.82844 47.8624 3.89241 48.0238 4.00638C48.1852 4.12013 48.3093 4.27874 48.3805 4.46293C48.4517 4.64712 48.4668 4.84832 48.4238 5.04105L43.6708 26.3272C43.6412 26.4605 43.5845 26.5862 43.5044 26.6968C43.4242 26.8074 43.3223 26.9006 43.2048 26.9703C43.0502 27.0612 42.8741 27.1093 42.6948 27.1094C42.6011 27.1098 42.5079 27.0969 42.4178 27.0713ZM29.6398 13.6421C29.7872 13.721 29.9125 13.8354 30.0042 13.9751C30.0959 14.1149 30.1512 14.2758 30.1648 14.4424C30.1793 14.6087 30.152 14.7757 30.0852 14.9287C30.0185 15.0818 29.9145 15.2159 29.7828 15.3184L24.1088 19.7183L40.7648 24.5181L41.9508 24.8594L45.9508 6.92826C44.6058 7.75826 43.3338 8.54411 42.1408 9.37211C41.6402 9.75377 41.033 9.96996 40.4038 9.99027C39.639 9.93613 38.9093 9.64866 38.3128 9.16703C37.8638 8.85803 37.4078 8.54234 36.9668 8.23734C34.6421 6.51236 32.1629 5.00595 29.5608 3.73734C27.1971 2.63617 24.6281 2.04436 22.0208 2.00101C19.8295 1.99625 17.6668 2.49761 15.7008 3.46537C13.5796 4.5433 11.6944 6.03315 10.1558 7.84818C8.14137 10.1858 6.46441 12.7942 5.1738 15.5972C4.5178 16.9862 3.91079 18.4642 3.32779 20.0972C5.55112 17.9325 8.06859 16.0922 10.8058 14.6304C14.1556 12.8027 17.8975 11.8118 21.7128 11.7422C24.4716 11.7092 27.1954 12.3626 29.6398 13.6421Z" />
      </symbol>

      <symbol id="icon-shipping-worldwide" viewBox="0 0 45 52">
        <path d="M18.7764 51.8504C18.5695 51.7405 18.4008 51.5707 18.2925 51.363C18.1841 51.1554 18.1413 50.9198 18.1694 50.6873C18.1774 49.0873 18.1694 47.4876 18.1694 45.8816V45.2815C15.2815 44.7591 12.5089 43.7292 9.98035 42.2395C7.42099 40.7755 5.22878 38.7476 3.57007 36.3098C1.91137 33.8721 0.829753 31.0883 0.407354 28.1702C0.156354 26.6822 0.118451 25.1572 0.0074515 23.6482C-0.0217039 23.4045 0.0352515 23.1584 0.168584 22.9524C0.301917 22.7464 0.503201 22.5935 0.737432 22.5203C0.957331 22.4368 1.19891 22.4301 1.4231 22.5012C1.64729 22.5724 1.84092 22.7173 1.97242 22.9124C2.09369 23.139 2.18099 23.3825 2.23145 23.6345C3.03688 27.2935 5.22671 30.4987 8.34241 32.5794C10.8086 34.1002 13.6857 34.819 16.5774 34.6365C17.0894 34.6215 17.6004 34.5902 18.1664 34.5652V33.9456C18.1664 32.3106 18.1664 30.6734 18.1664 29.0374C18.1368 28.8054 18.1784 28.5699 18.2855 28.3621C18.3927 28.1542 18.5603 27.9838 18.7664 27.8733C18.9767 27.771 19.213 27.7341 19.4446 27.7669C19.6762 27.7996 19.8927 27.9007 20.0664 28.0574C25.0664 31.6294 30.0694 35.1978 35.0754 38.7625C35.265 38.8539 35.425 38.9965 35.5371 39.1746C35.6492 39.3526 35.709 39.5589 35.7095 39.7693C35.71 39.9797 35.6513 40.1859 35.54 40.3645C35.4288 40.5431 35.2695 40.6872 35.0804 40.7796C30.0804 44.4096 25.0764 48.0364 20.0684 51.6604C19.8377 51.8498 19.5525 51.9605 19.2544 51.9763C19.0873 51.973 18.9234 51.9299 18.7764 51.8504ZM3.64844 31.7654C4.92691 35.0293 7.18858 37.8151 10.1204 39.7366C12.818 41.5429 15.8837 42.726 19.0953 43.2005C20.0953 43.3525 20.3504 43.6513 20.3534 44.6653C20.3534 45.4403 20.3534 46.2155 20.3534 46.9915V48.7522L32.7415 39.7776L20.3554 30.9456C20.3554 32.4526 20.3554 33.8122 20.3554 35.1702C20.3554 36.2152 20.0554 36.5864 19.0004 36.6384C17.4581 36.7649 15.9097 36.7984 14.3634 36.7385C10.5339 36.5429 6.93163 34.8614 4.32239 32.0515C4.05839 31.7725 3.80439 31.4835 3.54639 31.1995C3.53162 31.3927 3.56634 31.5864 3.64734 31.7625L3.64844 31.7654ZM36.6874 39.0154C36.5772 38.901 36.4918 38.765 36.4368 38.616C36.3817 38.4669 36.3582 38.3083 36.3676 38.1497C36.377 37.9911 36.4191 37.8361 36.4913 37.6946C36.5636 37.5531 36.6644 37.428 36.7874 37.3274C37.5634 36.4634 38.3194 35.5822 39.0874 34.7102L38.9874 34.5442H36.6024C35.4264 34.5442 34.2524 34.5345 33.0764 34.5525C32.8639 34.5581 32.6576 34.625 32.4824 34.7454C32.3063 34.8972 32.0858 34.9879 31.8539 35.0042C31.6219 35.0204 31.391 34.961 31.1954 34.8352C30.9931 34.7154 30.8374 34.5306 30.7537 34.3108C30.6699 34.091 30.6631 33.8494 30.7344 33.6253C31.0264 32.3533 31.3824 31.0914 31.5984 29.8054C31.8754 28.1474 32.0424 26.4714 32.2654 24.7454H23.5764C23.5764 25.4914 23.5764 26.2454 23.5764 26.9944C23.5764 27.2194 23.5873 27.4433 23.5693 27.6663C23.5589 27.9523 23.4359 28.2225 23.2271 28.4182C23.0182 28.614 22.7405 28.7193 22.4544 28.7112C22.1767 28.7036 21.9133 28.5869 21.7211 28.3865C21.5289 28.186 21.4233 27.9181 21.4274 27.6404C21.4074 26.8654 21.4204 26.0892 21.4204 25.3142V24.7322H12.8574C12.8954 25.3442 12.8884 25.9613 12.9804 26.5613C13.2704 28.4293 13.5855 30.2945 13.9135 32.1565C14.0465 32.9085 13.7853 33.4812 13.1733 33.6272C12.5063 33.7862 12.0044 33.4274 11.8134 32.6594C11.2104 30.1834 10.8405 27.6565 10.7084 25.1116C10.7024 24.9946 10.6874 24.8784 10.6704 24.7044H10.0984C8.12239 24.7044 6.14739 24.7044 4.17139 24.7044C3.91304 24.7337 3.65251 24.6727 3.43384 24.532C3.21517 24.3913 3.05184 24.1797 2.97144 23.9324C2.92008 23.7722 2.90679 23.6021 2.93262 23.4358C2.95846 23.2695 3.02268 23.1119 3.12024 22.9749C3.21781 22.8378 3.34601 22.7251 3.49463 22.6462C3.64326 22.5674 3.80824 22.5242 3.97645 22.5203C4.50145 22.4823 5.03145 22.5076 5.55945 22.5076H10.5294C10.7774 19.8846 11.0194 17.3076 11.2654 14.6956H10.6654C8.53641 14.6956 6.40735 14.7064 4.27735 14.6834C4.12156 14.662 3.96344 14.7005 3.83472 14.7908C3.706 14.8811 3.61624 15.0164 3.58338 15.1702C2.94982 16.8258 2.52233 18.5532 2.31043 20.3132C2.30729 20.5821 2.20788 20.8409 2.03028 21.0427C1.85268 21.2445 1.60864 21.376 1.34241 21.4133C1.11123 21.4469 0.875567 21.3996 0.675176 21.2796C0.474785 21.1595 0.321953 20.9738 0.242437 20.7542C0.163767 20.439 0.148741 20.1114 0.198369 19.7903C0.438499 17.7544 0.973443 15.7645 1.78638 13.8826C5.04338 6.52158 10.5863 1.96239 18.3973 0.390391C23.1797 -0.517706 28.1279 0.168503 32.4825 2.344C36.8372 4.51951 40.3576 8.06405 42.5034 12.4334C44.1812 15.6935 45.0384 19.3139 45.0007 22.9802C44.9631 26.6466 44.0317 30.2484 42.2874 33.4734C41.2538 35.4723 39.9102 37.2948 38.3064 38.8733C38.1893 39.0041 38.0475 39.1103 37.889 39.1858C37.7306 39.2613 37.5587 39.3046 37.3834 39.3132C37.121 39.3092 36.8716 39.2023 36.6874 39.0154ZM40.0874 32.3694C40.4104 32.3694 40.5284 32.2023 40.6484 31.9563C41.515 30.1984 42.1316 28.3278 42.4804 26.3992C42.5803 25.8542 42.6364 25.2993 42.7184 24.7063C39.9714 24.7063 37.3184 24.7064 34.6674 24.7004C34.3424 24.7004 34.3295 24.8802 34.3145 25.1262C34.2705 25.8462 34.2453 26.5714 34.1473 27.2844C33.9163 28.9494 33.6474 30.6094 33.3794 32.3294C33.454 32.3443 33.5294 32.3538 33.6054 32.3582H36.6884C37.8217 32.3608 38.9541 32.3647 40.0874 32.3694ZM34.0483 14.6956C33.9539 14.6985 33.8597 14.7071 33.7664 14.7214C34.0104 17.3214 34.2554 19.8953 34.4994 22.4793H42.7644C42.7804 22.4078 42.7914 22.3355 42.7974 22.2625C42.7538 19.7636 42.2413 17.2953 41.2864 14.9856C41.2306 14.9031 41.1564 14.8347 41.0696 14.7859C40.9828 14.7371 40.8858 14.7091 40.7864 14.7044C39.5624 14.6944 38.3384 14.6901 37.1144 14.6921L34.0483 14.6956ZM12.8334 22.4724H21.3814V14.7263H13.5894C13.0704 17.2756 12.8173 19.8719 12.8344 22.4734L12.8334 22.4724ZM23.6194 22.4666H32.2034C32.2154 19.8625 31.957 17.2638 31.4324 14.7131H23.6194V22.4666ZM29.5714 4.30543C31.1521 6.62322 32.3069 9.20435 32.9814 11.9275C32.9901 12.0213 33.0181 12.1123 33.0641 12.1946C33.11 12.2769 33.1728 12.3485 33.2482 12.405C33.3236 12.4616 33.41 12.5016 33.5018 12.5227C33.5937 12.5438 33.6889 12.5456 33.7814 12.5276C35.6704 12.4976 37.5624 12.5154 39.4514 12.5154H40.1254C37.6043 8.09909 33.5411 4.76933 28.7155 3.16529C29.0635 3.62429 29.3274 3.96243 29.5714 4.30543ZM11.2804 12.5242C11.369 12.5404 11.4601 12.5382 11.5477 12.5173C11.6354 12.4964 11.7177 12.4576 11.7894 12.4031C11.8612 12.3486 11.9209 12.2797 11.9646 12.2009C12.0083 12.1222 12.0351 12.0353 12.0433 11.9456C12.7999 8.83101 14.2045 5.91056 16.1654 3.37525C16.1884 3.34625 16.1834 3.29539 16.1934 3.2444C12.3994 4.00739 6.14237 9.14446 4.94837 12.5125C6.10737 12.5125 7.24841 12.5125 8.38941 12.5125C9.35441 12.5075 10.3184 12.5112 11.2804 12.5242ZM20.8684 12.5242C21.3324 12.5312 21.4314 12.3802 21.4294 11.9392C21.4114 8.90822 21.4193 5.87935 21.4183 2.85035C21.4183 2.69735 21.4054 2.5502 21.3954 2.3152C21.1014 2.4152 20.8424 2.48212 20.6014 2.58912C19.4345 3.13477 18.4223 3.96371 17.6574 5.00025C16.227 6.89397 15.1506 9.03078 14.4804 11.3074C14.3594 11.6784 14.2553 12.0522 14.1263 12.4832C14.3643 12.4982 14.5264 12.5144 14.6904 12.5144H16.5075H18.0244C18.9734 12.5084 19.9204 12.5102 20.8694 12.5222L20.8684 12.5242ZM23.6104 12.4802H30.8724C30.8452 12.3183 30.8074 12.1583 30.7594 12.0012C30.2424 10.6382 29.7884 9.24459 29.1834 7.92359C28.416 6.13351 27.2211 4.55867 25.7034 3.33815C25.0973 2.83794 24.3792 2.49197 23.6104 2.32936V12.4802Z" />
      </symbol>
    </svg>